<svg width="471" height="573" viewBox="0 0 471 573" fill="none" xmlns="http://www.w3.org/2000/svg">
<g clip-path="url(#clip0_264_1731)">
<rect width="471" height="579" rx="35" fill="#D9D9D9"/>
<g clip-path="url(#clip1_264_1731)">
<rect y="-6" width="471" height="579" fill="#1C1B27"/>
<path d="M104 132.55C104 72.5996 152.6 24 212.55 24H471V573H104V132.55Z" fill="#1C1B27"/>
<path d="M106 132.55C106 73.7041 153.704 26 212.55 26H445V571H106V132.55Z" fill="#1C1B27" stroke="#292841" stroke-width="4"/>
<path d="M140.735 493.337C140.735 491.072 139.178 489.816 136.595 489.816H133.358V502.023H135.021V497.07H136.312C138.966 497.07 140.735 495.831 140.735 493.337ZM139.055 493.39C139.055 494.911 138.064 495.601 136.401 495.601H135.021V491.285H136.507C138.17 491.285 139.055 491.992 139.055 493.39ZM144.612 502.023V489.816H142.949V502.023H144.612ZM157.163 502.023V489.816H155.624V498.963L149.149 489.816H147.663V502.023H149.202V492.523L155.907 502.023H157.163ZM167.532 498.449C167.532 496.84 166.612 495.92 165.25 495.513C166.347 495.053 167.002 494.221 167.002 492.983C167.002 491.108 165.745 489.816 163.056 489.816H160.102V502.023H163.021C165.834 502.023 167.532 500.891 167.532 498.449ZM165.374 493.036C165.374 494.239 164.507 494.947 162.897 494.947H161.73V491.232H163.021C164.684 491.232 165.374 491.921 165.374 493.036ZM165.905 498.485C165.905 499.9 164.896 500.608 163.145 500.608H161.73V496.309H163.092C164.914 496.309 165.905 497.07 165.905 498.485ZM180.498 495.902C180.498 492.134 178.34 489.586 174.89 489.586C171.458 489.586 169.247 492.151 169.247 495.937C169.247 499.706 171.423 502.253 174.855 502.253C178.305 502.253 180.498 499.67 180.498 495.902ZM178.782 495.92C178.782 498.856 177.296 500.732 174.873 500.732C172.467 500.732 170.963 498.856 170.963 495.92C170.963 492.983 172.449 491.108 174.873 491.108C177.279 491.108 178.782 492.983 178.782 495.92ZM192.648 501.793L187.942 489.763H186.279L181.502 502.023H183.183L184.563 498.361H189.605L191.038 502.147L192.648 501.793ZM189.039 496.893H185.129L187.075 491.745L189.039 496.893ZM200.352 493.372C200.352 494.752 199.326 495.477 197.716 495.477H196.301V491.285H197.893C199.52 491.285 200.352 492.045 200.352 493.372ZM199.343 496.663C200.936 496.22 202.015 495.124 202.015 493.284C202.015 491.055 200.458 489.816 197.964 489.816H194.638V502.023H196.301V496.875H197.557L201.289 502.147L202.97 501.775L199.343 496.663ZM214.687 495.902C214.687 492.328 212.511 489.816 208.265 489.816H204.727V502.023H208.195C212.387 502.023 214.687 499.529 214.687 495.902ZM212.971 495.92C212.971 499.033 211.202 500.519 208.265 500.519H206.39V491.32H208.318C211.114 491.32 212.971 492.859 212.971 495.92Z" fill="white"/>
<path fill-rule="evenodd" clip-rule="evenodd" d="M115.206 494.428C115.481 494.153 115.926 494.153 116.201 494.428L119.222 497.449L122.243 494.428C122.518 494.153 122.964 494.153 123.238 494.428C123.513 494.703 123.513 495.148 123.238 495.423L119.72 498.942C119.445 499.216 118.999 499.216 118.725 498.942L115.206 495.423C114.931 495.148 114.931 494.703 115.206 494.428Z" fill="#B9BBBE"/>
<path d="M116 466H436" stroke="#7F7DB7" stroke-width="0.75"/>
<rect x="119.396" y="516.638" width="315.002" height="61.7966" rx="6.62107" fill="#292841"/>
<path d="M166.038 561.055V535.95H167.951V562.986H143.085C140.973 562.986 139.26 561.256 139.26 559.123V535.95C139.26 533.817 140.973 532.087 143.085 532.087H164.126V557.192H143.085C142.029 557.192 141.173 558.056 141.173 559.123C141.173 560.191 142.029 561.055 143.085 561.055H166.038ZM157.404 538.267L149.674 545.675L146.632 542.757L144.042 545.225L149.673 550.626L159.981 540.739L157.404 538.267Z" fill="white"/>
<path d="M194.539 541.072C194.539 540.285 193.905 539.625 193.118 539.625C192.331 539.625 191.671 540.285 191.671 541.072C191.671 541.859 192.331 542.493 193.118 542.493C193.905 542.493 194.539 541.859 194.539 541.072ZM194.235 557.036V544.93H191.976V557.036H194.235ZM207.843 557.036V548.229C207.843 546.047 206.625 544.676 204.34 544.676C202.615 544.676 201.193 545.641 200.051 546.681L199.772 544.93H197.97V557.036H200.229V548.661C201.32 547.493 202.538 546.707 203.731 546.707C205.051 546.707 205.584 547.544 205.584 548.788V557.036H207.843ZM217.09 541.047L216.76 538.991C216.532 538.991 216.253 538.94 215.796 538.94C213.638 538.94 212.039 539.854 212.039 542.265V544.93H210.212V546.833H212.039V557.036H214.248V546.833H216.963L216.684 544.93H214.248V542.493C214.248 541.377 214.882 540.945 215.923 540.945C216.38 540.945 216.836 540.996 217.09 541.047ZM229.521 550.996C229.521 547.011 227.135 544.676 223.886 544.676C220.663 544.676 218.328 547.011 218.328 550.996C218.328 554.981 220.663 557.29 223.886 557.29C227.135 557.29 229.521 554.981 229.521 550.996ZM227.236 550.996C227.236 553.534 226.12 555.412 223.886 555.412C221.754 555.412 220.612 553.483 220.612 550.996C220.612 548.458 221.703 546.58 223.886 546.58C226.069 546.58 227.236 548.509 227.236 550.996ZM239.174 546.833L238.819 544.676C236.839 544.778 235.443 546.021 234.58 547.392L234.199 544.93H232.397V557.036H234.656V549.879C235.469 548.28 237.169 546.935 239.174 546.833ZM258.677 557.036V548.229C258.677 546.047 257.56 544.676 255.25 544.676C253.55 544.676 252.078 545.641 250.986 546.681C250.529 545.437 249.565 544.676 247.788 544.676C246.088 544.676 244.717 545.641 243.575 546.681L243.296 544.93H241.494V557.036H243.753V548.661C244.844 547.493 245.986 546.707 247.179 546.707C248.499 546.707 248.956 547.544 248.956 548.788V557.036H251.215V548.661C252.306 547.493 253.448 546.707 254.641 546.707C255.961 546.707 256.418 547.544 256.418 548.788V557.036H258.677ZM271.353 557.036V548.559C271.353 545.869 269.931 544.676 266.987 544.676C265.109 544.676 263.738 545.108 262.292 545.691L262.596 547.646C263.916 547.062 265.312 546.605 266.784 546.605C268.18 546.605 269.094 547.138 269.094 548.661V549.168C264.043 549.701 261.454 550.894 261.454 553.915C261.454 555.971 262.825 557.29 265.007 557.29C266.987 557.29 268.307 556.402 269.271 555.412L269.525 557.036H271.353ZM269.094 553.712C268.078 554.752 266.809 555.412 265.49 555.412C264.347 555.412 263.688 554.778 263.688 553.788C263.688 552.544 264.627 551.326 269.094 550.894V553.712ZM280.668 557.087L280.363 555.158C280.084 555.209 279.729 555.234 279.323 555.234C278.054 555.234 277.648 554.625 277.648 553.635V546.833H280.566L280.262 544.93H277.648V540.564L275.439 540.894V544.93H273.612V546.833H275.439V554.042C275.439 556.478 276.835 557.24 278.967 557.24C279.754 557.24 280.287 557.163 280.668 557.087ZM286.148 541.072C286.148 540.285 285.513 539.625 284.727 539.625C283.94 539.625 283.28 540.285 283.28 541.072C283.28 541.859 283.94 542.493 284.727 542.493C285.513 542.493 286.148 541.859 286.148 541.072ZM285.843 557.036V544.93H283.584V557.036H285.843ZM300.086 550.996C300.086 547.011 297.7 544.676 294.452 544.676C291.228 544.676 288.893 547.011 288.893 550.996C288.893 554.981 291.228 557.29 294.452 557.29C297.7 557.29 300.086 554.981 300.086 550.996ZM297.802 550.996C297.802 553.534 296.685 555.412 294.452 555.412C292.32 555.412 291.177 553.483 291.177 550.996C291.177 548.458 292.269 546.58 294.452 546.58C296.634 546.58 297.802 548.509 297.802 550.996ZM312.836 557.036V548.229C312.836 546.047 311.618 544.676 309.333 544.676C307.608 544.676 306.186 545.641 305.044 546.681L304.765 544.93H302.963V557.036H305.222V548.661C306.313 547.493 307.531 546.707 308.724 546.707C310.044 546.707 310.577 547.544 310.577 548.788V557.036H312.836Z" fill="white"/>
<rect x="119.396" y="310" width="311.614" height="63.3155" rx="6.54987" fill="#292841"/>
<path d="M150.399 352.683V344.169H156.076V352.683H163.171V341.33H167.429L153.237 328.558L139.046 341.33H143.303V352.683H150.399Z" fill="white"/>
<path d="M204.829 351.158V333.833H202.468V341.014H193.706V333.833H191.346V351.158H193.706V343.173H202.468V351.158H204.829ZM219.068 345.182C219.068 341.24 216.708 338.93 213.494 338.93C210.305 338.93 207.995 341.24 207.995 345.182C207.995 349.124 210.305 351.409 213.494 351.409C216.708 351.409 219.068 349.124 219.068 345.182ZM216.808 345.182C216.808 347.693 215.703 349.551 213.494 349.551C211.385 349.551 210.255 347.643 210.255 345.182C210.255 342.671 211.335 340.813 213.494 340.813C215.653 340.813 216.808 342.721 216.808 345.182ZM238.912 351.158V342.445C238.912 340.286 237.807 338.93 235.522 338.93C233.84 338.93 232.384 339.884 231.304 340.914C230.852 339.683 229.898 338.93 228.14 338.93C226.458 338.93 225.102 339.884 223.973 340.914L223.696 339.181H221.914V351.158H224.148V342.872C225.228 341.717 226.358 340.939 227.538 340.939C228.843 340.939 229.295 341.767 229.295 342.998V351.158H231.53V342.872C232.61 341.717 233.739 340.939 234.92 340.939C236.225 340.939 236.677 341.767 236.677 342.998V351.158H238.912ZM252.079 344.931C252.079 341.617 250.472 338.93 246.982 338.93C243.969 338.93 241.709 341.29 241.709 345.132C241.709 349.526 244.145 351.409 247.258 351.409C249.242 351.409 250.773 350.806 252.054 349.802L251.728 347.793C250.422 348.823 249.166 349.501 247.434 349.501C245.35 349.501 244.019 348.195 243.944 345.408H252.079C252.079 345.257 252.079 345.057 252.079 344.931ZM249.819 343.726H244.044C244.396 341.667 245.576 340.688 246.957 340.688C248.689 340.688 249.543 341.792 249.819 343.726Z" fill="white"/>
<rect x="119" y="381" width="312" height="64" rx="5.42922" fill="#292841"/>
<path d="M204.639 420.644L204.288 418.409C202.907 419.414 201.274 420.142 199.416 420.142C195.926 420.142 193.817 417.505 193.817 413.337C193.817 409.169 195.901 406.507 199.416 406.507C201.274 406.507 202.756 407.235 204.011 408.189L204.363 405.779C203.032 404.875 201.5 404.348 199.441 404.348C194.57 404.348 191.381 407.989 191.381 413.362C191.381 418.711 194.52 422.326 199.391 422.326C201.375 422.326 203.308 421.623 204.639 420.644ZM217.759 422V413.287C217.759 411.127 216.553 409.771 214.294 409.771C212.586 409.771 211.205 410.726 210.226 411.604V403.871L207.991 404.222V422H210.226V413.714C211.305 412.559 212.511 411.78 213.691 411.78C214.997 411.78 215.524 412.609 215.524 413.839V422H217.759ZM230.297 422V413.613C230.297 410.952 228.891 409.771 225.978 409.771C224.12 409.771 222.764 410.198 221.333 410.776L221.634 412.709C222.94 412.132 224.321 411.68 225.777 411.68C227.158 411.68 228.062 412.207 228.062 413.714V414.216C223.066 414.743 220.504 415.923 220.504 418.911C220.504 420.945 221.86 422.251 224.02 422.251C225.978 422.251 227.284 421.372 228.238 420.393L228.489 422H230.297ZM228.062 418.711C227.058 419.74 225.803 420.393 224.497 420.393C223.367 420.393 222.714 419.765 222.714 418.786C222.714 417.556 223.643 416.35 228.062 415.923V418.711ZM243.531 422V413.287C243.531 411.127 242.326 409.771 240.066 409.771C238.358 409.771 236.952 410.726 235.822 411.755L235.546 410.023H233.763V422H235.998V413.714C237.078 412.559 238.283 411.78 239.463 411.78C240.769 411.78 241.296 412.609 241.296 413.839V422H243.531ZM256.772 422V413.287C256.772 411.127 255.567 409.771 253.307 409.771C251.6 409.771 250.194 410.726 249.064 411.755L248.787 410.023H247.005V422H249.239V413.714C250.319 412.559 251.524 411.78 252.705 411.78C254.01 411.78 254.538 412.609 254.538 413.839V422H256.772ZM269.939 415.773C269.939 412.458 268.332 409.771 264.841 409.771C261.828 409.771 259.568 412.132 259.568 415.974C259.568 420.368 262.004 422.251 265.118 422.251C267.101 422.251 268.633 421.648 269.914 420.644L269.587 418.635C268.281 419.665 267.026 420.343 265.293 420.343C263.209 420.343 261.878 419.037 261.803 416.25H269.939C269.939 416.099 269.939 415.898 269.939 415.773ZM267.679 414.567H261.903C262.255 412.508 263.435 411.529 264.816 411.529C266.549 411.529 267.403 412.634 267.679 414.567ZM275.187 422V403.871L272.952 404.222V422H275.187ZM299.792 421.573L296.051 417.832C296.905 416.3 297.482 414.442 297.834 412.383L295.775 411.931C295.524 413.689 295.122 415.17 294.569 416.35L289.799 411.579C288.593 410.374 288.066 409.571 288.066 408.491C288.066 407.26 288.844 406.407 290.426 406.407C291.682 406.407 293.013 406.934 294.343 407.788L294.72 405.427C293.54 404.775 292.109 404.348 290.451 404.348C287.438 404.348 285.731 406.281 285.731 408.541C285.731 410.173 286.358 411.228 287.463 412.383C285.128 413.513 283.521 415.17 283.521 417.656C283.521 420.644 285.63 422.326 289.221 422.326C291.531 422.326 293.414 421.347 294.821 419.665L297.357 422.151L299.792 421.573ZM293.414 418.259C292.259 419.64 290.828 420.318 289.246 420.318C287.237 420.318 285.881 419.112 285.881 417.405C285.881 415.898 286.961 414.618 288.819 413.739L293.414 418.259ZM315.446 409.721C315.446 411.68 313.989 412.709 311.704 412.709H309.695V406.758H311.955C314.265 406.758 315.446 407.838 315.446 409.721ZM314.014 414.392C316.274 413.764 317.806 412.207 317.806 409.596C317.806 406.432 315.596 404.674 312.056 404.674H307.335V422H309.695V414.693H311.478L316.776 422.176L319.162 421.648L314.014 414.392ZM331.283 416.024C331.283 412.082 328.923 409.771 325.709 409.771C322.52 409.771 320.21 412.082 320.21 416.024C320.21 419.966 322.52 422.251 325.709 422.251C328.923 422.251 331.283 419.966 331.283 416.024ZM329.023 416.024C329.023 418.535 327.919 420.393 325.709 420.393C323.6 420.393 322.47 418.485 322.47 416.024C322.47 413.513 323.55 411.655 325.709 411.655C327.868 411.655 329.023 413.563 329.023 416.024ZM336.54 422V403.871L334.305 404.222V422H336.54ZM349.928 415.773C349.928 412.458 348.321 409.771 344.83 409.771C341.817 409.771 339.557 412.132 339.557 415.974C339.557 420.368 341.993 422.251 345.107 422.251C347.09 422.251 348.622 421.648 349.903 420.644L349.576 418.635C348.27 419.665 347.015 420.343 345.282 420.343C343.198 420.343 341.867 419.037 341.792 416.25H349.928C349.928 416.099 349.928 415.898 349.928 415.773ZM347.668 414.567H341.893C342.244 412.508 343.424 411.529 344.805 411.529C346.538 411.529 347.392 412.634 347.668 414.567ZM361.127 418.66C361.127 416.375 359.797 415.522 356.834 414.768C354.95 414.291 354.348 413.839 354.348 413.036C354.348 412.182 355.051 411.655 356.407 411.655C357.662 411.655 358.993 412.082 360.048 412.684L360.399 410.575C359.269 410.073 357.938 409.771 356.457 409.771C353.846 409.771 352.238 411.178 352.238 413.086C352.238 415.22 353.368 416.074 356.181 416.777C358.34 417.304 359.018 417.706 359.018 418.811C359.018 419.815 358.114 420.393 356.582 420.393C354.95 420.393 353.494 419.79 352.364 419.012L352.038 421.121C353.067 421.699 354.825 422.251 356.407 422.251C359.495 422.251 361.127 420.845 361.127 418.66Z" fill="white"/>
<path d="M161.546 407.301L161.039 410.123H158.226L158.733 407.301L150.291 407.3L148.8 415.601H151.908V418.368H148.307L147.411 423.33C147.351 423.661 147.059 423.901 146.718 423.901H145.334C144.896 423.901 144.565 423.512 144.641 423.089L145.493 418.368H140.704C140.267 418.368 139.935 417.98 140.011 417.557L140.257 416.173C140.316 415.842 140.608 415.601 140.95 415.601H145.986L147.477 407.3H142.687C142.25 407.3 141.919 406.913 141.994 406.489L142.24 405.106C142.299 404.775 142.591 404.534 142.933 404.534H147.969L148.865 399.571C148.924 399.241 149.216 399 149.557 399H150.942C151.379 399 151.711 399.389 151.634 399.813L150.782 404.534L159.225 404.534L160.121 399.571C160.18 399.241 160.472 399 160.813 399H162.198C162.635 399 162.967 399.389 162.89 399.813L162.038 404.534H166.828C167.265 404.534 167.596 404.922 167.521 405.345L167.275 406.728C167.216 407.059 166.923 407.301 166.582 407.301H161.546Z" fill="white"/>
<path d="M168 425.114L163.843 420.956C164.682 419.88 165.142 418.566 165.142 417.179C165.142 415.531 164.5 413.983 163.335 412.819C162.171 411.653 160.622 411.012 158.975 411.012C157.328 411.012 155.779 411.653 154.615 412.819C153.45 413.983 152.808 415.531 152.808 417.179C152.808 418.826 153.45 420.375 154.615 421.539C155.779 422.705 157.328 423.346 158.975 423.346C160.362 423.346 161.676 422.887 162.752 422.046L166.91 426.203L168 425.114ZM158.975 421.804C157.739 421.804 156.578 421.323 155.705 420.45C154.831 419.576 154.35 418.415 154.35 417.179C154.35 415.944 154.831 414.782 155.705 413.909C156.578 413.035 157.739 412.553 158.975 412.553C160.211 412.553 161.372 413.035 162.245 413.909C163.119 414.782 163.6 415.944 163.6 417.179C163.6 418.415 163.119 419.576 162.245 420.45C161.372 421.323 160.211 421.804 158.975 421.804Z" fill="white"/>
<path fill-rule="evenodd" clip-rule="evenodd" d="M410.608 241.593C410.388 241.803 410.388 242.143 410.608 242.352C410.828 242.562 411.184 242.562 411.403 242.352L416.425 237.558C416.44 237.546 416.454 237.534 416.468 237.521C416.687 237.312 416.687 236.972 416.468 236.762L411.407 231.931C411.188 231.721 410.832 231.721 410.612 231.931C410.392 232.141 410.392 232.481 410.612 232.69L415.273 237.14L410.608 241.593Z" fill="white"/>
<g clip-path="url(#clip2_264_1731)">
<path d="M103.752 24.2145H446.898V217.458H103.752V24.2145Z" fill="#E2757D"/>
<path d="M103.752 26.2026C103.752 25.1046 104.642 24.2145 105.74 24.2145H446.898V110.896H103.752V26.2026Z" fill="url(#paint0_linear_264_1731)"/>
<path fill-rule="evenodd" clip-rule="evenodd" d="M418.876 56.7829C419.171 56.4771 419.171 55.9812 418.876 55.6753C418.581 55.3695 418.103 55.3695 417.808 55.6753L411.538 62.1749L405.273 55.6799C404.978 55.3741 404.5 55.3741 404.205 55.6799C403.91 55.9858 403.91 56.4817 404.205 56.7875L411.004 63.8362C411.296 64.1388 411.767 64.1421 412.063 63.8461C412.068 63.8414 412.072 63.8365 412.077 63.8316L418.876 56.7829Z" fill="white"/>
<path d="M163.133 65.9033C166.8 65.9033 169.413 63.5852 169.413 59.834V50.7301H165.873V59.4968C165.873 61.4567 164.735 62.4683 163.133 62.4683C161.511 62.4683 160.436 61.4567 160.436 59.4968V50.7301H156.896V59.834C156.896 63.5852 159.467 65.9033 163.133 65.9033ZM178.679 54.5023C176.993 54.5023 175.855 55.2821 175.307 56.4201V54.8184H171.935V65.4818H175.349V59.7708C175.349 58.3167 176.024 57.3684 177.288 57.3684C178.511 57.3684 178.995 58.127 178.995 59.5601V65.4818H182.409V58.8014C182.409 56.1039 180.997 54.5023 178.679 54.5023ZM190.254 65.819C191.603 65.819 192.867 65.5029 193.9 64.8707V61.9625C193.247 62.4472 192.214 62.8897 191.013 62.8897C188.905 62.8897 187.788 61.7307 187.788 60.1291C187.788 58.5064 188.948 57.4316 190.907 57.4316C192.109 57.4316 193.036 57.7477 193.816 58.2956V55.2821C192.994 54.8395 191.856 54.4813 190.338 54.4813C186.587 54.4813 184.29 56.8205 184.29 60.1501C184.29 63.4376 186.587 65.819 190.254 65.819ZM201.135 65.7979C204.423 65.7979 206.931 63.5852 206.931 60.1923C206.931 56.7362 204.465 54.5023 201.135 54.5023C197.848 54.5023 195.403 56.7362 195.403 60.1923C195.403 63.5852 197.89 65.7979 201.135 65.7979ZM201.135 62.9108C199.745 62.9108 198.902 61.815 198.902 60.1712C198.902 58.5064 199.723 57.3895 201.135 57.3895C202.568 57.3895 203.432 58.5064 203.432 60.1712C203.432 61.815 202.568 62.9108 201.135 62.9108ZM221.815 54.5023C220.319 54.5023 219.181 55.2188 218.485 56.4201C217.937 55.2399 216.884 54.5023 215.429 54.5023C213.933 54.5023 212.88 55.261 212.289 56.5254V54.8184H208.918V65.4818H212.332V59.4547C212.332 58.2535 212.985 57.3684 214.017 57.3684C215.029 57.3684 215.535 58.106 215.535 59.2229V65.4818H218.907V59.1597C218.928 58.1481 219.56 57.3684 220.571 57.3684C221.604 57.3684 222.089 58.106 222.089 59.3072V65.4818H225.503V58.6539C225.503 56.0618 224.112 54.5023 221.815 54.5023ZM240.872 54.5023C239.376 54.5023 238.238 55.2188 237.542 56.4201C236.994 55.2399 235.941 54.5023 234.486 54.5023C232.99 54.5023 231.937 55.261 231.346 56.5254V54.8184H227.975V65.4818H231.389V59.4547C231.389 58.2535 232.042 57.3684 233.075 57.3684C234.086 57.3684 234.592 58.106 234.592 59.2229V65.4818H237.964V59.1597C237.985 58.1481 238.617 57.3684 239.628 57.3684C240.661 57.3684 241.146 58.106 241.146 59.3072V65.4818H244.56V58.6539C244.56 56.0618 243.169 54.5023 240.872 54.5023ZM252.174 65.7979C255.461 65.7979 257.969 63.5852 257.969 60.1923C257.969 56.7362 255.503 54.5023 252.174 54.5023C248.886 54.5023 246.442 56.7362 246.442 60.1923C246.442 63.5852 248.928 65.7979 252.174 65.7979ZM252.174 62.9108C250.783 62.9108 249.94 61.815 249.94 60.1712C249.94 58.5064 250.762 57.3895 252.174 57.3895C253.607 57.3895 254.471 58.5064 254.471 60.1712C254.471 61.815 253.607 62.9108 252.174 62.9108ZM266.699 54.5023C265.014 54.5023 263.876 55.2821 263.328 56.4201V54.8184H259.956V65.4818H263.37V59.7708C263.37 58.3167 264.044 57.3684 265.309 57.3684C266.531 57.3684 267.016 58.127 267.016 59.5601V65.4818H270.43V58.8014C270.43 56.1039 269.018 54.5023 266.699 54.5023ZM286.2 57.7477L290.584 50.7301H286.495L283.756 55.535L281.1 50.7301H277.117L281.395 57.7477L276.886 65.4818H280.89L283.756 60.1291L286.601 65.4818H290.773L286.2 57.7477ZM304.705 65.9033C306.538 65.9033 308.245 65.4186 309.468 64.5967V61.3724C308.435 62.0889 307.002 62.6368 305.506 62.6368C302.471 62.6368 300.574 60.7613 300.574 58.0849C300.574 55.4085 302.471 53.554 305.464 53.554C307.044 53.554 308.393 54.123 309.404 54.8606V51.5098C308.33 50.8776 306.791 50.3086 304.747 50.3086C299.9 50.3086 296.865 53.6172 296.865 58.1903C296.865 62.4472 299.668 65.9033 304.705 65.9033ZM317.702 54.6288C316.48 54.6288 315.51 55.3242 315.025 57.0312V54.8184H311.611V65.4818H315.025V60.7191C315.025 58.8014 315.911 57.7688 317.365 57.7688C318.081 57.7688 318.65 57.9374 319.051 58.2113V55.0503C318.713 54.8184 318.271 54.6288 317.702 54.6288ZM330.639 59.6022C330.639 56.3147 328.763 54.5023 325.56 54.5023C322.061 54.5023 319.912 56.7994 319.912 60.0869C319.912 63.5852 322.314 65.7979 326.108 65.7979C327.941 65.7979 329.374 65.2711 330.175 64.6599V62.1943C329.311 62.7844 328.152 63.1426 326.951 63.1426C324.885 63.1426 323.705 62.3207 323.368 60.9931H330.639V59.6022ZM325.644 57.0944C326.866 57.0944 327.667 57.7688 327.709 59.0964H323.41C323.579 57.8531 324.316 57.0944 325.644 57.0944ZM336.753 54.5023C335.109 54.5023 333.697 55.0081 332.686 55.6614V58.5064C333.487 57.7899 334.625 57.3052 335.973 57.3052C337.659 57.3052 338.608 58.1692 338.608 59.7708V60.0869C338.06 59.4125 337.153 58.9911 335.91 58.9911C333.697 58.9911 332.117 60.2766 332.117 62.405C332.117 64.3649 333.571 65.7979 335.636 65.7979C336.964 65.7979 338.039 65.2079 338.608 64.2385V65.4818H341.958V59.4336C341.958 56.4201 340.125 54.5023 336.753 54.5023ZM336.943 63.6062C335.889 63.6062 335.278 63.0372 335.278 62.1943C335.278 61.3724 335.91 60.8034 336.964 60.8034C337.996 60.8034 338.671 61.3935 338.671 62.1732C338.671 62.9951 337.996 63.6062 336.943 63.6062ZM349.099 54.8184V51.2359L345.685 51.9735V54.8184H343.24V57.6002H345.685V65.4818H349.099V57.6002H351.775V54.8184H349.099ZM355.097 53.6172C356.171 53.6172 356.972 52.8796 356.972 51.826C356.972 50.7933 356.214 50.0768 355.097 50.0768C353.959 50.0768 353.179 50.7933 353.179 51.826C353.179 52.8796 354.001 53.6172 355.097 53.6172ZM356.804 65.4818V54.8184H353.369V65.4818H356.804ZM364.182 61.4146L361.948 54.8184H358.302L362.496 65.4818H365.91L370.125 54.8184H366.5L364.182 61.4146ZM381.327 59.6022C381.327 56.3147 379.451 54.5023 376.248 54.5023C372.75 54.5023 370.6 56.7994 370.6 60.0869C370.6 63.5852 373.003 65.7979 376.796 65.7979C378.629 65.7979 380.062 65.2711 380.863 64.6599V62.1943C379.999 62.7844 378.84 63.1426 377.639 63.1426C375.574 63.1426 374.394 62.3207 374.056 60.9931H381.327V59.6022ZM376.332 57.0944C377.555 57.0944 378.355 57.7688 378.398 59.0964H374.099C374.267 57.8531 375.005 57.0944 376.332 57.0944Z" fill="white"/>
<path fill-rule="evenodd" clip-rule="evenodd" d="M150.267 60.4284C150.267 61.664 148.231 62.5868 147.849 63.6972C147.468 64.8077 148.549 66.8253 147.849 67.7481C147.15 68.6708 144.923 68.2955 143.937 68.9993C142.951 69.7031 142.68 71.8771 141.488 72.2681C140.295 72.6591 138.831 71.0169 137.559 71.0169C136.287 71.0169 134.776 72.5809 133.631 72.2681C132.485 71.9553 132.167 69.7031 131.181 68.9993C130.195 68.2955 128 68.7178 127.269 67.7481C126.537 66.7784 127.634 64.8703 127.269 63.6972C126.903 62.5242 124.819 61.664 124.819 60.4284C124.819 59.1929 126.855 58.2701 127.237 57.1596C127.619 56.0492 126.537 54.0316 127.237 53.1088C127.937 52.1861 130.179 52.5614 131.181 51.8576C132.183 51.1538 132.422 48.9798 133.615 48.5419C134.808 48.104 136.271 49.84 137.543 49.84C138.816 49.84 140.327 48.276 141.472 48.5888C142.617 48.9016 142.919 51.1538 143.905 51.8576C144.891 52.5614 147.086 52.1391 147.818 53.1088C148.549 54.0785 147.452 55.9866 147.818 57.1596C148.183 58.3327 150.267 59.1929 150.267 60.4284Z" fill="#292841"/>
<path d="M136.829 66.1567L131.461 62.16L133.04 60.0284L136.197 62.4265L141.944 54.9189L144.091 56.4863L136.829 66.1567Z" fill="white"/>
</g>
<path d="M105.781 36.1476C105.781 30.6642 110.226 26.219 115.71 26.219H444.927V215.462H105.781V36.1476Z" stroke="#292841" stroke-width="4"/>
<circle cx="51.6924" cy="66.366" r="34.1953" fill="#292841"/>
<rect x="17.4971" y="124.419" width="68.3906" height="68.3906" rx="17.4953" fill="#E2757D"/>
<path d="M-0.00390625 124.419H0.592524C3.11792 124.419 5.16515 126.466 5.16515 128.991V188.237C5.16515 190.762 3.11792 192.809 0.592524 192.809H-0.00390625V124.419Z" fill="white"/>
<path d="M130.734 230.889H128.408V243.414H136.263V241.267H130.734V230.889ZM140.681 240.802L137.37 230.889H134.883L139.339 243.414H142.04L146.478 230.889H143.991L140.681 240.802ZM150.174 230.889H147.848V243.414H155.703V241.267H150.174V230.889ZM165.518 236.973C166.842 236.669 167.468 235.577 167.468 234.396C167.468 232.571 165.948 231.247 163.407 231.247C162.065 231.247 160.991 231.569 159.953 232.213V234.289C160.49 233.806 161.456 233.251 162.959 233.251C164.48 233.251 165.196 233.877 165.196 234.79C165.196 235.756 164.641 236.49 163.067 236.49H160.973L160.687 238.136H163.21C164.999 238.136 165.554 238.977 165.554 239.836C165.554 240.999 164.606 241.75 162.995 241.75C161.546 241.75 160.562 241.249 159.953 240.712V242.788C160.973 243.414 162.029 243.7 163.353 243.7C166.055 243.7 167.844 242.09 167.844 239.925C167.844 238.547 167.003 237.348 165.518 236.973Z" fill="white"/>
<path d="M334.576 238.328C336.029 236.943 336.696 235.678 336.696 234.242C336.696 232.173 335.277 230.788 332.986 230.788C331.601 230.788 330.575 231.233 329.737 231.951V233.678C330.387 232.925 331.396 232.31 332.695 232.31C334.217 232.31 335.038 233.165 335.038 234.43C335.038 235.439 334.593 236.362 333.225 237.695L329.771 241.064V242.414H336.816V240.927H331.823L334.576 238.328ZM342.792 234.823C341.271 234.823 340.193 235.592 339.715 236.704C339.732 233.934 341.065 232.293 343.168 232.293C344.297 232.293 345.306 232.788 345.87 233.318V231.592C345.1 231.079 344.16 230.788 343.117 230.788C340.142 230.788 338.107 233.147 338.107 237.234C338.107 241.115 339.937 242.671 342.331 242.671C344.776 242.671 346.468 240.91 346.468 238.585C346.468 236.379 344.964 234.823 342.792 234.823ZM342.331 241.252C340.894 241.252 339.834 240.158 339.834 238.653C339.834 237.217 340.877 236.157 342.313 236.157C343.733 236.157 344.793 237.183 344.793 238.67C344.793 240.226 343.715 241.252 342.331 241.252ZM358.396 235.952C359.524 235.592 360.105 234.652 360.105 233.489C360.105 231.797 358.84 230.446 356.84 230.446H352.36V242.414H356.583C359.165 242.414 360.567 240.944 360.567 238.995C360.567 237.559 359.832 236.379 358.396 235.952ZM356.481 231.916C357.746 231.916 358.43 232.669 358.43 233.797C358.43 234.857 357.814 235.592 356.6 235.592H354.019V231.916H356.481ZM354.019 240.927V236.892H356.652C358.088 236.892 358.857 237.73 358.857 238.927C358.857 240.14 358.071 240.927 356.395 240.927H354.019ZM365.814 242.671C368.396 242.671 370.003 240.705 370.003 238.14C370.003 235.575 368.396 233.609 365.814 233.609C363.267 233.609 361.66 235.575 361.66 238.14C361.66 240.705 363.267 242.671 365.814 242.671ZM365.814 241.235C364.207 241.235 363.267 239.952 363.267 238.14C363.267 236.328 364.207 235.045 365.814 235.045C367.439 235.045 368.396 236.328 368.396 238.14C368.396 239.952 367.439 241.235 365.814 241.235ZM375.119 242.671C377.701 242.671 379.308 240.705 379.308 238.14C379.308 235.575 377.701 233.609 375.119 233.609C372.572 233.609 370.965 235.575 370.965 238.14C370.965 240.705 372.572 242.671 375.119 242.671ZM375.119 241.235C373.512 241.235 372.572 239.952 372.572 238.14C372.572 236.328 373.512 235.045 375.119 235.045C376.744 235.045 377.701 236.328 377.701 238.14C377.701 239.952 376.744 241.235 375.119 241.235ZM383.484 242.671C385.33 242.671 386.63 241.611 386.63 239.969C386.63 238.807 386.014 237.935 384.476 237.507L382.954 237.08C382.287 236.892 381.928 236.499 381.928 235.986C381.928 235.336 382.458 234.994 383.501 234.994C384.458 234.994 385.467 235.319 386.202 235.952V234.413C385.501 233.951 384.595 233.609 383.484 233.609C381.586 233.609 380.389 234.601 380.389 236.02C380.389 237.08 381.005 237.918 382.39 238.345L384.014 238.841C384.835 239.097 385.074 239.508 385.074 240.021C385.074 240.841 384.407 241.286 383.313 241.286C382.236 241.286 381.193 240.859 380.338 240.14V241.645C381.261 242.346 382.253 242.671 383.484 242.671ZM390.701 233.866V231.215L389.128 231.728V233.866H387.042V235.199H389.128V242.414H390.701V235.199H393.026V233.866H390.701ZM396.6 242.671C398.447 242.671 399.746 241.611 399.746 239.969C399.746 238.807 399.131 237.935 397.592 237.507L396.07 237.08C395.403 236.892 395.044 236.499 395.044 235.986C395.044 235.336 395.574 234.994 396.617 234.994C397.575 234.994 398.584 235.319 399.319 235.952V234.413C398.618 233.951 397.712 233.609 396.6 233.609C394.702 233.609 393.506 234.601 393.506 236.02C393.506 237.08 394.121 237.918 395.506 238.345L397.13 238.841C397.951 239.097 398.19 239.508 398.19 240.021C398.19 240.841 397.524 241.286 396.429 241.286C395.352 241.286 394.309 240.859 393.454 240.14V241.645C394.378 242.346 395.369 242.671 396.6 242.671Z" fill="white"/>
<rect x="126.833" y="265.574" width="295.432" height="5.56668" rx="2.78334" fill="url(#paint1_linear_264_1731)"/>
<line x1="115.713" y1="290.841" x2="436.592" y2="290.841" stroke="#7F7DB7" stroke-width="0.795239"/>
<line x1="442" y1="26" x2="471" y2="26" stroke="#292841" stroke-width="4"/>
</g>
</g>
<defs>
<linearGradient id="paint0_linear_264_1731" x1="275" y1="-62" x2="275" y2="78.5" gradientUnits="userSpaceOnUse">
<stop stop-opacity="0.8"/>
<stop offset="1" stop-opacity="0"/>
</linearGradient>
<linearGradient id="paint1_linear_264_1731" x1="126.833" y1="265.574" x2="422.265" y2="265.574" gradientUnits="userSpaceOnUse">
<stop stop-color="#3F70DD"/>
<stop offset="1" stop-color="#B177F3"/>
</linearGradient>
<clipPath id="clip0_264_1731">
<rect width="471" height="573" rx="25" fill="white"/>
</clipPath>
<clipPath id="clip1_264_1731">
<rect y="-6" width="471" height="579" rx="16.3024" fill="white"/>
</clipPath>
<clipPath id="clip2_264_1731">
<path d="M103.781 36.1476C103.781 29.5596 109.122 24.219 115.71 24.219H446.927V217.462H103.781V36.1476Z" fill="white"/>
</clipPath>
</defs>
</svg>
