<svg width="2937" height="3473" viewBox="0 0 2937 3473" fill="none" xmlns="http://www.w3.org/2000/svg">
<rect width="2936.26" height="3472.39" rx="35" fill="#1C1B29"/>
<rect width="2936.26" height="3472.39" rx="35" fill="#1C1B29"/>
<circle cx="283.651" cy="302.353" r="84.1603" fill="#FF4E61"/>
<rect x="1396.44" y="243.13" width="398.982" height="143.384" rx="38" fill="#44415A"/>
<rect x="1465.01" y="2038.55" width="1090.97" height="143.384" rx="38" fill="#2A2740"/>
<rect x="1639.57" y="2213.1" width="916.412" height="143.384" rx="38" fill="#2A2740"/>
<rect width="1090.97" height="143.384" rx="38" transform="matrix(-1 0 0 1 1471.25 2948.73)" fill="#2A2740"/>
<rect width="916.412" height="143.384" rx="38" transform="matrix(-1 0 0 1 1296.69 3123.28)" fill="#2A2740"/>
<rect x="1851.53" y="243.13" width="398.982" height="143.384" rx="38" fill="#2A2740"/>
<rect x="2306.61" y="243.13" width="398.982" height="143.384" rx="38" fill="#2A2740"/>
<rect x="199.491" y="561.069" width="2506.11" height="1090.97" rx="11" fill="#2A2740"/>
<rect x="380.28" y="1795.42" width="810.432" height="810.432" rx="11" fill="#FF4E61"/>
<path d="M1745.55 2802.41C1745.55 2792.04 1745.55 2786.85 1748.77 2783.63C1751.99 2780.41 1757.18 2780.41 1767.55 2780.41H2533.98C2544.35 2780.41 2549.53 2780.41 2552.76 2783.63C2555.98 2786.85 2555.98 2792.04 2555.98 2802.41V3441.22H1745.55V2802.41Z" fill="#FF4E61"/>
</svg>
