<svg width="471" height="557" viewBox="0 0 471 557" fill="none" xmlns="http://www.w3.org/2000/svg">
<rect width="471" height="557" rx="35" fill="#1C1B29"/>
<mask id="mask0_294_2103" style="mask-type:alpha" maskUnits="userSpaceOnUse" x="0" y="0" width="471" height="557">
<rect width="471" height="557" rx="35" fill="#1C1B29"/>
</mask>
<g mask="url(#mask0_294_2103)">
<line x1="-1424" y1="50.4433" x2="471" y2="50.4433" stroke="#292841" stroke-width="5.11348"/>
<line x1="168.453" y1="53" x2="168.453" y2="1192.03" stroke="#292841" stroke-width="5.11348"/>
<path d="M250.503 137.163C250.503 153.972 236.876 167.599 220.067 167.599C203.258 167.599 189.631 153.972 189.631 137.163C189.631 120.354 203.258 106.727 220.067 106.727C236.876 106.727 250.503 120.354 250.503 137.163Z" fill="#E2757D"/>
<path d="M264.21 127.067C264.21 121.45 268.764 116.897 274.38 116.897H325.23C330.847 116.897 335.4 121.45 335.4 127.067C335.4 132.683 330.847 137.237 325.23 137.237H274.38C268.764 137.237 264.21 132.683 264.21 127.067Z" fill="#E2757D"/>
<path d="M264.21 149.102C264.21 144.421 268.005 140.627 272.685 140.627H391.335C396.015 140.627 399.81 144.421 399.81 149.102C399.81 153.782 396.015 157.577 391.335 157.577H272.685C268.005 157.577 264.21 153.782 264.21 149.102Z" fill="#E2757D"/>
<path d="M250.503 204.963C250.503 221.772 236.876 235.399 220.067 235.399C203.258 235.399 189.631 221.772 189.631 204.963C189.631 188.153 203.258 174.526 220.067 174.526C236.876 174.526 250.503 188.153 250.503 204.963Z" fill="#E2757D"/>
<path d="M264.21 194.866C264.21 189.25 268.764 184.696 274.38 184.696H301.5C307.117 184.696 311.67 189.25 311.67 194.866C311.67 200.483 307.117 205.036 301.5 205.036H274.38C268.764 205.036 264.21 200.483 264.21 194.866Z" fill="#E2757D"/>
<path d="M264.21 216.901C264.21 212.221 268.005 208.426 272.685 208.426H435.405C440.085 208.426 443.88 212.221 443.88 216.901C443.88 221.582 440.085 225.376 435.405 225.376H272.685C268.005 225.376 264.21 221.582 264.21 216.901Z" fill="#E2757D"/>
<path d="M250.503 272.762C250.503 289.572 236.876 303.198 220.067 303.198C203.258 303.198 189.631 289.572 189.631 272.762C189.631 255.953 203.258 242.326 220.067 242.326C236.876 242.326 250.503 255.953 250.503 272.762Z" fill="#E2757D"/>
<path d="M264.21 262.666C264.21 257.049 268.764 252.496 274.38 252.496H365.91C371.527 252.496 376.08 257.049 376.08 262.666C376.08 268.283 371.527 272.836 365.91 272.836H274.38C268.764 272.836 264.21 268.283 264.21 262.666Z" fill="#E2757D"/>
<path d="M264.21 284.701C264.21 280.02 268.005 276.226 272.685 276.226H418.455C423.135 276.226 426.93 280.02 426.93 284.701C426.93 289.381 423.135 293.176 418.455 293.176H272.685C268.005 293.176 264.21 289.381 264.21 284.701Z" fill="#E2757D"/>
<path d="M250.503 340.562C250.503 357.371 236.876 370.998 220.067 370.998C203.258 370.998 189.631 357.371 189.631 340.562C189.631 323.752 203.258 310.126 220.067 310.126C236.876 310.126 250.503 323.752 250.503 340.562Z" fill="#292841"/>
<path d="M264.21 330.466C264.21 324.849 268.764 320.296 274.38 320.296H365.91C371.527 320.296 376.08 324.849 376.08 330.466C376.08 336.082 371.527 340.636 365.91 340.636H274.38C268.764 340.636 264.21 336.082 264.21 330.466Z" fill="#292841"/>
<path d="M264.21 352.5C264.21 347.82 268.005 344.026 272.685 344.026H432.015C436.695 344.026 440.49 347.82 440.49 352.5C440.49 357.181 436.695 360.975 432.015 360.975H272.685C268.005 360.975 264.21 357.181 264.21 352.5Z" fill="#292841"/>
<path d="M250.503 408.362C250.503 425.171 236.876 438.798 220.067 438.798C203.258 438.798 189.631 425.171 189.631 408.362C189.631 391.552 203.258 377.925 220.067 377.925C236.876 377.925 250.503 391.552 250.503 408.362Z" fill="#292841"/>
<path d="M264.21 398.265C264.21 392.649 268.764 388.095 274.38 388.095H342.18C347.797 388.095 352.35 392.649 352.35 398.265C352.35 403.882 347.797 408.435 342.18 408.435H274.38C268.764 408.435 264.21 403.882 264.21 398.265Z" fill="#292841"/>
<path d="M264.21 420.3C264.21 415.62 268.005 411.825 272.685 411.825H404.895C409.575 411.825 413.37 415.62 413.37 420.3C413.37 424.981 409.575 428.775 404.895 428.775H272.685C268.005 428.775 264.21 424.981 264.21 420.3Z" fill="#292841"/>
<path d="M250.503 476.161C250.503 492.971 236.876 506.597 220.067 506.597C203.258 506.597 189.631 492.971 189.631 476.161C189.631 459.352 203.258 445.725 220.067 445.725C236.876 445.725 250.503 459.352 250.503 476.161Z" fill="#292841"/>
<path d="M264.21 466.065C264.21 460.448 268.764 455.895 274.38 455.895H298.11C303.727 455.895 308.28 460.448 308.28 466.065C308.28 471.682 303.727 476.235 298.11 476.235H274.38C268.764 476.235 264.21 471.682 264.21 466.065Z" fill="#292841"/>
<path d="M264.21 488.1C264.21 483.419 268.005 479.625 272.685 479.625H432.015C436.695 479.625 440.49 483.419 440.49 488.1C440.49 492.78 436.695 496.575 432.015 496.575H272.685C268.005 496.575 264.21 492.78 264.21 488.1Z" fill="#292841"/>
</g>
<path d="M226.736 87L225.847 75.6495H223.956L220.419 84.9602L216.882 75.6495H214.974L214.069 87H215.517L216.208 77.969L219.794 87.0493H220.962L224.548 77.969L225.255 87H226.736ZM239.178 81.3083C239.178 77.8045 237.171 75.4357 233.964 75.4357C230.772 75.4357 228.716 77.8209 228.716 81.3412C228.716 84.8451 230.739 87.2138 233.931 87.2138C237.139 87.2138 239.178 84.8122 239.178 81.3083ZM237.583 81.3248C237.583 84.0555 236.201 85.7992 233.947 85.7992C231.71 85.7992 230.312 84.0555 230.312 81.3248C230.312 78.5941 231.694 76.8504 233.947 76.8504C236.184 76.8504 237.583 78.5941 237.583 81.3248ZM250.711 81.3083C250.711 77.9854 248.688 75.6495 244.74 75.6495H241.45V87H244.674C248.573 87 250.711 84.6806 250.711 81.3083ZM249.116 81.3248C249.116 84.22 247.471 85.6018 244.74 85.6018H242.996V77.0478H244.789C247.388 77.0478 249.116 78.4789 249.116 81.3248ZM259.3 87V85.5853H254.563V81.7689H258.346L258.116 80.3542H254.563V77.0642H259.136V75.6495H253.016V87H259.3ZM266.587 78.956C266.587 80.2391 265.633 80.9135 264.136 80.9135H262.82V77.0149H264.3C265.814 77.0149 266.587 77.7222 266.587 78.956ZM265.649 82.0157C267.13 81.6044 268.133 80.5845 268.133 78.8737C268.133 76.801 266.686 75.6495 264.366 75.6495H261.273V87H262.82V82.2131H263.988L267.459 87.1151L269.021 86.7697L265.649 82.0157ZM280.13 86.7862L275.755 75.6002H274.208L269.767 87H271.33L272.613 83.5949H277.301L278.633 87.1151L280.13 86.7862ZM276.774 82.2295H273.139L274.949 77.4426L276.774 82.2295ZM288.563 77.0642L288.333 75.6495H279.68V77.0642H283.299V87H284.845V77.0642H288.563ZM299.629 81.3083C299.629 77.8045 297.622 75.4357 294.414 75.4357C291.223 75.4357 289.167 77.8209 289.167 81.3412C289.167 84.8451 291.19 87.2138 294.381 87.2138C297.589 87.2138 299.629 84.8122 299.629 81.3083ZM298.033 81.3248C298.033 84.0555 296.651 85.7992 294.398 85.7992C292.16 85.7992 290.762 84.0555 290.762 81.3248C290.762 78.5941 292.144 76.8504 294.398 76.8504C296.635 76.8504 298.033 78.5941 298.033 81.3248ZM307.214 78.956C307.214 80.2391 306.26 80.9135 304.763 80.9135H303.447V77.0149H304.927C306.441 77.0149 307.214 77.7222 307.214 78.956ZM306.276 82.0157C307.757 81.6044 308.76 80.5845 308.76 78.8737C308.76 76.801 307.312 75.6495 304.993 75.6495H301.9V87H303.447V82.2131H304.615L308.086 87.1151L309.648 86.7697L306.276 82.0157ZM317.549 83.9403C317.549 82.2295 316.793 81.4728 314.588 80.4694C312.861 79.6798 312.434 79.2685 312.434 78.3967C312.434 77.5577 313.009 76.8668 314.309 76.8668C315.214 76.8668 316.069 77.2287 316.694 77.7058L316.941 76.1595C316.283 75.7811 315.46 75.5179 314.358 75.5179C312.302 75.5179 310.904 76.6859 310.904 78.5118C310.904 80.1404 311.71 80.8477 313.848 81.8183C315.559 82.5914 316.02 83.0191 316.02 84.0555C316.02 85.1576 315.181 85.7827 313.996 85.7827C312.861 85.7827 311.792 85.3221 311.019 84.8122L310.789 86.3914C311.627 86.8355 312.73 87.1316 313.963 87.1316C316.085 87.1316 317.549 85.8979 317.549 83.9403ZM321.916 81.7196V81.0287H338.432V81.7196H321.916ZM344.399 81.0616C344.892 78.6928 346.784 77.5577 349.054 76.982L348.857 75.666C345.32 76.5378 342.836 78.6599 342.836 82.5092C342.836 85.5853 344.514 87.2138 346.833 87.2138C349.038 87.2138 350.666 85.7005 350.666 83.5949C350.666 81.5057 349.35 80.1897 347.212 80.1897C346.109 80.1897 345.188 80.5352 344.399 81.0616ZM344.267 82.4598C345.024 81.8347 345.896 81.4893 346.883 81.4893C348.478 81.4893 349.186 82.3118 349.186 83.6607C349.186 85.0754 348.231 85.9143 346.883 85.9143C345.287 85.9143 344.283 84.5654 344.267 82.4598Z" fill="white"/>
</svg>
