<svg width="146" height="89" viewBox="0 0 146 89" fill="none" xmlns="http://www.w3.org/2000/svg">
<path d="M22.1688 1.84089H0.375299V8.3349H6.97938V21.1028H15.7023V8.3349H22.1688V1.84089ZM38.6338 8.38993H32.7177V1.84089H23.9948V21.1028H32.7177V14.0309H38.6338V21.1028H47.3292V1.84089H38.6338V8.38993ZM58.9985 13.5356H68.7946V9.21544H58.9985V7.45435H69.2624V1.84089H50.2757V21.1028H69.3174V15.4893H58.9985V13.5356ZM22.1688 23.8409H0.375299V30.3349H6.97938V43.1028H15.7023V30.3349H22.1688V23.8409ZM45.7874 43.1028L39.486 23.8409H26.608L20.2516 43.1028H28.7819L29.6624 40.1034H36.1564L37.0094 43.1028H45.7874ZM32.9094 28.849L34.9182 35.8108H30.9007L32.9094 28.849ZM65.6478 23.8409H43.8543V30.3349H50.4584V43.1028H59.1813V30.3349H65.6478V23.8409ZM88.1666 23.8409H66.3731V30.3349H72.9772V43.1028H81.7001V30.3349H88.1666V23.8409ZM102.298 43.7632C110.636 43.7632 115.699 39.0853 115.699 33.3342C115.699 27.3906 110.636 23.1805 102.326 23.1805C93.9608 23.1805 88.9252 27.3906 88.9252 33.3342C88.9252 39.0578 93.9608 43.7632 102.298 43.7632ZM102.298 37.2967C99.877 37.2967 98.3085 35.7007 98.3085 33.3893C98.3085 31.1054 99.877 29.647 102.298 29.647C104.72 29.647 106.288 31.1054 106.288 33.3893C106.288 35.7007 104.72 37.2967 102.298 37.2967ZM130.326 43.7632C138.664 43.7632 143.727 39.0853 143.727 33.3342C143.727 27.3906 138.664 23.1805 130.354 23.1805C121.988 23.1805 116.953 27.3906 116.953 33.3342C116.953 39.0578 121.988 43.7632 130.326 43.7632ZM130.326 37.2967C127.905 37.2967 126.336 35.7007 126.336 33.3893C126.336 31.1054 127.905 29.647 130.326 29.647C132.748 29.647 134.316 31.1054 134.316 33.3893C134.316 35.7007 132.748 37.2967 130.326 37.2967ZM11.4096 65.7357C17.8486 65.7357 22.2788 63.0665 22.2788 58.7739C22.2788 55.1967 19.7197 53.6007 15.1244 53.0503L12.2626 52.7201C10.5841 52.5275 10.2814 52.2523 10.2814 51.7846C10.2814 51.1792 10.9418 50.8215 13.3633 50.8215C16.7754 50.8215 19.4446 51.647 21.013 52.4725V47.1067C19.5546 46.3087 16.7204 45.208 12.015 45.208C4.31023 45.208 0.898122 47.9872 0.898122 51.7295C0.898122 55.0591 3.31962 56.9578 8.24516 57.6732L10.9143 58.0859C12.3727 58.3061 12.8405 58.6088 12.8405 59.2141C12.8405 59.8746 12.07 60.1772 10.2539 60.1772C6.86931 60.1772 3.34713 59.049 1.14577 57.5906V63.094C3.51224 64.5524 7.03441 65.7357 11.4096 65.7357ZM38.9831 52.3899H33.067V45.8409H24.3441V65.1028H33.067V58.0309H38.9831V65.1028H47.6785V45.8409H38.9831V52.3899ZM63.1727 65.7632C71.5104 65.7632 76.5735 61.0853 76.5735 55.3342C76.5735 49.3906 71.5104 45.1805 63.2003 45.1805C54.8351 45.1805 49.7995 49.3906 49.7995 55.3342C49.7995 61.0578 54.8351 65.7632 63.1727 65.7632ZM63.1727 59.2967C60.7512 59.2967 59.1828 57.7007 59.1828 55.3893C59.1828 53.1054 60.7512 51.647 63.1727 51.647C65.5942 51.647 67.1627 53.1054 67.1627 55.3893C67.1627 57.7007 65.5942 59.2967 63.1727 59.2967ZM78.6526 45.8134V65.1028H87.3754V60.59H92.4111C98.7675 60.59 102.097 57.4806 102.097 53.2154C102.097 48.8127 99.2903 45.8134 93.6768 45.8134H78.6526ZM87.3754 55.8296V51.2893H90.3473C92.1634 51.2893 93.154 52.1423 93.154 53.5456C93.154 54.949 92.0808 55.8296 89.962 55.8296H87.3754ZM17.5734 78.5725L12.2351 67.8409H1.47598V87.1028H8.90557V76.2886L14.409 87.1028H24.9755V67.8409H17.5734V78.5725ZM46.8779 67.8409H27.8912V87.1028H36.6141V80.6913H46.4102V75.8758H36.6141V73.8946H46.8779V67.8409ZM69.8667 67.8409H48.0732V74.3349H54.6773V87.1028H63.4002V74.3349H69.8667V67.8409Z" fill="#C9C9C9"/>
</svg>
