<svg width="479" height="581" viewBox="0 0 479 581" fill="none" xmlns="http://www.w3.org/2000/svg">
<g filter="url(#filter0_d_264_1991)">
<rect x="4" width="471" height="573" rx="35" fill="#2A2740"/>
<path d="M4 35C4 15.67 19.67 0 39 0H440C459.33 0 475 15.67 475 35V99H4V35Z" fill="#E2757D"/>
<path d="M81 152C110.271 152 134 128.271 134 99C134 69.7289 110.271 46 81 46C51.7289 46 28 69.7289 28 99C28 128.271 51.7289 152 81 152Z" fill="#E2757D" stroke="#2A2740" stroke-width="6"/>
<rect x="31" y="168" width="417" height="378" rx="24" fill="#1C1B27"/>
<rect x="220" y="193" width="49" height="18" rx="3.76744" fill="#5C60EC"/>
<path fill-rule="evenodd" clip-rule="evenodd" d="M228.592 204.95L225.912 202.216L225 203.14L228.592 206.805L236.302 198.938L235.396 198.014L228.592 204.95Z" fill="white"/>
<path d="M246.54 204.374C246.54 203.19 245.864 202.514 244.863 202.215C245.669 201.877 246.15 201.266 246.15 200.356C246.15 198.978 245.227 198.028 243.251 198.028H241.079V207H243.225C245.292 207 246.54 206.168 246.54 204.374ZM244.954 200.395C244.954 201.279 244.317 201.799 243.134 201.799H242.275V199.069H243.225C244.447 199.069 244.954 199.576 244.954 200.395ZM245.344 204.4C245.344 205.44 244.603 205.96 243.316 205.96H242.275V202.8H243.277C244.616 202.8 245.344 203.359 245.344 204.4ZM256.07 202.501C256.07 199.732 254.483 197.859 251.948 197.859C249.426 197.859 247.8 199.745 247.8 202.527C247.8 205.297 249.4 207.169 251.922 207.169C254.457 207.169 256.07 205.271 256.07 202.501ZM254.808 202.514C254.808 204.673 253.716 206.051 251.935 206.051C250.167 206.051 249.062 204.673 249.062 202.514C249.062 200.356 250.154 198.978 251.935 198.978C253.703 198.978 254.808 200.356 254.808 202.514ZM263.652 199.147L263.47 198.028H256.631V199.147H259.492V207H260.714V199.147H263.652Z" fill="white"/>
<line x1="47" y1="227" x2="431" y2="227" stroke="#38354E" stroke-width="2"/>
<path d="M62.964 194.06H60.26L55.242 202.64L50.094 193.878L47.65 194.398L53.994 204.876V212H56.438V204.876L62.964 194.06ZM73.041 205.812C73.041 201.73 70.597 199.338 67.269 199.338C63.967 199.338 61.575 201.73 61.575 205.812C61.575 209.894 63.967 212.26 67.269 212.26C70.597 212.26 73.041 209.894 73.041 205.812ZM70.701 205.812C70.701 208.412 69.557 210.336 67.269 210.336C65.085 210.336 63.915 208.36 63.915 205.812C63.915 203.212 65.033 201.288 67.269 201.288C69.505 201.288 70.701 203.264 70.701 205.812ZM86.05 212V199.598H83.736V208.178C82.618 209.374 81.37 210.18 80.148 210.18C78.796 210.18 78.25 209.322 78.25 208.048V199.598H75.936V208.62C75.936 210.856 77.158 212.26 79.524 212.26C81.266 212.26 82.748 211.298 83.918 210.206L84.204 212H86.05ZM96.6409 201.548L96.2769 199.338C94.2489 199.442 92.8189 200.716 91.9349 202.12L91.5449 199.598H89.6989V212H92.0129V204.668C92.8449 203.03 94.5869 201.652 96.6409 201.548ZM104.54 205.734V203.472H98.1442V205.734H104.54ZM118.672 205.448C118.672 201.314 116.462 199.338 113.784 199.338C112.094 199.338 110.898 200.196 110.066 201.054V193.228L107.752 193.592V211.376C109.39 211.87 110.716 212.156 112.588 212.156C116.176 212.156 118.672 209.972 118.672 205.448ZM116.332 205.552C116.332 208.75 114.98 210.18 112.562 210.18C111.418 210.18 110.846 210.05 110.066 209.764V203.42C111.002 202.25 112.146 201.392 113.446 201.392C115.11 201.392 116.332 202.848 116.332 205.552ZM132.379 205.812C132.379 201.73 129.935 199.338 126.607 199.338C123.305 199.338 120.913 201.73 120.913 205.812C120.913 209.894 123.305 212.26 126.607 212.26C129.935 212.26 132.379 209.894 132.379 205.812ZM130.039 205.812C130.039 208.412 128.895 210.336 126.607 210.336C124.423 210.336 123.253 208.36 123.253 205.812C123.253 203.212 124.371 201.288 126.607 201.288C128.843 201.288 130.039 203.264 130.039 205.812ZM141.28 212.052L140.968 210.076C140.682 210.128 140.318 210.154 139.902 210.154C138.602 210.154 138.186 209.53 138.186 208.516V201.548H141.176L140.864 199.598H138.186V195.126L135.924 195.464V199.598H134.052V201.548H135.924V208.932C135.924 211.428 137.354 212.208 139.538 212.208C140.344 212.208 140.89 212.13 141.28 212.052Z" fill="white"/>
<path d="M147.96 207.528H152.354L151.652 212.052H153.472L154.174 207.528H157.866L157.528 205.552H154.512L155.24 200.872H158.36V198.896H155.552L156.228 194.632L154.46 194.242L153.732 198.896H149.338L150.066 194.372H148.22L147.492 198.896H143.852L144.19 200.872H147.18L146.452 205.552H143.332V207.528H146.14L145.464 211.792L147.232 212.182L147.96 207.528ZM149.026 200.872H153.42L152.692 205.552H148.272L149.026 200.872ZM172.091 206.488C172.091 203.316 169.881 201.184 166.293 201.184C165.045 201.184 164.161 201.418 163.485 201.626L163.875 196.504H171.493L171.181 194.424H161.925L161.301 203.42L163.043 203.81C163.849 203.472 164.733 203.238 166.033 203.238C168.451 203.238 169.751 204.564 169.751 206.618C169.751 209.166 167.905 210.284 165.539 210.284C163.771 210.284 162.185 209.66 160.937 208.776L160.573 210.986C161.821 211.766 163.407 212.338 165.461 212.338C169.179 212.338 172.091 210.31 172.091 206.488ZM185.802 206.488C185.802 203.316 183.592 201.184 180.004 201.184C178.756 201.184 177.872 201.418 177.196 201.626L177.586 196.504H185.204L184.892 194.424H175.636L175.012 203.42L176.754 203.81C177.56 203.472 178.444 203.238 179.744 203.238C182.162 203.238 183.462 204.564 183.462 206.618C183.462 209.166 181.616 210.284 179.25 210.284C177.482 210.284 175.896 209.66 174.648 208.776L174.284 210.986C175.532 211.766 177.118 212.338 179.172 212.338C182.89 212.338 185.802 210.31 185.802 206.488ZM199.513 206.488C199.513 203.316 197.303 201.184 193.715 201.184C192.467 201.184 191.583 201.418 190.907 201.626L191.297 196.504H198.915L198.603 194.424H189.347L188.723 203.42L190.465 203.81C191.271 203.472 192.155 203.238 193.455 203.238C195.873 203.238 197.173 204.564 197.173 206.618C197.173 209.166 195.327 210.284 192.961 210.284C191.193 210.284 189.607 209.66 188.359 208.776L187.995 210.986C189.243 211.766 190.829 212.338 192.883 212.338C196.601 212.338 199.513 210.31 199.513 206.488ZM213.224 206.488C213.224 203.316 211.014 201.184 207.426 201.184C206.178 201.184 205.294 201.418 204.618 201.626L205.008 196.504H212.626L212.314 194.424H203.058L202.434 203.42L204.176 203.81C204.982 203.472 205.866 203.238 207.166 203.238C209.584 203.238 210.884 204.564 210.884 206.618C210.884 209.166 209.038 210.284 206.672 210.284C204.904 210.284 203.318 209.66 202.07 208.776L201.706 210.986C202.954 211.766 204.54 212.338 206.594 212.338C210.312 212.338 213.224 210.31 213.224 206.488Z" fill="#B2B7BE"/>
<path d="M59.0978 255.631L54.8837 243.832H51.5828L47.2283 256H50.1605L51.0033 253.489H55.1647L56.0777 256.123L59.0978 255.631ZM54.4448 251.136H51.7057L53.0752 246.922L54.4448 251.136ZM69.1262 252.506C69.1262 250.855 68.2483 250.013 66.9314 249.591C67.9147 249.152 68.6697 248.345 68.6697 247.028C68.6697 245.061 67.3177 243.885 64.561 243.885H60.4348V256H64.4733C67.3704 256 69.1262 254.841 69.1262 252.506ZM66.0008 247.361C66.0008 248.239 65.4039 248.783 64.2801 248.783H63.2793V246.044H64.3503C65.5092 246.044 66.0008 246.554 66.0008 247.361ZM66.2993 252.313C66.2993 253.331 65.597 253.84 64.3855 253.84H63.2793V250.715H64.3503C65.6146 250.715 66.2993 251.259 66.2993 252.313ZM81.8893 249.925C81.8893 246.185 79.6243 243.656 76.1126 243.656C72.6009 243.656 70.3183 246.202 70.3183 249.96C70.3183 253.7 72.6009 256.228 76.0775 256.228C79.6067 256.228 81.8893 253.665 81.8893 249.925ZM78.8693 249.942C78.8693 252.348 77.8509 253.875 76.095 253.875C74.3567 253.875 73.3208 252.348 73.3208 249.942C73.3208 247.537 74.3392 246.009 76.095 246.009C77.8509 246.009 78.8693 247.537 78.8693 249.942ZM93.6772 251.189V243.885H90.6571V251.224C90.6571 252.769 89.9724 253.665 88.6028 253.665C87.2508 253.665 86.5485 252.752 86.5485 251.189V243.885H83.5284V251.207C83.5284 254.595 85.6003 256.193 88.5677 256.193C91.4999 256.193 93.6772 254.56 93.6772 251.189ZM105.099 246.431L104.677 243.885H95.0902V246.431H98.4439V256H101.464V246.431H105.099ZM123.91 256L123.032 243.885H119.257L116.887 252.225L114.534 243.885H110.653L109.775 256H112.392L112.918 247.941L115.219 256.018H118.028L120.328 247.941L120.855 256H123.91ZM133.473 256V253.594H128.714V250.978H132.612L132.226 248.503H128.714V246.29H133.315V243.885H125.765V256H133.473Z" fill="white"/>
<path d="M62.8896 359L62.0116 346.885H58.2366L55.8662 355.225L53.5134 346.885H49.6329L48.755 359H51.3712L51.898 350.941L54.1981 359.018H57.0075L59.3076 350.941L59.8344 359H62.8896ZM72.4523 359V356.594H67.694V353.978H71.592L71.2057 351.503H67.694V349.29H72.2943V346.885H64.7442V359H72.4523ZM87.9241 359L87.0461 346.885H83.2711L80.9007 355.225L78.5478 346.885H74.6674L73.7895 359H76.4057L76.9325 350.941L79.2326 359.018H82.042L84.3421 350.941L84.8689 359H87.9241ZM98.4701 355.506C98.4701 353.855 97.5922 353.013 96.2753 352.591C97.2586 352.152 98.0136 351.345 98.0136 350.028C98.0136 348.061 96.6616 346.885 93.9049 346.885H89.7787V359H93.8171C96.7143 359 98.4701 357.841 98.4701 355.506ZM95.3447 350.361C95.3447 351.239 94.7477 351.783 93.624 351.783H92.6231V349.044H93.6942C94.8531 349.044 95.3447 349.554 95.3447 350.361ZM95.6432 355.313C95.6432 356.331 94.9408 356.84 93.7293 356.84H92.6231V353.715H93.6942C94.9584 353.715 95.6432 354.259 95.6432 355.313ZM107.809 359V356.594H103.051V353.978H106.949L106.563 351.503H103.051V349.29H107.651V346.885H100.101V359H107.809ZM115.432 350.888C115.432 352.047 114.677 352.679 113.396 352.679H112.465V349.15H113.431C114.73 349.15 115.432 349.764 115.432 350.888ZM116.135 354.154C117.574 353.522 118.382 352.38 118.382 350.712C118.382 348.219 116.661 346.885 113.729 346.885H109.498V359H112.483V354.839H113.308L115.959 359.123L119.032 358.614L116.135 354.154ZM132.046 355.348C132.046 353.416 130.993 352.503 128.359 351.538C126.849 350.958 126.516 350.66 126.516 350.045C126.516 349.483 126.955 349.097 127.868 349.097C128.798 349.097 129.939 349.448 131.028 350.08L131.485 347.552C130.431 347.043 129.413 346.744 127.832 346.744C125.515 346.744 123.689 347.991 123.689 350.326C123.689 352.328 124.742 353.118 127.165 354.049C128.868 354.698 129.22 355.014 129.22 355.699C129.22 356.419 128.623 356.788 127.762 356.788C126.551 356.788 125.164 356.331 123.917 355.664L123.478 358.227C124.707 358.789 126.077 359.14 127.71 359.14C130.115 359.14 132.046 357.982 132.046 355.348ZM136.747 359V346.885H133.745V359H136.747ZM149.191 359V346.885H146.399V353.662L141.939 346.885H139.025V359H141.816V351.748L146.592 359H149.191ZM160.289 358.315L159.903 355.857C158.99 356.366 158.13 356.7 157.146 356.7C155.32 356.7 153.968 355.365 153.968 352.942C153.968 350.572 155.162 349.185 156.988 349.185C158.042 349.185 158.955 349.606 159.692 350.168L160.114 347.464C159.236 346.972 158.13 346.674 156.76 346.674C153.319 346.674 150.966 349.202 150.966 352.96C150.966 356.753 153.178 359.211 156.848 359.211C158.182 359.211 159.306 358.86 160.289 358.315ZM169.744 359V356.594H164.986V353.978H168.884L168.497 351.503H164.986V349.29H169.586V346.885H162.036V359H169.744Z" fill="white"/>
<path d="M54.0409 411.888C54.0409 413.047 53.2859 413.679 52.0042 413.679H51.0736V410.15H52.0393C53.3386 410.15 54.0409 410.764 54.0409 411.888ZM54.7433 415.154C56.1831 414.522 56.9908 413.38 56.9908 411.712C56.9908 409.219 55.27 407.885 52.3378 407.885H48.1062V420H51.0911V415.839H51.9164L54.5677 420.123L57.6404 419.614L54.7433 415.154ZM69.8865 413.925C69.8865 410.185 67.6214 407.656 64.1097 407.656C60.5981 407.656 58.3155 410.202 58.3155 413.96C58.3155 417.7 60.5981 420.228 64.0746 420.228C67.6039 420.228 69.8865 417.665 69.8865 413.925ZM66.8664 413.942C66.8664 416.348 65.848 417.875 64.0922 417.875C62.3539 417.875 61.3179 416.348 61.3179 413.942C61.3179 411.537 62.3363 410.009 64.0922 410.009C65.848 410.009 66.8664 411.537 66.8664 413.942ZM78.7948 420L78.3909 417.401H74.6685V407.885H71.666V420H78.7948ZM87.8962 420V417.594H83.1379V414.978H87.0359L86.6496 412.503H83.1379V410.29H87.7382V407.885H80.1881V420H87.8962ZM97.6615 416.348C97.6615 414.416 96.6079 413.503 93.9742 412.538C92.4642 411.958 92.1305 411.66 92.1305 411.045C92.1305 410.483 92.5695 410.097 93.4825 410.097C94.4131 410.097 95.5544 410.448 96.6431 411.08L97.0996 408.552C96.0461 408.043 95.0277 407.744 93.4474 407.744C91.1297 407.744 89.3036 408.991 89.3036 411.326C89.3036 413.328 90.3571 414.118 92.7802 415.049C94.4834 415.698 94.8345 416.014 94.8345 416.699C94.8345 417.419 94.2376 417.788 93.3772 417.788C92.1657 417.788 90.7785 417.331 89.5319 416.664L89.0929 419.227C90.322 419.789 91.6916 420.14 93.3245 420.14C95.73 420.14 97.6615 418.982 97.6615 416.348Z" fill="white"/>
<rect x="47" y="268" width="384" height="61" rx="6" fill="#2A2740"/>
<rect x="75" y="378" width="76" height="11" rx="5.5" fill="#2A2740"/>
<rect x="207" y="378" width="66" height="11" rx="5.5" fill="#2A2740"/>
<rect x="48" y="432" width="72" height="19" rx="5" fill="#2A2740"/>
<rect x="53" y="436" width="11" height="11" rx="5.5" fill="#E2757D"/>
<rect x="124" y="432" width="59" height="19" rx="5" fill="#2A2740"/>
<rect x="129" y="436" width="11" height="11" rx="5.5" fill="#FF5261"/>
<rect x="187" y="432" width="19" height="19" rx="5" fill="#2A2740"/>
<path d="M200 441.111H196.889V438H196.111V441.111H193V441.889H196.111V445H196.889V441.889H200V441.111Z" fill="#B9BBBE"/>
<rect x="189" y="376" width="14" height="14" rx="7" fill="#E2757D"/>
<circle cx="170.5" cy="383.5" r="2.5" fill="#38354E"/>
<path d="M67.2378 378.137C66.0905 377.611 64.8602 377.223 63.5739 377.001C63.5505 376.997 63.5271 377.007 63.515 377.029C63.3568 377.31 63.1816 377.677 63.0588 377.966C61.6753 377.759 60.2989 377.759 58.9437 377.966C58.821 377.671 58.6394 377.31 58.4804 377.029C58.4684 377.008 58.445 376.997 58.4215 377.001C57.1359 377.222 55.9057 377.61 54.7577 378.137C54.7478 378.142 54.7393 378.149 54.7336 378.158C52.4 381.644 51.7608 385.045 52.0744 388.403C52.0758 388.42 52.085 388.435 52.0978 388.445C53.6374 389.576 55.1288 390.262 56.5925 390.717C56.6159 390.725 56.6407 390.716 56.6556 390.697C57.0018 390.224 57.3105 389.725 57.5751 389.201C57.5907 389.17 57.5758 389.134 57.5439 389.122C57.0543 388.936 56.5882 388.71 56.1398 388.453C56.1043 388.432 56.1015 388.381 56.1341 388.357C56.2285 388.286 56.3229 388.213 56.413 388.138C56.4293 388.125 56.452 388.122 56.4711 388.13C59.417 389.475 62.6062 389.475 65.5172 388.13C65.5364 388.121 65.5591 388.124 65.5761 388.138C65.6662 388.212 65.7606 388.286 65.8557 388.357C65.8883 388.381 65.8862 388.432 65.8507 388.453C65.4023 388.715 64.9361 388.936 64.4459 389.121C64.414 389.133 64.3998 389.17 64.4154 389.201C64.6857 389.725 64.9943 390.223 65.3342 390.696C65.3484 390.716 65.3739 390.725 65.3973 390.717C66.8681 390.262 68.3595 389.576 69.8991 388.445C69.9126 388.435 69.9211 388.42 69.9225 388.404C70.2978 384.521 69.2939 381.149 67.2612 378.159C67.2562 378.149 67.2477 378.142 67.2378 378.137ZM58.015 386.358C57.1281 386.358 56.3974 385.544 56.3974 384.544C56.3974 383.544 57.1139 382.73 58.015 382.73C58.9232 382.73 59.6468 383.551 59.6327 384.544C59.6327 385.544 58.9161 386.358 58.015 386.358ZM63.9961 386.358C63.1092 386.358 62.3784 385.544 62.3784 384.544C62.3784 383.544 63.095 382.73 63.9961 382.73C64.9042 382.73 65.6279 383.551 65.6137 384.544C65.6137 385.544 64.9042 386.358 63.9961 386.358Z" fill="white"/>
</g>
<defs>
<filter id="filter0_d_264_1991" x="0" y="0" width="479" height="581" filterUnits="userSpaceOnUse" color-interpolation-filters="sRGB">
<feFlood flood-opacity="0" result="BackgroundImageFix"/>
<feColorMatrix in="SourceAlpha" type="matrix" values="0 0 0 0 0 0 0 0 0 0 0 0 0 0 0 0 0 0 127 0" result="hardAlpha"/>
<feOffset dy="4"/>
<feGaussianBlur stdDeviation="2"/>
<feComposite in2="hardAlpha" operator="out"/>
<feColorMatrix type="matrix" values="0 0 0 0 0 0 0 0 0 0 0 0 0 0 0 0 0 0 0.25 0"/>
<feBlend mode="normal" in2="BackgroundImageFix" result="effect1_dropShadow_264_1991"/>
<feBlend mode="normal" in="SourceGraphic" in2="effect1_dropShadow_264_1991" result="shape"/>
</filter>
</defs>
</svg>
