<svg width="471" height="579" viewBox="0 0 471 579" fill="none" xmlns="http://www.w3.org/2000/svg">
<rect width="471" height="579" rx="35" fill="#1C1B27"/>
<path d="M23 105.987C23 104.07 24.5542 102.516 26.4715 102.516H287.529C289.446 102.516 291 104.07 291 105.987V145.562C291 147.48 289.446 149.034 287.529 149.034H26.4715C24.5542 149.034 23 147.48 23 145.562V105.987Z" fill="#E2757D"/>
<path d="M23 264.471C23 262.554 24.5542 261 26.4715 261H287.529C289.446 261 291 262.554 291 264.471V304.047C291 305.964 289.446 307.518 287.529 307.518H26.4715C24.5542 307.518 23 305.964 23 304.047V264.471Z" fill="#292841"/>
<path d="M23 211.614C23 209.697 24.5542 208.142 26.4715 208.142H287.529C289.446 208.142 291 209.697 291 211.614V251.189C291 253.106 289.446 254.66 287.529 254.66H26.4715C24.5542 254.66 23 253.106 23 251.189V211.614Z" fill="#292841"/>
<path d="M23 370.098C23 368.181 24.5542 366.627 26.4715 366.627H287.529C289.446 366.627 291 368.181 291 370.098V409.673C291 411.591 289.446 413.145 287.529 413.145H26.4715C24.5542 413.145 23 411.591 23 409.673V370.098Z" fill="#292841"/>
<path d="M23 158.8C23 156.883 24.5542 155.329 26.4715 155.329H287.529C289.446 155.329 291 156.883 291 158.8V198.376C291 200.293 289.446 201.847 287.529 201.847H26.4715C24.5542 201.847 23 200.293 23 198.376V158.8Z" fill="#292841"/>
<path d="M23 317.285C23 315.368 24.5542 313.813 26.4715 313.813H287.529C289.446 313.813 291 315.368 291 317.285V356.86C291 358.777 289.446 360.331 287.529 360.331H26.4715C24.5542 360.331 23 358.777 23 356.86V317.285Z" fill="#292841"/>
<path d="M23 422.471C23 420.554 24.5542 419 26.4715 419H287.529C289.446 419 291 420.554 291 422.471V462.047C291 463.964 289.446 465.518 287.529 465.518H26.4715C24.5542 465.518 23 463.964 23 462.047V422.471Z" fill="#292841"/>
<rect x="31" y="76" width="84" height="12" rx="6" fill="#292841"/>
<rect x="31" y="507" width="84" height="12" rx="6" fill="#292841"/>
<line x1="304" y1="5" x2="304" y2="579" stroke="#292841" stroke-width="2"/>
<line x1="471" y1="275" x2="356" y2="275" stroke="#292841" stroke-width="2"/>
<line x1="284" y1="488" x2="33" y2="488" stroke="#292841" stroke-width="2"/>
<line x1="471" y1="422" x2="356" y2="422" stroke="#292841" stroke-width="2"/>
<mask id="mask0_285_1849" style="mask-type:alpha" maskUnits="userSpaceOnUse" x="0" y="0" width="471" height="579">
<rect width="471" height="579" rx="35" fill="#1C1B27"/>
</mask>
<g mask="url(#mask0_285_1849)">
<g filter="url(#filter0_d_285_1849)">
<circle cx="429" cy="154" r="50" fill="#292840"/>
</g>
</g>
<rect x="394" y="219" width="71" height="10" rx="5" fill="#292841"/>
<path d="M356 76C356 68.8203 361.82 63 369 63H471V89H369C361.82 89 356 83.1797 356 76V76Z" fill="#292840"/>
<path d="M356 329C356 326.239 358.239 324 361 324H471V350H361C358.239 350 356 347.761 356 345V329Z" fill="#292840"/>
<path d="M356 466C356 463.239 358.239 461 361 461H471V487H361C358.239 487 356 484.761 356 482V466Z" fill="#292840"/>
<path d="M356 311C356 307.686 358.686 305 362 305H471V317H362C358.686 317 356 314.314 356 311V311Z" fill="#292840"/>
<path d="M356 448C356 444.686 358.686 442 362 442H471V454H362C358.686 454 356 451.314 356 448V448Z" fill="#292840"/>
<path d="M356 363C356 359.686 358.686 357 362 357H471V369H362C358.686 369 356 366.314 356 363V363Z" fill="#292840"/>
<path d="M356 500C356 496.686 358.686 494 362 494H471V506H362C358.686 506 356 503.314 356 500V500Z" fill="#292840"/>
<path d="M356 377C356 373.686 358.686 371 362 371H471V383H362C358.686 383 356 380.314 356 377V377Z" fill="#292840"/>
<path d="M51.0001 125.489C51.0001 120.865 48.3518 117.739 44.1187 117.739C39.9074 117.739 37.1939 120.887 37.1939 125.533C37.1939 130.156 39.864 133.282 44.0753 133.282C48.3083 133.282 51.0001 130.113 51.0001 125.489ZM48.8945 125.511C48.8945 129.114 47.071 131.415 44.097 131.415C41.1448 131.415 39.2996 129.114 39.2996 125.511C39.2996 121.907 41.123 119.606 44.097 119.606C47.0493 119.606 48.8945 121.907 48.8945 125.511ZM61.9429 122.645H59.9675L57.3625 130.677L54.6708 122.493L52.7388 122.797L56.4074 133.043H58.2526L61.9429 122.645ZM72.016 127.616C72.016 124.751 70.6267 122.428 67.6093 122.428C65.0044 122.428 63.0507 124.469 63.0507 127.79C63.0507 131.589 65.1563 133.217 67.8481 133.217C69.563 133.217 70.8872 132.696 71.9943 131.828L71.7121 130.091C70.5833 130.981 69.4979 131.567 68.0001 131.567C66.1983 131.567 65.0478 130.438 64.9827 128.029H72.016C72.016 127.899 72.016 127.725 72.016 127.616ZM70.0623 126.574H65.0695C65.3734 124.794 66.3937 123.948 67.5876 123.948C69.0854 123.948 69.8235 124.903 70.0623 126.574ZM80.2655 124.273L79.9616 122.428C78.2684 122.515 77.0744 123.579 76.3364 124.751L76.0108 122.645H74.4695V133H76.4015V126.878C77.0961 125.511 78.5506 124.36 80.2655 124.273ZM90.4768 122.645H88.5014L85.8965 130.677L83.2047 122.493L81.2727 122.797L84.9413 133.043H86.7865L90.4768 122.645ZM94.8543 119.346C94.8543 118.673 94.3116 118.108 93.6387 118.108C92.9657 118.108 92.4013 118.673 92.4013 119.346C92.4013 120.019 92.9657 120.561 93.6387 120.561C94.3116 120.561 94.8543 120.019 94.8543 119.346ZM94.5938 133V122.645H92.6618V133H94.5938ZM106.168 127.616C106.168 124.751 104.778 122.428 101.761 122.428C99.156 122.428 97.2023 124.469 97.2023 127.79C97.2023 131.589 99.308 133.217 102 133.217C103.715 133.217 105.039 132.696 106.146 131.828L105.864 130.091C104.735 130.981 103.65 131.567 102.152 131.567C100.35 131.567 99.1995 130.438 99.1343 128.029H106.168C106.168 127.899 106.168 127.725 106.168 127.616ZM104.214 126.574H99.2212C99.5251 124.794 100.545 123.948 101.739 123.948C103.237 123.948 103.975 124.903 104.214 126.574ZM121.891 122.645H120.003L117.788 130.156L115.487 122.645H113.859L111.558 130.156L109.279 122.493L107.434 122.797L110.777 133H112.275L114.641 125.163L117.029 133H118.548L121.891 122.645Z" fill="white"/>
<path d="M46.0941 239V237.133H39.8423V232.097H44.8351L44.5312 230.23H39.8423V225.888H45.8771V224.022H37.8017V239H46.0941ZM63.1121 239V231.467C63.1121 229.601 62.1569 228.428 60.1815 228.428C58.7271 228.428 57.468 229.253 56.5346 230.143C56.1438 229.08 55.319 228.428 53.7994 228.428C52.345 228.428 51.1728 229.253 50.1959 230.143L49.9571 228.645H48.4159V239H50.3479V231.836C51.2813 230.838 52.2581 230.165 53.2784 230.165C54.4072 230.165 54.798 230.881 54.798 231.945V239H56.73V231.836C57.6634 230.838 58.6402 230.165 59.6605 230.165C60.7893 230.165 61.1801 230.881 61.1801 231.945V239H63.1121ZM75.1041 233.834C75.1041 230.425 73.0636 228.428 70.285 228.428C67.5281 228.428 65.531 230.425 65.531 233.834C65.531 237.242 67.5281 239.217 70.285 239.217C73.0636 239.217 75.1041 237.242 75.1041 233.834ZM73.1504 233.834C73.1504 236.004 72.1953 237.611 70.285 237.611C68.4615 237.611 67.4847 235.961 67.4847 233.834C67.4847 231.663 68.4181 230.056 70.285 230.056C72.1518 230.056 73.1504 231.706 73.1504 233.834ZM79.909 225.346C79.909 224.673 79.3663 224.108 78.6934 224.108C78.0204 224.108 77.456 224.673 77.456 225.346C77.456 226.019 78.0204 226.561 78.6934 226.561C79.3663 226.561 79.909 226.019 79.909 225.346ZM79.6485 240.302V228.645H77.7165V240.129C77.7165 240.91 77.3041 241.258 76.6311 241.258C76.3272 241.258 75.9582 241.236 75.7194 241.171L76.0016 242.886C76.1535 242.929 76.566 242.951 76.8916 242.951C78.5414 242.951 79.6485 242.169 79.6485 240.302ZM85.1876 225.346C85.1876 224.673 84.6449 224.108 83.9719 224.108C83.299 224.108 82.7346 224.673 82.7346 225.346C82.7346 226.019 83.299 226.561 83.9719 226.561C84.6449 226.561 85.1876 226.019 85.1876 225.346ZM84.9271 239V228.645H82.9951V239H84.9271Z" fill="white"/>
<path d="M44.8134 175.385C44.8134 177.078 43.5543 177.968 41.5789 177.968H39.8423V172.823H41.796C43.7931 172.823 44.8134 173.757 44.8134 175.385ZM43.576 179.423C45.5297 178.88 46.8539 177.534 46.8539 175.276C46.8539 172.541 44.9436 171.022 41.8828 171.022H37.8017V186H39.8423V179.683H41.3835L45.9639 186.152L48.0261 185.696L43.576 179.423ZM58.5053 180.834C58.5053 177.425 56.4647 175.428 53.6861 175.428C50.9292 175.428 48.9321 177.425 48.9321 180.834C48.9321 184.242 50.9292 186.217 53.6861 186.217C56.4647 186.217 58.5053 184.242 58.5053 180.834ZM56.5515 180.834C56.5515 183.004 55.5964 184.611 53.6861 184.611C51.8627 184.611 50.8858 182.961 50.8858 180.834C50.8858 178.663 51.8192 177.056 53.6861 177.056C55.553 177.056 56.5515 178.706 56.5515 180.834ZM63.0497 186V170.327L61.1177 170.631V186H63.0497ZM74.6235 180.616C74.6235 177.751 73.2342 175.428 70.2168 175.428C67.6119 175.428 65.6582 177.469 65.6582 180.79C65.6582 184.589 67.7638 186.217 70.4556 186.217C72.1705 186.217 73.4947 185.696 74.6018 184.828L74.3196 183.091C73.1908 183.981 72.1054 184.567 70.6075 184.567C68.8058 184.567 67.6553 183.438 67.5901 181.029H74.6235C74.6235 180.899 74.6235 180.725 74.6235 180.616ZM72.6698 179.574H67.677C67.9809 177.794 69.0012 176.948 70.1951 176.948C71.6929 176.948 72.431 177.903 72.6698 179.574ZM84.3057 183.113C84.3057 181.137 83.1552 180.399 80.5936 179.748C78.9656 179.336 78.4446 178.945 78.4446 178.25C78.4446 177.512 79.0524 177.056 80.2246 177.056C81.31 177.056 82.4605 177.425 83.3722 177.946L83.6762 176.123C82.6993 175.689 81.5488 175.428 80.268 175.428C78.0104 175.428 76.6211 176.644 76.6211 178.294C76.6211 180.139 77.598 180.877 80.0292 181.485C81.8961 181.941 82.4822 182.288 82.4822 183.243C82.4822 184.111 81.7007 184.611 80.3766 184.611C78.9656 184.611 77.7065 184.09 76.7297 183.417L76.4475 185.24C77.3375 185.74 78.857 186.217 80.2246 186.217C82.8947 186.217 84.3057 185.001 84.3057 183.113Z" fill="white"/>
<path d="M46.0724 287.962C46.0724 285.705 45.0739 284.706 42.165 283.382C39.8857 282.34 39.3213 281.797 39.3213 280.647C39.3213 279.54 40.0811 278.628 41.796 278.628C42.9899 278.628 44.1187 279.106 44.9436 279.735L45.2692 277.695C44.4009 277.195 43.3155 276.848 41.8611 276.848C39.1476 276.848 37.3025 278.389 37.3025 280.799C37.3025 282.948 38.3662 283.881 41.1882 285.162C43.4458 286.182 44.0536 286.747 44.0536 288.114C44.0536 289.569 42.9465 290.394 41.3835 290.394C39.8857 290.394 38.4747 289.786 37.4544 289.113L37.1505 291.197C38.2576 291.783 39.712 292.174 41.3401 292.174C44.1404 292.174 46.0724 290.546 46.0724 287.962ZM53.5989 292.043L53.3384 290.394C53.0997 290.437 52.7958 290.459 52.4484 290.459C51.363 290.459 51.0157 289.938 51.0157 289.091V283.273H53.5121L53.2516 281.645H51.0157V277.912L49.1271 278.194V281.645H47.5642V283.273H49.1271V289.438C49.1271 291.522 50.3211 292.174 52.1445 292.174C52.8175 292.174 53.2733 292.109 53.5989 292.043ZM58.286 278.346C58.286 277.673 57.7433 277.108 57.0703 277.108C56.3974 277.108 55.833 277.673 55.833 278.346C55.833 279.019 56.3974 279.561 57.0703 279.561C57.7433 279.561 58.286 279.019 58.286 278.346ZM58.0255 292V281.645H56.0935V292H58.0255ZM68.9915 291.11L68.7093 289.373C67.6456 290.285 66.7339 290.524 65.6919 290.524C63.8684 290.524 62.5877 289.33 62.5877 286.812C62.5877 284.402 63.7816 283.121 65.4748 283.121C66.6688 283.121 67.6456 283.491 68.6007 284.272L68.883 282.383C68.1015 281.819 67.0161 281.428 65.4965 281.428C62.8048 281.428 60.634 283.295 60.634 286.834C60.634 290.285 62.6745 292.217 65.4531 292.217C66.8424 292.217 67.9278 291.913 68.9915 291.11ZM80.0353 291.826L75.303 286.226L79.6663 281.645H77.3436L73.3276 285.987V276.327L71.3956 276.631V292H73.3276V286.573L77.9297 292.152L80.0353 291.826ZM89.6324 286.616C89.6324 283.751 88.2431 281.428 85.2257 281.428C82.6208 281.428 80.6671 283.469 80.6671 286.79C80.6671 290.589 82.7727 292.217 85.4645 292.217C87.1794 292.217 88.5036 291.696 89.6107 290.828L89.3285 289.091C88.1997 289.981 87.1143 290.567 85.6165 290.567C83.8147 290.567 82.6642 289.438 82.5991 287.029H89.6324C89.6324 286.899 89.6324 286.725 89.6324 286.616ZM87.6787 285.574H82.6859C82.9898 283.794 84.0101 282.948 85.204 282.948C86.7019 282.948 87.4399 283.903 87.6787 285.574ZM97.8819 283.273L97.578 281.428C95.8848 281.515 94.6908 282.579 93.9528 283.751L93.6272 281.645H92.0859V292H94.0179V285.878C94.7126 284.511 96.167 283.36 97.8819 283.273ZM106.904 289.113C106.904 287.137 105.753 286.399 103.192 285.748C101.564 285.336 101.043 284.945 101.043 284.25C101.043 283.512 101.651 283.056 102.823 283.056C103.908 283.056 105.059 283.425 105.97 283.946L106.274 282.123C105.297 281.689 104.147 281.428 102.866 281.428C100.609 281.428 99.2193 282.644 99.2193 284.294C99.2193 286.139 100.196 286.877 102.627 287.485C104.494 287.941 105.08 288.288 105.08 289.243C105.08 290.111 104.299 290.611 102.975 290.611C101.564 290.611 100.305 290.09 99.3278 289.417L99.0456 291.24C99.9357 291.74 101.455 292.217 102.823 292.217C105.493 292.217 106.904 291.001 106.904 289.113Z" fill="white"/>
<path d="M57.3171 329.022H55.2331L51.9118 340.787L48.0913 329.022H46.0507L42.2301 340.787L38.8437 328.87L36.8466 329.304L41.275 344H42.9682L47.0276 331.865L51.0869 344H52.8019L57.3171 329.022ZM61.5506 330.346C61.5506 329.673 61.0079 329.108 60.335 329.108C59.662 329.108 59.0976 329.673 59.0976 330.346C59.0976 331.019 59.662 331.561 60.335 331.561C61.0079 331.561 61.5506 331.019 61.5506 330.346ZM61.2901 344V333.645H59.3581V344H61.2901ZM73.1245 344V328.327L71.1925 328.631V333.971C70.5412 333.71 69.6078 333.515 68.5875 333.515C66.0694 333.515 63.8986 335.339 63.8986 339.116C63.8986 342.589 65.7438 344.217 67.9797 344.217C69.4993 344.217 70.5629 343.436 71.3444 342.502L71.5832 344H73.1245ZM71.1925 340.679C70.3676 341.786 69.4558 342.502 68.2619 342.502C66.8726 342.502 65.8523 341.308 65.8523 339.029C65.8523 336.467 67.0246 335.143 68.6526 335.143C69.7597 335.143 70.3893 335.317 71.1925 335.729V340.679ZM78.6184 343.197C79.0309 343.284 79.3348 343.349 79.8992 343.457L81.1365 343.674C82.6126 343.935 83.0902 344.369 83.0902 344.999C83.0902 345.867 81.9614 346.562 79.9426 346.562C77.9238 346.562 76.8601 345.954 76.8601 345.129C76.8601 344.412 77.4028 343.805 78.6184 343.197ZM81.8312 337.01C81.8312 338.247 81.0063 339.224 79.6821 339.224C78.4013 339.224 77.5764 338.291 77.5764 337.097C77.5764 335.838 78.3796 334.839 79.6821 334.839C80.9628 334.839 81.8312 335.773 81.8312 337.01ZM82.3521 334.297C81.6358 333.732 80.7241 333.428 79.6821 333.428C77.5764 333.428 75.7096 334.796 75.7096 337.032C75.7096 338.443 76.491 339.55 77.6416 340.114C76.9469 340.527 76.5562 341.026 76.5562 341.525C76.5562 341.916 76.7515 342.285 77.2074 342.611C75.753 343.392 75.0149 344.217 75.0149 345.281C75.0149 347.104 77.164 347.951 79.8557 347.951C82.5475 347.951 84.9137 346.931 84.9137 344.76C84.9137 343.153 83.5461 342.459 81.3536 342.068L80.6155 341.938C78.7921 341.612 78.423 341.525 78.423 341.156C78.423 340.961 78.6401 340.722 78.944 340.527C79.2045 340.57 79.465 340.592 79.7255 340.592C81.8312 340.592 83.698 339.246 83.698 337.032C83.698 336.446 83.5678 335.903 83.2856 335.425L85.261 335.23L84.9788 333.493L82.3521 334.297ZM95.3138 338.616C95.3138 335.751 93.9245 333.428 90.9071 333.428C88.3021 333.428 86.3484 335.469 86.3484 338.79C86.3484 342.589 88.4541 344.217 91.1459 344.217C92.8608 344.217 94.185 343.696 95.2921 342.828L95.0099 341.091C93.881 341.981 92.7957 342.567 91.2978 342.567C89.4961 342.567 88.3455 341.438 88.2804 339.029H95.3138C95.3138 338.899 95.3138 338.725 95.3138 338.616ZM93.3601 337.574H88.3673C88.6712 335.794 89.6914 334.948 90.8854 334.948C92.3832 334.948 93.1213 335.903 93.3601 337.574ZM102.738 344.043L102.478 342.394C102.239 342.437 101.935 342.459 101.588 342.459C100.502 342.459 100.155 341.938 100.155 341.091V335.273H102.652L102.391 333.645H100.155V329.912L98.2665 330.194V333.645H96.7036V335.273H98.2665V341.438C98.2665 343.522 99.4605 344.174 101.284 344.174C101.957 344.174 102.413 344.109 102.738 344.043Z" fill="white"/>
<path d="M46.0724 392.962C46.0724 390.705 45.0739 389.706 42.165 388.382C39.8857 387.34 39.3213 386.797 39.3213 385.647C39.3213 384.54 40.0811 383.628 41.796 383.628C42.9899 383.628 44.1187 384.106 44.9436 384.735L45.2692 382.695C44.4009 382.195 43.3155 381.848 41.8611 381.848C39.1476 381.848 37.3025 383.389 37.3025 385.799C37.3025 387.948 38.3662 388.881 41.1882 390.162C43.4458 391.182 44.0536 391.747 44.0536 393.114C44.0536 394.569 42.9465 395.394 41.3835 395.394C39.8857 395.394 38.4747 394.786 37.4544 394.113L37.1505 396.197C38.2576 396.783 39.712 397.174 41.3401 397.174C44.1404 397.174 46.0724 395.546 46.0724 392.962ZM57.0071 391.616C57.0071 388.751 55.6178 386.428 52.6004 386.428C49.9954 386.428 48.0417 388.469 48.0417 391.79C48.0417 395.589 50.1474 397.217 52.8392 397.217C54.5541 397.217 55.8783 396.696 56.9854 395.828L56.7032 394.091C55.5744 394.981 54.489 395.567 52.9911 395.567C51.1894 395.567 50.0389 394.438 49.9737 392.029H57.0071C57.0071 391.899 57.0071 391.725 57.0071 391.616ZM55.0534 390.574H50.0606C50.3645 388.794 51.3847 387.948 52.5787 387.948C54.0765 387.948 54.8146 388.903 55.0534 390.574ZM65.2566 388.273L64.9526 386.428C63.2594 386.515 62.0655 387.579 61.3274 388.751L61.0018 386.645H59.4606V397H61.3926V390.878C62.0872 389.511 63.5416 388.36 65.2566 388.273ZM75.4679 386.645H73.4925L70.8875 394.677L68.1958 386.493L66.2638 386.797L69.9324 397.043H71.7776L75.4679 386.645ZM85.541 391.616C85.541 388.751 84.1517 386.428 81.1343 386.428C78.5294 386.428 76.5757 388.469 76.5757 391.79C76.5757 395.589 78.6813 397.217 81.3731 397.217C83.088 397.217 84.4122 396.696 85.5193 395.828L85.2371 394.091C84.1083 394.981 83.0229 395.567 81.525 395.567C79.7233 395.567 78.5728 394.438 78.5077 392.029H85.541C85.541 391.899 85.541 391.725 85.541 391.616ZM83.5873 390.574H78.5945C78.8984 388.794 79.9187 387.948 81.1126 387.948C82.6104 387.948 83.3485 388.903 83.5873 390.574ZM93.7905 388.273L93.4866 386.428C91.7934 386.515 90.5994 387.579 89.8614 388.751L89.5357 386.645H87.9945V397H89.9265V390.878C90.6211 389.511 92.0756 388.36 93.7905 388.273ZM111.463 383.888L111.159 382.022H99.7411V383.888H104.517V397H106.557V383.888H111.463ZM119.184 391.616C119.184 388.751 117.795 386.428 114.777 386.428C112.172 386.428 110.219 388.469 110.219 391.79C110.219 395.589 112.324 397.217 115.016 397.217C116.731 397.217 118.055 396.696 119.162 395.828L118.88 394.091C117.751 394.981 116.666 395.567 115.168 395.567C113.366 395.567 112.216 394.438 112.151 392.029H119.184C119.184 391.899 119.184 391.725 119.184 391.616ZM117.23 390.574H112.237C112.541 388.794 113.562 387.948 114.755 387.948C116.253 387.948 116.991 388.903 117.23 390.574ZM136.334 397V389.467C136.334 387.601 135.378 386.428 133.403 386.428C131.949 386.428 130.69 387.253 129.756 388.143C129.365 387.08 128.54 386.428 127.021 386.428C125.567 386.428 124.394 387.253 123.417 388.143L123.179 386.645H121.637V397H123.569V389.836C124.503 388.838 125.48 388.165 126.5 388.165C127.629 388.165 128.019 388.881 128.019 389.945V397H129.951V389.836C130.885 388.838 131.862 388.165 132.882 388.165C134.011 388.165 134.402 388.881 134.402 389.945V397H136.334ZM148.564 391.53C148.564 388.078 146.719 386.428 144.483 386.428C142.964 386.428 141.9 387.231 141.119 388.143L140.88 386.645H139.339V401.038L141.271 400.755V396.674C141.922 396.935 142.855 397.13 143.876 397.13C146.394 397.13 148.564 395.307 148.564 391.53ZM146.611 391.616C146.611 394.178 145.417 395.502 143.789 395.502C142.682 395.502 142.052 395.328 141.271 394.938V389.967C142.095 388.86 143.007 388.143 144.179 388.143C145.59 388.143 146.611 389.359 146.611 391.616ZM153.103 397V381.327L151.171 381.631V397H153.103ZM164.134 397V389.75C164.134 387.449 162.919 386.428 160.401 386.428C158.794 386.428 157.622 386.797 156.385 387.297L156.645 388.968C157.774 388.469 158.968 388.078 160.227 388.078C161.421 388.078 162.202 388.534 162.202 389.836V390.271C157.883 390.726 155.668 391.747 155.668 394.33C155.668 396.088 156.841 397.217 158.707 397.217C160.401 397.217 161.529 396.457 162.354 395.611L162.571 397H164.134ZM162.202 394.156C161.334 395.046 160.249 395.611 159.12 395.611C158.143 395.611 157.579 395.068 157.579 394.221C157.579 393.158 158.382 392.116 162.202 391.747V394.156ZM172.102 397.043L171.841 395.394C171.602 395.437 171.298 395.459 170.951 395.459C169.866 395.459 169.518 394.938 169.518 394.091V388.273H172.015L171.754 386.645H169.518V382.912L167.63 383.194V386.645H166.067V388.273H167.63V394.438C167.63 396.522 168.824 397.174 170.647 397.174C171.32 397.174 171.776 397.109 172.102 397.043ZM182.739 391.616C182.739 388.751 181.349 386.428 178.332 386.428C175.727 386.428 173.773 388.469 173.773 391.79C173.773 395.589 175.879 397.217 178.571 397.217C180.286 397.217 181.61 396.696 182.717 395.828L182.435 394.091C181.306 394.981 180.221 395.567 178.723 395.567C176.921 395.567 175.77 394.438 175.705 392.029H182.739C182.739 391.899 182.739 391.725 182.739 391.616ZM180.785 390.574H175.792C176.096 388.794 177.116 387.948 178.31 387.948C179.808 387.948 180.546 388.903 180.785 390.574Z" fill="white"/>
<path d="M48.6557 448.828L48.3518 446.896C47.1578 447.764 45.7468 448.394 44.1404 448.394C41.123 448.394 39.2996 446.114 39.2996 442.511C39.2996 438.907 41.1013 436.606 44.1404 436.606C45.7468 436.606 47.0276 437.236 48.113 438.061L48.4169 435.977C47.2664 435.195 45.9422 434.739 44.1621 434.739C39.9508 434.739 37.1939 437.887 37.1939 442.533C37.1939 447.156 39.9074 450.282 44.1187 450.282C45.8336 450.282 47.5051 449.674 48.6557 448.828ZM59.7635 450V439.645H57.8315V446.809C56.898 447.808 55.856 448.48 54.8358 448.48C53.707 448.48 53.2511 447.764 53.2511 446.7V439.645H51.3191V447.178C51.3191 449.045 52.3394 450.217 54.3148 450.217C55.7692 450.217 57.0066 449.414 57.9834 448.502L58.2222 450H59.7635ZM70.0387 447.113C70.0387 445.137 68.8882 444.399 66.3267 443.748C64.6986 443.336 64.1776 442.945 64.1776 442.25C64.1776 441.512 64.7854 441.056 65.9577 441.056C67.043 441.056 68.1936 441.425 69.1053 441.946L69.4092 440.123C68.4323 439.689 67.2818 439.428 66.0011 439.428C63.7435 439.428 62.3542 440.644 62.3542 442.294C62.3542 444.139 63.331 444.877 65.7623 445.485C67.6292 445.941 68.2153 446.288 68.2153 447.243C68.2153 448.111 67.4338 448.611 66.1096 448.611C64.6986 448.611 63.4395 448.09 62.4627 447.417L62.1805 449.24C63.0705 449.74 64.5901 450.217 65.9577 450.217C68.6277 450.217 70.0387 449.001 70.0387 447.113ZM77.3843 450.043L77.1238 448.394C76.885 448.437 76.5811 448.459 76.2338 448.459C75.1484 448.459 74.801 447.938 74.801 447.091V441.273H77.2974L77.037 439.645H74.801V435.912L72.9125 436.194V439.645H71.3495V441.273H72.9125V447.438C72.9125 449.522 74.1064 450.174 75.9299 450.174C76.6028 450.174 77.0587 450.109 77.3843 450.043ZM88.6291 444.834C88.6291 441.425 86.5886 439.428 83.81 439.428C81.0531 439.428 79.056 441.425 79.056 444.834C79.056 448.242 81.0531 450.217 83.81 450.217C86.5886 450.217 88.6291 448.242 88.6291 444.834ZM86.6754 444.834C86.6754 447.004 85.7203 448.611 83.81 448.611C81.9865 448.611 81.0097 446.961 81.0097 444.834C81.0097 442.663 81.9431 441.056 83.81 441.056C85.6768 441.056 86.6754 442.706 86.6754 444.834ZM105.786 450V442.467C105.786 440.601 104.831 439.428 102.855 439.428C101.401 439.428 100.142 440.253 99.2083 441.143C98.8175 440.08 97.9926 439.428 96.4731 439.428C95.0187 439.428 93.8464 440.253 92.8696 441.143L92.6308 439.645H91.0896V450H93.0215V442.836C93.955 441.838 94.9318 441.165 95.9521 441.165C97.0809 441.165 97.4717 441.881 97.4717 442.945V450H99.4037V442.836C100.337 441.838 101.314 441.165 102.334 441.165C103.463 441.165 103.854 441.881 103.854 442.945V450H105.786ZM116.014 450V435.022H113.973V450H116.014ZM127.919 450V442.467C127.919 440.601 126.877 439.428 124.924 439.428C123.448 439.428 122.232 440.253 121.255 441.143L121.016 439.645H119.475V450H121.407V442.836C122.341 441.838 123.382 441.165 124.403 441.165C125.532 441.165 125.987 441.881 125.987 442.945V450H127.919ZM138.959 439.645H136.984L134.379 447.677L131.687 439.493L129.755 439.797L133.424 450.043H135.269L138.959 439.645ZM143.337 436.346C143.337 435.673 142.794 435.108 142.121 435.108C141.448 435.108 140.884 435.673 140.884 436.346C140.884 437.019 141.448 437.561 142.121 437.561C142.794 437.561 143.337 437.019 143.337 436.346ZM143.076 450V439.645H141.144V450H143.076ZM151.242 450.043L150.981 448.394C150.742 448.437 150.439 448.459 150.091 448.459C149.006 448.459 148.659 447.938 148.659 447.091V441.273H151.155L150.894 439.645H148.659V435.912L146.77 436.194V439.645H145.207V441.273H146.77V447.438C146.77 449.522 147.964 450.174 149.787 450.174C150.46 450.174 150.916 450.109 151.242 450.043ZM161.879 444.616C161.879 441.751 160.489 439.428 157.472 439.428C154.867 439.428 152.913 441.469 152.913 444.79C152.913 448.589 155.019 450.217 157.711 450.217C159.426 450.217 160.75 449.696 161.857 448.828L161.575 447.091C160.446 447.981 159.361 448.567 157.863 448.567C156.061 448.567 154.911 447.438 154.845 445.029H161.879C161.879 444.899 161.879 444.725 161.879 444.616ZM159.925 443.574H154.932C155.236 441.794 156.256 440.948 157.45 440.948C158.948 440.948 159.686 441.903 159.925 443.574ZM177.112 450L176.83 448.133H171.425V435.022H169.384V450H177.112ZM181.601 436.346C181.601 435.673 181.058 435.108 180.385 435.108C179.712 435.108 179.148 435.673 179.148 436.346C179.148 437.019 179.712 437.561 180.385 437.561C181.058 437.561 181.601 437.019 181.601 436.346ZM181.34 450V439.645H179.408V450H181.34ZM192.979 450V442.467C192.979 440.601 191.937 439.428 189.984 439.428C188.508 439.428 187.292 440.253 186.315 441.143L186.076 439.645H184.535V450H186.467V442.836C187.4 441.838 188.442 441.165 189.463 441.165C190.591 441.165 191.047 441.881 191.047 442.945V450H192.979ZM204.622 449.826L199.89 444.226L204.253 439.645H201.93L197.914 443.987V434.327L195.982 434.631V450H197.914V444.573L202.517 450.152L204.622 449.826Z" fill="white"/>
<mask id="mask1_285_1849" style="mask-type:alpha" maskUnits="userSpaceOnUse" x="0" y="0" width="471" height="579">
<rect width="471" height="579" rx="35" fill="#1C1B27"/>
</mask>
<g mask="url(#mask1_285_1849)">
<path d="M23 536.471C23 534.554 24.5542 533 26.4715 533H287.529C289.446 533 291 534.554 291 536.471V576.047C291 577.964 289.446 579.518 287.529 579.518H26.4715C24.5542 579.518 23 577.964 23 576.047V536.471Z" fill="#292841"/>
<path d="M34.9725 564V549.022H32.932V564H34.9725ZM46.8784 564V556.467C46.8784 554.601 45.8365 553.428 43.8827 553.428C42.4066 553.428 41.191 554.253 40.2141 555.143L39.9753 553.645H38.4341V564H40.3661V556.836C41.2995 555.838 42.3415 555.165 43.3618 555.165C44.4906 555.165 44.9464 555.881 44.9464 556.945V564H46.8784ZM54.8527 564.043L54.5922 562.394C54.3534 562.437 54.0495 562.459 53.7021 562.459C52.6168 562.459 52.2694 561.938 52.2694 561.091V555.273H54.7658L54.5053 553.645H52.2694V549.912L50.3809 550.194V553.645H48.8179V555.273H50.3809V561.438C50.3809 563.522 51.5748 564.174 53.3982 564.174C54.0712 564.174 54.527 564.109 54.8527 564.043ZM65.4897 558.616C65.4897 555.751 64.1004 553.428 61.083 553.428C58.478 553.428 56.5243 555.469 56.5243 558.79C56.5243 562.589 58.63 564.217 61.3218 564.217C63.0367 564.217 64.3609 563.696 65.468 562.828L65.1858 561.091C64.057 561.981 62.9716 562.567 61.4737 562.567C59.672 562.567 58.5215 561.438 58.4563 559.029H65.4897C65.4897 558.899 65.4897 558.725 65.4897 558.616ZM63.536 557.574H58.5432C58.8471 555.794 59.8673 554.948 61.0613 554.948C62.5591 554.948 63.2972 555.903 63.536 557.574ZM70.3961 563.197C70.8086 563.284 71.1125 563.349 71.6769 563.457L72.9143 563.674C74.3904 563.935 74.868 564.369 74.868 564.999C74.868 565.867 73.7392 566.562 71.7203 566.562C69.7015 566.562 68.6378 565.954 68.6378 565.129C68.6378 564.412 69.1805 563.805 70.3961 563.197ZM73.6089 557.01C73.6089 558.247 72.784 559.224 71.4598 559.224C70.1791 559.224 69.3542 558.291 69.3542 557.097C69.3542 555.838 70.1574 554.839 71.4598 554.839C72.7406 554.839 73.6089 555.773 73.6089 557.01ZM74.1299 554.297C73.4135 553.732 72.5018 553.428 71.4598 553.428C69.3542 553.428 67.4873 554.796 67.4873 557.032C67.4873 558.443 68.2688 559.55 69.4193 560.114C68.7246 560.527 68.3339 561.026 68.3339 561.525C68.3339 561.916 68.5293 562.285 68.9851 562.611C67.5307 563.392 66.7926 564.217 66.7926 565.281C66.7926 567.104 68.9417 567.951 71.6335 567.951C74.3253 567.951 76.6914 566.931 76.6914 564.76C76.6914 563.153 75.3238 562.459 73.1313 562.068L72.3933 561.938C70.5698 561.612 70.2008 561.525 70.2008 561.156C70.2008 560.961 70.4179 560.722 70.7218 560.527C70.9823 560.57 71.2428 560.592 71.5032 560.592C73.6089 560.592 75.4758 559.246 75.4758 557.032C75.4758 556.446 75.3455 555.903 75.0633 555.425L77.0387 555.23L76.7565 553.493L74.1299 554.297ZM84.6779 555.273L84.374 553.428C82.6807 553.515 81.4868 554.579 80.7487 555.751L80.4231 553.645H78.8819V564H80.8139V557.878C81.5085 556.511 82.9629 555.36 84.6779 555.273ZM94.1169 564V556.75C94.1169 554.449 92.9012 553.428 90.3831 553.428C88.7767 553.428 87.6045 553.797 86.3672 554.297L86.6277 555.968C87.7565 555.469 88.9504 555.078 90.2095 555.078C91.4034 555.078 92.1849 555.534 92.1849 556.836V557.271C87.865 557.726 85.6508 558.747 85.6508 561.33C85.6508 563.088 86.823 564.217 88.6899 564.217C90.3831 564.217 91.5119 563.457 92.3368 562.611L92.5539 564H94.1169ZM92.1849 561.156C91.3166 562.046 90.2312 562.611 89.1024 562.611C88.1255 562.611 87.5611 562.068 87.5611 561.221C87.5611 560.158 88.3643 559.116 92.1849 558.747V561.156ZM102.084 564.043L101.824 562.394C101.585 562.437 101.281 562.459 100.934 562.459C99.8482 562.459 99.5009 561.938 99.5009 561.091V555.273H101.997L101.737 553.645H99.5009V549.912L97.6123 550.194V553.645H96.0494V555.273H97.6123V561.438C97.6123 563.522 98.8063 564.174 100.63 564.174C101.303 564.174 101.759 564.109 102.084 564.043ZM106.771 550.346C106.771 549.673 106.228 549.108 105.556 549.108C104.883 549.108 104.318 549.673 104.318 550.346C104.318 551.019 104.883 551.561 105.556 551.561C106.228 551.561 106.771 551.019 106.771 550.346ZM106.511 564V553.645H104.579V564H106.511ZM118.692 558.834C118.692 555.425 116.652 553.428 113.873 553.428C111.116 553.428 109.119 555.425 109.119 558.834C109.119 562.242 111.116 564.217 113.873 564.217C116.652 564.217 118.692 562.242 118.692 558.834ZM116.739 558.834C116.739 561.004 115.783 562.611 113.873 562.611C112.05 562.611 111.073 560.961 111.073 558.834C111.073 556.663 112.006 555.056 113.873 555.056C115.74 555.056 116.739 556.706 116.739 558.834ZM129.597 564V556.467C129.597 554.601 128.555 553.428 126.601 553.428C125.125 553.428 123.91 554.253 122.933 555.143L122.694 553.645H121.153V564H123.085V556.836C124.018 555.838 125.06 555.165 126.08 555.165C127.209 555.165 127.665 555.881 127.665 556.945V564H129.597ZM139.829 561.113C139.829 559.137 138.678 558.399 136.117 557.748C134.489 557.336 133.968 556.945 133.968 556.25C133.968 555.512 134.576 555.056 135.748 555.056C136.833 555.056 137.984 555.425 138.896 555.946L139.199 554.123C138.223 553.689 137.072 553.428 135.791 553.428C133.534 553.428 132.144 554.644 132.144 556.294C132.144 558.139 133.121 558.877 135.553 559.485C137.419 559.941 138.006 560.288 138.006 561.243C138.006 562.111 137.224 562.611 135.9 562.611C134.489 562.611 133.23 562.09 132.253 561.417L131.971 563.24C132.861 563.74 134.38 564.217 135.748 564.217C138.418 564.217 139.829 563.001 139.829 561.113Z" fill="white"/>
</g>
<defs>
<filter id="filter0_d_285_1849" x="351" y="80" width="156" height="156" filterUnits="userSpaceOnUse" color-interpolation-filters="sRGB">
<feFlood flood-opacity="0" result="BackgroundImageFix"/>
<feColorMatrix in="SourceAlpha" type="matrix" values="0 0 0 0 0 0 0 0 0 0 0 0 0 0 0 0 0 0 127 0" result="hardAlpha"/>
<feOffset dy="4"/>
<feGaussianBlur stdDeviation="14"/>
<feComposite in2="hardAlpha" operator="out"/>
<feColorMatrix type="matrix" values="0 0 0 0 0 0 0 0 0 0 0 0 0 0 0 0 0 0 0.25 0"/>
<feBlend mode="normal" in2="BackgroundImageFix" result="effect1_dropShadow_285_1849"/>
<feBlend mode="normal" in="SourceGraphic" in2="effect1_dropShadow_285_1849" result="shape"/>
</filter>
</defs>
</svg>
