<svg width="2564" height="1000" viewBox="0 0 2564 1000" fill="none" xmlns="http://www.w3.org/2000/svg">
<path d="M999.25 640V377.5H1043.13L1195.38 582.625L1187.13 584.125C1186.13 577.125 1185.25 570 1184.5 562.75C1183.75 555.25 1183 547.5 1182.25 539.5C1181.75 531.5 1181.25 523.125 1180.75 514.375C1180.5 505.625 1180.25 496.5 1180 487C1179.75 477.25 1179.63 467 1179.63 456.25V377.5H1228V640H1183.38L1030.38 437.875L1040.13 435.25C1041.38 449.25 1042.38 461.25 1043.13 471.25C1044.13 481 1044.88 489.5 1045.38 496.75C1045.88 503.75 1046.25 509.625 1046.5 514.375C1047 519.125 1047.25 523.5 1047.25 527.5C1047.5 531.25 1047.63 534.875 1047.63 538.375V640H999.25ZM1382.82 643.75C1362.07 643.75 1343.69 639.375 1327.69 630.625C1311.94 621.875 1299.57 610 1290.57 595C1281.82 579.75 1277.44 562.375 1277.44 542.875C1277.44 527.375 1279.94 513.25 1284.94 500.5C1289.94 487.75 1296.82 476.75 1305.57 467.5C1314.57 458 1325.19 450.75 1337.44 445.75C1349.94 440.5 1363.57 437.875 1378.32 437.875C1391.32 437.875 1403.44 440.375 1414.69 445.375C1425.94 450.375 1435.69 457.25 1443.94 466C1452.19 474.5 1458.44 484.75 1462.69 496.75C1467.19 508.5 1469.32 521.375 1469.07 535.375L1468.69 551.5H1308.57L1299.94 520H1430.07L1424.07 526.375V518.125C1423.32 510.375 1420.82 503.625 1416.57 497.875C1412.32 491.875 1406.82 487.25 1400.07 484C1393.57 480.5 1386.32 478.75 1378.32 478.75C1366.07 478.75 1355.69 481.125 1347.19 485.875C1338.94 490.625 1332.69 497.5 1328.44 506.5C1324.19 515.25 1322.07 526.25 1322.07 539.5C1322.07 552.25 1324.69 563.375 1329.94 572.875C1335.44 582.375 1343.07 589.75 1352.82 595C1362.82 600 1374.44 602.5 1387.69 602.5C1396.94 602.5 1405.44 601 1413.19 598C1420.94 595 1429.32 589.625 1438.32 581.875L1461.19 613.75C1454.44 620 1446.69 625.375 1437.94 629.875C1429.44 634.125 1420.44 637.5 1410.94 640C1401.44 642.5 1392.07 643.75 1382.82 643.75ZM1531.3 640V392.125H1577.42V640H1531.3ZM1492.3 485.125V442.375H1620.55V485.125H1492.3ZM1738.59 643.75C1720.09 643.75 1703.47 639.25 1688.72 630.25C1673.97 621.25 1662.34 609 1653.84 593.5C1645.34 578 1641.09 560.5 1641.09 541C1641.09 521.5 1645.34 504 1653.84 488.5C1662.34 473 1673.97 460.75 1688.72 451.75C1703.47 442.75 1720.09 438.25 1738.59 438.25C1756.34 438.25 1772.47 441.625 1786.97 448.375C1801.47 455.125 1812.72 464.5 1820.72 476.5L1795.22 507.25C1791.47 502 1786.72 497.25 1780.97 493C1775.22 488.75 1769.09 485.375 1762.59 482.875C1756.09 480.375 1749.59 479.125 1743.09 479.125C1732.09 479.125 1722.22 481.875 1713.47 487.375C1704.97 492.625 1698.22 500 1693.22 509.5C1688.22 518.75 1685.72 529.25 1685.72 541C1685.72 552.75 1688.22 563.25 1693.22 572.5C1698.47 581.75 1705.47 589.125 1714.22 594.625C1722.97 600.125 1732.72 602.875 1743.47 602.875C1749.97 602.875 1756.22 601.875 1762.22 599.875C1768.47 597.625 1774.34 594.5 1779.84 590.5C1785.34 586.5 1790.47 581.5 1795.22 575.5L1820.72 606.625C1812.22 617.625 1800.47 626.625 1785.47 633.625C1770.72 640.375 1755.09 643.75 1738.59 643.75ZM1946.37 643.75C1926.62 643.75 1908.99 639.375 1893.49 630.625C1877.99 621.625 1865.74 609.375 1856.74 593.875C1847.74 578.375 1843.24 560.75 1843.24 541C1843.24 521.25 1847.74 503.625 1856.74 488.125C1865.74 472.625 1877.99 460.5 1893.49 451.75C1908.99 442.75 1926.62 438.25 1946.37 438.25C1965.87 438.25 1983.37 442.75 1998.87 451.75C2014.37 460.5 2026.49 472.625 2035.24 488.125C2044.24 503.625 2048.74 521.25 2048.74 541C2048.74 560.75 2044.24 578.375 2035.24 593.875C2026.49 609.375 2014.37 621.625 1998.87 630.625C1983.37 639.375 1965.87 643.75 1946.37 643.75ZM1946.37 602.875C1957.12 602.875 1966.62 600.125 1974.87 594.625C1983.37 589.125 1989.99 581.75 1994.74 572.5C1999.74 563.25 2002.12 552.75 2001.87 541C2002.12 529 1999.74 518.375 1994.74 509.125C1989.99 499.875 1983.37 492.625 1974.87 487.375C1966.62 481.875 1957.12 479.125 1946.37 479.125C1935.62 479.125 1925.87 481.875 1917.12 487.375C1908.62 492.625 1901.99 500 1897.24 509.5C1892.49 518.75 1890.12 529.25 1890.12 541C1890.12 552.75 1892.49 563.25 1897.24 572.5C1901.99 581.75 1908.62 589.125 1917.12 594.625C1925.87 600.125 1935.62 602.875 1946.37 602.875ZM2090 640V442.375H2135.37L2136.12 505.375L2129.75 491.125C2132.5 481.125 2137.25 472.125 2144 464.125C2150.75 456.125 2158.5 449.875 2167.25 445.375C2176.25 440.625 2185.62 438.25 2195.37 438.25C2199.62 438.25 2203.62 438.625 2207.37 439.375C2211.37 440.125 2214.62 441 2217.12 442L2204.75 492.625C2202 491.125 2198.62 489.875 2194.62 488.875C2190.62 487.875 2186.62 487.375 2182.62 487.375C2176.37 487.375 2170.37 488.625 2164.62 491.125C2159.12 493.375 2154.25 496.625 2150 500.875C2145.75 505.125 2142.37 510.125 2139.87 515.875C2137.62 521.375 2136.5 527.625 2136.5 534.625V640H2090ZM2318.91 643.75C2301.41 643.75 2285.66 639.375 2271.66 630.625C2257.91 621.625 2246.91 609.5 2238.66 594.25C2230.66 578.75 2226.66 561 2226.66 541C2226.66 521.25 2230.66 503.625 2238.66 488.125C2246.66 472.625 2257.54 460.5 2271.29 451.75C2285.29 442.75 2301.04 438.25 2318.54 438.25C2328.04 438.25 2337.16 439.75 2345.91 442.75C2354.91 445.75 2362.91 449.875 2369.91 455.125C2376.91 460.125 2382.41 465.75 2386.41 472C2390.66 478.25 2393.04 484.75 2393.54 491.5L2381.16 493V362.5H2427.29V640H2382.66L2381.54 593.5L2390.54 594.25C2390.29 600.5 2388.04 606.5 2383.79 612.25C2379.79 618 2374.54 623.25 2368.04 628C2361.54 632.75 2353.91 636.625 2345.16 639.625C2336.66 642.375 2327.91 643.75 2318.91 643.75ZM2327.91 604.75C2338.66 604.75 2348.16 602 2356.41 596.5C2364.66 591 2371.04 583.5 2375.54 574C2380.29 564.5 2382.66 553.5 2382.66 541C2382.66 528.75 2380.29 517.875 2375.54 508.375C2371.04 498.625 2364.66 491.125 2356.41 485.875C2348.16 480.375 2338.66 477.625 2327.91 477.625C2317.16 477.625 2307.66 480.375 2299.41 485.875C2291.16 491.125 2284.66 498.625 2279.91 508.375C2275.41 517.875 2273.16 528.75 2273.16 541C2273.16 553.5 2275.41 564.5 2279.91 574C2284.66 583.5 2291.16 591 2299.41 596.5C2307.66 602 2317.16 604.75 2327.91 604.75Z" fill="#1C1B29"/>
<rect width="123.401" height="439.884" transform="matrix(0.859406 0.511293 0 1 283 248)" fill="#1C1B29"/>
<rect width="341.791" height="106.098" transform="matrix(0.866025 0.5 0 1 283 249.33)" fill="#1C1B29"/>
<rect width="123.401" height="439.884" transform="matrix(-0.859406 -0.511293 8.74228e-08 -1 717 751.878)" fill="#1C1B29"/>
<rect width="341.791" height="106.098" transform="matrix(-0.866025 -0.5 8.74228e-08 -1 717 750.548)" fill="#1C1B29"/>
</svg>
