<svg width="665" height="403" viewBox="0 0 665 403" fill="none" xmlns="http://www.w3.org/2000/svg">
<rect x="99.6719" y="97.7532" width="411.064" height="280.529" rx="15.4048" fill="#FF5261"/>
<path d="M99.6719 120.86C99.6719 113.683 99.6719 110.094 100.844 107.263C102.408 103.488 105.407 100.489 109.181 98.9258C112.012 97.7532 115.601 97.7532 122.779 97.7532H226.964V378.282H122.779C115.601 378.282 112.012 378.282 109.181 377.109C105.407 375.546 102.408 372.547 100.844 368.772C99.6719 365.942 99.6719 362.353 99.6719 355.175V120.86Z" fill="#63252B"/>
<mask id="mask0_123_1452" style="mask-type:alpha" maskUnits="userSpaceOnUse" x="99" y="125" width="412" height="254">
<rect x="99.6719" y="125.319" width="411.064" height="252.962" rx="15.4048" fill="#1C1B29"/>
</mask>
<g mask="url(#mask0_123_1452)">
<rect x="259.396" y="305.312" width="1813.94" height="59.1867" rx="12.9724" fill="#63252B" fill-opacity="0.99"/>
<path d="M291.265 322.765C284.57 322.765 279.124 328.211 279.124 334.905C279.124 341.6 284.57 347.046 291.265 347.046C297.959 347.046 303.406 341.6 303.406 334.905C303.406 328.211 297.959 322.765 291.265 322.765ZM297.335 336.119H292.479V340.976H290.051V336.119H285.194V333.691H290.051V328.835H292.479V333.691H297.335V336.119Z" fill="#DCDDDE"/>
<path d="M339.501 328.84H337.752L334.966 338.71L331.761 328.84H330.049L326.844 338.71L324.003 328.712L322.327 329.076L326.043 341.405H327.463L330.869 331.225L334.274 341.405H335.713L339.501 328.84ZM347.943 341.405V335.086C347.943 333.52 347.069 332.536 345.43 332.536C344.192 332.536 343.19 333.229 342.48 333.866V328.257L340.859 328.512V341.405H342.48V335.396C343.263 334.558 344.137 333.993 344.993 333.993C345.94 333.993 346.323 334.594 346.323 335.487V341.405H347.943ZM356.491 341.405V335.323C356.491 333.392 355.471 332.536 353.358 332.536C352.011 332.536 351.027 332.846 349.989 333.265L350.208 334.667C351.155 334.248 352.157 333.921 353.213 333.921C354.214 333.921 354.87 334.303 354.87 335.396V335.76C351.246 336.142 349.388 336.998 349.388 339.165C349.388 340.641 350.372 341.588 351.938 341.588C353.358 341.588 354.305 340.95 354.998 340.24L355.18 341.405H356.491ZM354.87 339.02C354.142 339.766 353.231 340.24 352.284 340.24C351.465 340.24 350.991 339.785 350.991 339.074C350.991 338.182 351.665 337.308 354.87 336.998V339.02ZM362.628 341.442L362.41 340.058C362.21 340.094 361.955 340.112 361.663 340.112C360.753 340.112 360.461 339.675 360.461 338.965V334.084H362.556L362.337 332.719H360.461V329.586L358.877 329.823V332.719H357.566V334.084H358.877V339.256C358.877 341.005 359.879 341.551 361.408 341.551C361.973 341.551 362.355 341.496 362.628 341.442ZM368.218 341.442L367.999 340.058C367.799 340.094 367.544 340.112 367.253 340.112C366.342 340.112 366.051 339.675 366.051 338.965V334.084H368.145L367.926 332.719H366.051V329.586L364.466 329.823V332.719H363.155V334.084H364.466V339.256C364.466 341.005 365.468 341.551 366.998 341.551C367.562 341.551 367.945 341.496 368.218 341.442ZM376.211 341.405V335.323C376.211 333.392 375.191 332.536 373.079 332.536C371.731 332.536 370.748 332.846 369.71 333.265L369.928 334.667C370.875 334.248 371.877 333.921 372.933 333.921C373.935 333.921 374.59 334.303 374.59 335.396V335.76C370.966 336.142 369.109 336.998 369.109 339.165C369.109 340.641 370.092 341.588 371.658 341.588C373.079 341.588 374.026 340.95 374.718 340.24L374.9 341.405H376.211ZM374.59 339.02C373.862 339.766 372.951 340.24 372.004 340.24C371.185 340.24 370.711 339.785 370.711 339.074C370.711 338.182 371.385 337.308 374.59 336.998V339.02ZM387.698 338.983C387.698 337.326 386.733 336.707 384.584 336.161C383.218 335.815 382.781 335.487 382.781 334.904C382.781 334.285 383.291 333.902 384.274 333.902C385.185 333.902 386.15 334.212 386.915 334.649L387.17 333.119C386.35 332.755 385.385 332.536 384.31 332.536C382.416 332.536 381.251 333.556 381.251 334.94C381.251 336.488 382.07 337.108 384.11 337.617C385.676 338 386.168 338.291 386.168 339.093C386.168 339.821 385.512 340.24 384.402 340.24C383.218 340.24 382.162 339.803 381.342 339.238L381.105 340.768C381.852 341.187 383.127 341.588 384.274 341.588C386.514 341.588 387.698 340.568 387.698 338.983ZM396.173 336.889C396.173 334.485 395.007 332.536 392.476 332.536C390.291 332.536 388.652 334.248 388.652 337.035C388.652 340.222 390.418 341.588 392.676 341.588C394.115 341.588 395.226 341.15 396.155 340.422L395.918 338.965C394.971 339.712 394.06 340.203 392.804 340.203C391.292 340.203 390.327 339.256 390.273 337.235H396.173C396.173 337.126 396.173 336.98 396.173 336.889ZM394.534 336.015H390.345C390.6 334.522 391.456 333.811 392.458 333.811C393.714 333.811 394.334 334.613 394.534 336.015ZM402.547 334.084L402.292 332.536C400.872 332.609 399.87 333.502 399.251 334.485L398.978 332.719H397.685V341.405H399.306V336.27C399.889 335.122 401.109 334.157 402.547 334.084ZM410.568 332.719H408.91L406.725 339.457L404.467 332.591L402.846 332.846L405.924 341.442H407.472L410.568 332.719ZM418.472 336.889C418.472 334.485 417.306 332.536 414.775 332.536C412.59 332.536 410.951 334.248 410.951 337.035C410.951 340.222 412.717 341.588 414.975 341.588C416.414 341.588 417.525 341.15 418.454 340.422L418.217 338.965C417.27 339.712 416.359 340.203 415.103 340.203C413.591 340.203 412.626 339.256 412.571 337.235H418.472C418.472 337.126 418.472 336.98 418.472 336.889ZM416.833 336.015H412.644C412.899 334.522 413.755 333.811 414.757 333.811C416.013 333.811 416.633 334.613 416.833 336.015ZM424.846 334.084L424.591 332.536C423.171 332.609 422.169 333.502 421.55 334.485L421.277 332.719H419.984V341.405H421.605V336.27C422.187 335.122 423.408 334.157 424.846 334.084ZM428.15 328.84H426.201L426.638 337.672L427.694 337.435L428.15 328.84ZM428.077 341.405V339.238H426.256V341.405H428.077ZM432.565 328.84H430.617L431.054 337.672L432.11 337.435L432.565 328.84ZM432.492 341.405V339.238H430.671V341.405H432.492Z" fill="#DCDDDE"/>
</g>
<mask id="mask1_123_1452" style="mask-type:alpha" maskUnits="userSpaceOnUse" x="99" y="97" width="412" height="282">
<rect x="99.6719" y="97.7531" width="411.064" height="280.529" rx="15.4048" fill="#63252B"/>
</mask>
<g mask="url(#mask1_123_1452)">
<rect x="239.936" y="102.618" width="274.853" height="39.7281" rx="8.10777" fill="#FF5261"/>
</g>
<g filter="url(#filter0_bd_123_1452)">
<rect x="5" y="184" width="214.045" height="56.2267" rx="5.81656" fill="#FE5261" fill-opacity="0.29" shape-rendering="crispEdges"/>
<path d="M27.3326 223.741C26.9319 223.741 26.6285 223.378 26.6985 222.982L27.4787 218.572H23.0934C22.6933 218.572 22.3901 218.21 22.459 217.815L22.6844 216.522C22.7383 216.213 23.0059 215.988 23.3188 215.988H27.9295L29.2947 208.234H24.9094C24.5093 208.234 24.2061 207.872 24.275 207.476L24.5004 206.184C24.5543 205.875 24.8219 205.649 25.1348 205.649H29.7455L30.5656 201.013C30.6201 200.705 30.8874 200.48 31.1996 200.48H32.4674C32.868 200.48 33.1715 200.843 33.1014 201.239L32.3213 205.649H40.049L40.8691 201.013C40.9236 200.705 41.1908 200.48 41.5032 200.48H42.7709C43.1716 200.48 43.475 200.843 43.4049 201.239L42.6248 205.649H47.0101C47.4102 205.649 47.7135 206.012 47.6445 206.407L47.4191 207.699C47.3652 208.008 47.0976 208.234 46.7848 208.234H42.1741L40.8088 215.988H45.1942C45.5942 215.988 45.8975 216.35 45.8285 216.745L45.6031 218.038C45.5492 218.347 45.2816 218.572 44.9688 218.572H40.3581L39.5379 223.208C39.4834 223.517 39.2162 223.741 38.9039 223.741H37.6361C37.2355 223.741 36.932 223.378 37.0021 222.982L37.7822 218.572H30.0546L29.2344 223.208C29.1799 223.517 28.9126 223.741 28.6004 223.741H27.3326ZM31.8711 208.234L30.5059 215.988H38.2335L39.5987 208.234H31.8711Z" fill="white"/>
<path d="M78.013 220.113V204.015L74.6462 204.55V209.478C74.0219 209.255 73.3307 209.121 72.3273 209.121C69.9193 209.121 67.7119 210.793 67.7119 214.963C67.7119 218.642 69.4287 220.336 71.6584 220.336C73.0631 220.336 74.0665 219.511 74.8023 218.686L75.0252 220.113H78.013ZM74.6462 216.234C74.0665 216.88 73.4867 217.349 72.7732 217.349C71.8145 217.349 71.101 216.591 71.101 214.718C71.101 212.622 71.9483 211.752 73.0631 211.752C73.7766 211.752 74.1556 211.841 74.6462 212.064V216.234ZM89.7845 214.628C89.7845 211.462 88.2906 208.965 84.9461 208.965C81.9806 208.965 79.7955 211.128 79.7955 214.695C79.7955 218.597 82.1367 220.336 85.4143 220.336C87.1312 220.336 88.5805 219.868 89.7622 219.11L89.4277 216.747C88.2237 217.438 87.042 217.884 85.8379 217.884C84.3664 217.884 83.3407 217.215 83.1623 215.498H89.7176C89.7622 215.32 89.7845 214.963 89.7845 214.628ZM86.5737 213.647H83.14C83.2515 211.975 83.9204 211.15 84.8569 211.15C85.8825 211.15 86.4623 211.997 86.5737 213.647ZM100.128 216.747C100.128 214.718 99.1019 213.982 96.2033 213.201C94.6649 212.778 94.3527 212.532 94.3527 212.087C94.3527 211.663 94.7095 211.373 95.5121 211.373C96.5601 211.373 97.9202 211.752 99.1019 212.399L99.5256 209.835C98.3884 209.322 96.9614 209.032 95.4898 209.032C92.8142 209.032 91.298 210.392 91.298 212.421C91.298 214.472 92.4575 215.208 95.2 215.922C96.7385 216.301 97.0506 216.546 97.0506 217.103C97.0506 217.616 96.6047 217.928 95.6682 217.928C94.4196 217.928 92.8365 217.438 91.5433 216.635L91.142 219.199C92.2791 219.801 93.9068 220.292 95.6459 220.292C98.5445 220.292 100.128 219.043 100.128 216.747ZM105.61 205.955C105.61 204.84 104.785 204.127 103.692 204.127C102.622 204.127 101.775 204.84 101.775 205.955C101.775 207.047 102.622 207.761 103.692 207.761C104.785 207.761 105.61 207.047 105.61 205.955ZM105.387 220.113V209.188H101.998V220.113H105.387ZM110.063 219.913C110.598 220.002 110.977 220.069 111.78 220.136L113.407 220.269C114.589 220.403 114.99 220.626 114.99 221.139C114.99 221.853 113.987 222.432 112.226 222.432C110.263 222.432 109.416 221.897 109.416 221.139C109.416 220.76 109.617 220.359 110.063 219.913ZM113.63 212.778C113.63 213.826 113.05 214.584 112.025 214.584C111.044 214.584 110.464 213.87 110.464 212.845C110.464 211.797 111.044 210.994 112.025 210.994C113.028 210.994 113.63 211.752 113.63 212.778ZM115.347 210.058C114.522 209.411 113.385 209.01 112.003 209.01C109.372 209.01 107.409 210.503 107.409 212.889C107.409 214.294 108.145 215.431 109.505 216.055C108.435 216.657 107.878 217.326 107.878 218.018C107.878 218.441 108.101 218.887 108.48 219.222C107.276 219.89 106.696 220.604 106.696 221.563C106.696 223.235 108.881 224.171 111.958 224.171C115.459 224.171 118.067 222.633 118.067 220.247C118.067 218.597 116.752 217.906 114.567 217.683L112.56 217.549C111.088 217.371 110.821 217.282 110.821 216.97C110.821 216.813 110.91 216.657 111.088 216.479C111.423 216.524 111.757 216.546 112.114 216.546C114.589 216.546 116.64 215.141 116.64 212.778C116.64 212.376 116.573 211.997 116.44 211.618C116.462 211.618 118.357 211.574 118.357 211.574L117.933 209.076L115.347 210.058ZM129.398 220.113V212.354C129.398 210.236 128.328 208.965 126.299 208.965C124.916 208.965 123.868 209.723 122.887 210.682L122.642 209.188H119.677V220.113H123.043V212.934C123.645 212.332 124.247 211.953 124.894 211.953C125.697 211.953 126.009 212.488 126.009 213.268V220.113H129.398ZM137.494 215.23V212.02H131.407V215.23H137.494ZM146.045 220.047L145.622 217.282C145.376 217.349 145.109 217.393 144.819 217.393C143.905 217.393 143.481 216.992 143.481 216.1V211.93H145.978L145.555 209.188H143.481V205.42L140.137 205.933V209.188H138.687V211.93H140.137V216.635C140.137 219.422 141.764 220.269 144.106 220.269C144.997 220.269 145.51 220.203 146.045 220.047ZM157.001 214.628C157.001 211.462 155.508 208.965 152.163 208.965C149.198 208.965 147.013 211.128 147.013 214.695C147.013 218.597 149.354 220.336 152.631 220.336C154.348 220.336 155.797 219.868 156.979 219.11L156.645 216.747C155.441 217.438 154.259 217.884 153.055 217.884C151.583 217.884 150.558 217.215 150.379 215.498H156.935C156.979 215.32 157.001 214.963 157.001 214.628ZM153.791 213.647H150.357C150.469 211.975 151.137 211.15 152.074 211.15C153.1 211.15 153.679 211.997 153.791 213.647ZM167.88 220.113V212.8C167.88 210.013 166.386 209.01 163.376 209.01C161.592 209.01 160.187 209.344 158.939 209.857L159.34 212.399C160.499 211.886 161.637 211.574 162.863 211.574C163.978 211.574 164.513 211.997 164.513 212.956V213.157C160.232 213.536 158.27 214.74 158.27 217.304C158.27 219.288 159.496 220.336 161.235 220.336C162.729 220.336 163.777 219.69 164.669 218.753L164.892 220.113H167.88ZM164.513 217.103C163.911 217.638 163.287 217.928 162.64 217.928C162.016 217.928 161.592 217.549 161.592 216.858C161.592 215.899 162.216 215.141 164.513 214.784V217.103ZM185.936 220.113V212.354C185.936 210.236 184.866 208.965 182.837 208.965C181.477 208.965 180.407 209.701 179.426 210.682C179.024 209.701 178.199 208.965 176.706 208.965C175.301 208.965 174.298 209.679 173.316 210.682L173.071 209.188H170.106V220.113H173.473V212.912C174.075 212.332 174.632 211.953 175.256 211.953C176.037 211.953 176.327 212.488 176.327 213.268V220.113H179.693V212.912C180.295 212.332 180.875 211.953 181.477 211.953C182.257 211.953 182.547 212.488 182.547 213.268V220.113H185.936Z" fill="white"/>
</g>
<path d="M252.59 132.006C252.264 132.006 252.017 131.71 252.074 131.388L252.709 127.796H249.138C248.812 127.796 248.565 127.501 248.621 127.179L248.805 126.127C248.849 125.875 249.067 125.691 249.321 125.691H253.076L254.188 119.377H250.617C250.291 119.377 250.044 119.082 250.1 118.76L250.284 117.707C250.328 117.456 250.546 117.272 250.8 117.272H254.555L255.223 113.497C255.268 113.245 255.485 113.062 255.74 113.062H256.772C257.098 113.062 257.345 113.358 257.288 113.68L256.653 117.272H262.946L263.614 113.497C263.659 113.245 263.876 113.062 264.131 113.062H265.163C265.489 113.062 265.737 113.358 265.68 113.68L265.044 117.272H268.616C268.941 117.272 269.188 117.567 269.132 117.889L268.949 118.941C268.905 119.193 268.687 119.377 268.432 119.377H264.677L263.565 125.691H267.137C267.462 125.691 267.709 125.986 267.653 126.308L267.47 127.361C267.426 127.613 267.208 127.796 266.953 127.796H263.198L262.53 131.572C262.486 131.823 262.268 132.006 262.014 132.006H260.981C260.655 132.006 260.408 131.71 260.465 131.388L261.1 127.796H254.807L254.139 131.572C254.095 131.823 253.877 132.006 253.623 132.006H252.59ZM256.286 119.377L255.175 125.691H261.468L262.58 119.377H256.286Z" fill="white"/>
<path d="M288.805 129.049V115.939L287.189 116.193V120.66C286.644 120.442 285.863 120.279 285.01 120.279C282.903 120.279 281.087 121.804 281.087 124.963C281.087 127.869 282.631 129.231 284.501 129.231C285.772 129.231 286.662 128.577 287.316 127.796L287.516 129.049H288.805ZM287.189 126.271C286.499 127.197 285.736 127.796 284.737 127.796C283.575 127.796 282.722 126.797 282.722 124.891C282.722 122.748 283.702 121.64 285.064 121.64C285.99 121.64 286.517 121.786 287.189 122.131V126.271ZM298.358 124.546C298.358 122.149 297.195 120.206 294.671 120.206C292.492 120.206 290.858 121.913 290.858 124.691C290.858 127.869 292.62 129.231 294.871 129.231C296.306 129.231 297.413 128.795 298.339 128.069L298.103 126.616C297.159 127.36 296.251 127.851 294.998 127.851C293.491 127.851 292.529 126.906 292.474 124.891H298.358C298.358 124.782 298.358 124.637 298.358 124.546ZM296.723 123.674H292.547C292.801 122.185 293.655 121.477 294.653 121.477C295.906 121.477 296.524 122.276 296.723 123.674ZM306.457 126.634C306.457 124.982 305.494 124.364 303.352 123.819C301.99 123.474 301.554 123.148 301.554 122.567C301.554 121.949 302.062 121.568 303.043 121.568C303.951 121.568 304.913 121.877 305.676 122.312L305.93 120.787C305.113 120.424 304.151 120.206 303.079 120.206C301.191 120.206 300.029 121.223 300.029 122.603C300.029 124.146 300.846 124.764 302.879 125.272C304.441 125.653 304.931 125.944 304.931 126.743C304.931 127.469 304.278 127.887 303.17 127.887C301.99 127.887 300.937 127.451 300.119 126.888L299.883 128.414C300.628 128.831 301.899 129.231 303.043 129.231C305.276 129.231 306.457 128.214 306.457 126.634ZM310.404 117.627C310.404 117.065 309.95 116.592 309.387 116.592C308.824 116.592 308.352 117.065 308.352 117.627C308.352 118.19 308.824 118.644 309.387 118.644C309.95 118.644 310.404 118.19 310.404 117.627ZM310.186 129.049V120.388H308.57V129.049H310.186ZM314.91 128.377C315.255 128.45 315.509 128.504 315.982 128.595L317.017 128.777C318.251 128.995 318.651 129.358 318.651 129.884C318.651 130.611 317.707 131.192 316.018 131.192C314.329 131.192 313.439 130.683 313.439 129.993C313.439 129.394 313.893 128.886 314.91 128.377ZM317.598 123.202C317.598 124.237 316.908 125.054 315.8 125.054C314.729 125.054 314.039 124.273 314.039 123.275C314.039 122.222 314.711 121.386 315.8 121.386C316.871 121.386 317.598 122.167 317.598 123.202ZM318.034 120.932C317.434 120.46 316.672 120.206 315.8 120.206C314.039 120.206 312.477 121.35 312.477 123.22C312.477 124.401 313.131 125.327 314.093 125.799C313.512 126.144 313.185 126.561 313.185 126.979C313.185 127.306 313.349 127.615 313.73 127.887C312.513 128.541 311.896 129.231 311.896 130.12C311.896 131.646 313.694 132.354 315.945 132.354C318.197 132.354 320.176 131.5 320.176 129.685C320.176 128.341 319.032 127.76 317.198 127.433L316.581 127.324C315.056 127.052 314.747 126.979 314.747 126.67C314.747 126.507 314.928 126.307 315.183 126.144C315.401 126.18 315.618 126.198 315.836 126.198C317.598 126.198 319.159 125.072 319.159 123.22C319.159 122.73 319.05 122.276 318.814 121.877L320.467 121.713L320.231 120.26L318.034 120.932ZM329.072 129.049V122.748C329.072 121.186 328.2 120.206 326.566 120.206C325.331 120.206 324.315 120.896 323.497 121.64L323.298 120.388H322.008V129.049H323.625V123.057C324.405 122.222 325.277 121.659 326.13 121.659C327.075 121.659 327.456 122.258 327.456 123.148V129.049H329.072ZM335.761 124.673V123.093H331.294V124.673H335.761ZM342.162 129.085L341.944 127.705C341.744 127.742 341.49 127.76 341.199 127.76C340.291 127.76 340.001 127.324 340.001 126.616V121.749H342.089L341.871 120.388H340.001V117.264L338.421 117.5V120.388H337.114V121.749H338.421V126.906C338.421 128.65 339.42 129.194 340.945 129.194C341.508 129.194 341.889 129.14 342.162 129.085ZM351.059 124.546C351.059 122.149 349.897 120.206 347.373 120.206C345.194 120.206 343.56 121.913 343.56 124.691C343.56 127.869 345.321 129.231 347.573 129.231C349.008 129.231 350.115 128.795 351.041 128.069L350.805 126.616C349.861 127.36 348.953 127.851 347.7 127.851C346.193 127.851 345.231 126.906 345.176 124.891H351.059C351.059 124.782 351.059 124.637 351.059 124.546ZM349.425 123.674H345.249C345.503 122.185 346.356 121.477 347.355 121.477C348.608 121.477 349.225 122.276 349.425 123.674ZM359.667 129.049V122.984C359.667 121.059 358.65 120.206 356.544 120.206C355.2 120.206 354.219 120.515 353.184 120.932L353.402 122.33C354.347 121.913 355.345 121.586 356.398 121.586C357.397 121.586 358.051 121.967 358.051 123.057V123.42C354.437 123.801 352.585 124.655 352.585 126.816C352.585 128.286 353.566 129.231 355.127 129.231C356.544 129.231 357.488 128.595 358.178 127.887L358.36 129.049H359.667ZM358.051 126.67C357.325 127.415 356.417 127.887 355.472 127.887C354.655 127.887 354.183 127.433 354.183 126.725C354.183 125.835 354.855 124.963 358.051 124.655V126.67ZM374.466 129.049V122.748C374.466 121.186 373.667 120.206 372.015 120.206C370.798 120.206 369.745 120.896 368.964 121.64C368.638 120.751 367.948 120.206 366.677 120.206C365.46 120.206 364.479 120.896 363.662 121.64L363.462 120.388H362.173V129.049H363.789V123.057C364.57 122.222 365.387 121.659 366.241 121.659C367.185 121.659 367.512 122.258 367.512 123.148V129.049H369.128V123.057C369.909 122.222 370.726 121.659 371.579 121.659C372.524 121.659 372.85 122.258 372.85 123.148V129.049H374.466Z" fill="white"/>
<g filter="url(#filter1_bd_123_1452)">
<rect x="20.9238" y="130.905" width="182.187" height="47.974" rx="4.96282" fill="#FE5261" fill-opacity="0.29" shape-rendering="crispEdges"/>
<path d="M39.9791 164.813C39.6372 164.813 39.3784 164.504 39.4381 164.166L40.1038 160.403H36.3621C36.0208 160.403 35.762 160.094 35.8209 159.757L36.0132 158.654C36.0592 158.39 36.2875 158.198 36.5544 158.198H40.4884L41.6532 151.582H37.9116C37.5702 151.582 37.3115 151.273 37.3703 150.936L37.5626 149.833C37.6086 149.569 37.837 149.377 38.1039 149.377H42.0378L42.7376 145.421C42.7841 145.158 43.0121 144.966 43.2785 144.966H44.3603C44.7021 144.966 44.961 145.276 44.9012 145.614L44.2356 149.377H50.829L51.5288 145.421C51.5753 145.158 51.8033 144.966 52.0698 144.966H53.1514C53.4933 144.966 53.7522 145.276 53.6924 145.614L53.0268 149.377H56.7685C57.1098 149.377 57.3686 149.686 57.3097 150.023L57.1174 151.126C57.0714 151.39 56.8431 151.582 56.5762 151.582H52.6422L51.4774 158.198H55.219C55.5603 158.198 55.8191 158.507 55.7602 158.844L55.5679 159.947C55.522 160.21 55.2936 160.403 55.0267 160.403H51.0928L50.393 164.359C50.3465 164.622 50.1185 164.813 49.852 164.813H48.7703C48.4285 164.813 48.1696 164.504 48.2294 164.166L48.895 160.403H42.3016L41.6018 164.359C41.5553 164.622 41.3272 164.813 41.0608 164.813H39.9791ZM43.8515 151.582L42.6867 158.198H49.28L50.4448 151.582H43.8515Z" fill="white"/>
<path d="M77.3418 161.188C77.7032 161.264 77.9696 161.321 78.4642 161.416L79.5486 161.607C80.8422 161.835 81.2607 162.216 81.2607 162.767C81.2607 163.528 80.2715 164.137 78.5022 164.137C76.733 164.137 75.8008 163.604 75.8008 162.881C75.8008 162.254 76.2764 161.721 77.3418 161.188ZM80.1573 155.766C80.1573 156.851 79.4344 157.707 78.274 157.707C77.1515 157.707 76.4286 156.889 76.4286 155.842C76.4286 154.739 77.1325 153.864 78.274 153.864C79.3964 153.864 80.1573 154.682 80.1573 155.766ZM80.6139 153.388C79.9861 152.894 79.1871 152.627 78.274 152.627C76.4286 152.627 74.7925 153.826 74.7925 155.785C74.7925 157.022 75.4774 157.992 76.4857 158.487C75.8769 158.848 75.5345 159.286 75.5345 159.723C75.5345 160.066 75.7057 160.389 76.1052 160.675C74.8306 161.359 74.1838 162.082 74.1838 163.015C74.1838 164.613 76.0672 165.354 78.4261 165.354C80.7851 165.354 82.8588 164.46 82.8588 162.558C82.8588 161.15 81.6603 160.541 79.7388 160.199L79.092 160.085C77.494 159.799 77.1706 159.723 77.1706 159.4C77.1706 159.229 77.3608 159.019 77.6271 158.848C77.8554 158.886 78.0837 158.905 78.312 158.905C80.1573 158.905 81.7934 157.726 81.7934 155.785C81.7934 155.272 81.6793 154.796 81.432 154.378L83.1632 154.206L82.9159 152.684L80.6139 153.388ZM91.9731 157.174C91.9731 154.663 90.7556 152.627 88.1112 152.627C85.8283 152.627 84.1162 154.416 84.1162 157.326C84.1162 160.656 85.9615 162.082 88.3205 162.082C89.8234 162.082 90.9839 161.626 91.9541 160.865L91.7068 159.343C90.7175 160.123 89.7663 160.636 88.4537 160.636C86.8747 160.636 85.8664 159.647 85.8093 157.536H91.9731C91.9731 157.421 91.9731 157.269 91.9731 157.174ZM90.261 156.261H85.8854C86.1517 154.701 87.0459 153.959 88.0922 153.959C89.4049 153.959 90.0517 154.796 90.261 156.261ZM101.524 161.892V155.291C101.524 153.655 100.611 152.627 98.8984 152.627C97.6047 152.627 96.5394 153.35 95.6833 154.13L95.474 152.818H94.1233V161.892H95.8165V155.614C96.6345 154.739 97.5477 154.149 98.4418 154.149C99.431 154.149 99.8306 154.777 99.8306 155.709V161.892H101.524ZM111.499 157.174C111.499 154.663 110.281 152.627 107.637 152.627C105.354 152.627 103.642 154.416 103.642 157.326C103.642 160.656 105.487 162.082 107.846 162.082C109.349 162.082 110.51 161.626 111.48 160.865L111.233 159.343C110.243 160.123 109.292 160.636 107.979 160.636C106.4 160.636 105.392 159.647 105.335 157.536H111.499C111.499 157.421 111.499 157.269 111.499 157.174ZM109.787 156.261H105.411C105.678 154.701 106.572 153.959 107.618 153.959C108.931 153.959 109.577 154.796 109.787 156.261ZM118.729 154.244L118.462 152.627C116.978 152.703 115.932 153.636 115.285 154.663L115 152.818H113.649V161.892H115.342V156.527C115.951 155.329 117.226 154.32 118.729 154.244ZM127.001 161.892V155.538C127.001 153.521 125.935 152.627 123.728 152.627C122.321 152.627 121.293 152.951 120.209 153.388L120.437 154.853C121.427 154.416 122.473 154.073 123.576 154.073C124.623 154.073 125.307 154.473 125.307 155.614V155.995C121.522 156.394 119.581 157.288 119.581 159.552C119.581 161.093 120.609 162.082 122.245 162.082C123.728 162.082 124.718 161.416 125.441 160.675L125.631 161.892H127.001ZM125.307 159.4C124.547 160.18 123.595 160.675 122.606 160.675C121.75 160.675 121.255 160.199 121.255 159.457C121.255 158.525 121.959 157.612 125.307 157.288V159.4ZM131.453 161.892V148.157L129.76 148.423V161.892H131.453Z" fill="white"/>
</g>
<g filter="url(#filter2_bd_123_1452)">
<rect x="20.9238" y="130.905" width="182.187" height="47.974" rx="4.96282" fill="#FE5261" fill-opacity="0.29" shape-rendering="crispEdges"/>
<path d="M39.9791 164.814C39.6372 164.814 39.3784 164.504 39.4381 164.166L40.1038 160.403H36.3621C36.0208 160.403 35.762 160.094 35.8209 159.757L36.0132 158.654C36.0592 158.39 36.2875 158.198 36.5544 158.198H40.4884L41.6532 151.582H37.9116C37.5702 151.582 37.3115 151.273 37.3703 150.936L37.5626 149.833C37.6086 149.569 37.837 149.377 38.1039 149.377H42.0378L42.7376 145.422C42.7841 145.158 43.0121 144.967 43.2785 144.967H44.3603C44.7021 144.967 44.961 145.276 44.9012 145.614L44.2356 149.377H50.829L51.5288 145.422C51.5753 145.158 51.8033 144.967 52.0698 144.967H53.1514C53.4933 144.967 53.7522 145.276 53.6924 145.614L53.0268 149.377H56.7685C57.1098 149.377 57.3686 149.686 57.3097 150.023L57.1174 151.126C57.0714 151.39 56.8431 151.582 56.5762 151.582H52.6422L51.4774 158.198H55.219C55.5603 158.198 55.8191 158.507 55.7602 158.844L55.5679 159.947C55.522 160.211 55.2936 160.403 55.0267 160.403H51.0928L50.393 164.359C50.3465 164.622 50.1185 164.814 49.852 164.814H48.7703C48.4285 164.814 48.1696 164.504 48.2294 164.166L48.895 160.403H42.3016L41.6018 164.359C41.5553 164.622 41.3272 164.814 41.0608 164.814H39.9791ZM43.8515 151.582L42.6867 158.198H49.28L50.4448 151.582H43.8515Z" fill="white"/>
<path d="M77.3418 161.188C77.7032 161.264 77.9696 161.321 78.4642 161.416L79.5486 161.607C80.8422 161.835 81.2607 162.216 81.2607 162.767C81.2607 163.528 80.2715 164.137 78.5022 164.137C76.733 164.137 75.8008 163.604 75.8008 162.881C75.8008 162.254 76.2764 161.721 77.3418 161.188ZM80.1573 155.766C80.1573 156.851 79.4344 157.707 78.274 157.707C77.1515 157.707 76.4286 156.889 76.4286 155.842C76.4286 154.739 77.1325 153.864 78.274 153.864C79.3964 153.864 80.1573 154.682 80.1573 155.766ZM80.6139 153.388C79.9861 152.894 79.1871 152.627 78.274 152.627C76.4286 152.627 74.7925 153.826 74.7925 155.785C74.7925 157.022 75.4774 157.992 76.4857 158.487C75.8769 158.848 75.5345 159.286 75.5345 159.723C75.5345 160.066 75.7057 160.389 76.1052 160.675C74.8306 161.359 74.1838 162.082 74.1838 163.015C74.1838 164.613 76.0672 165.354 78.4261 165.354C80.7851 165.354 82.8588 164.46 82.8588 162.558C82.8588 161.15 81.6603 160.541 79.7388 160.199L79.092 160.085C77.494 159.799 77.1706 159.723 77.1706 159.4C77.1706 159.229 77.3608 159.019 77.6271 158.848C77.8554 158.886 78.0837 158.905 78.312 158.905C80.1573 158.905 81.7934 157.726 81.7934 155.785C81.7934 155.272 81.6793 154.796 81.432 154.378L83.1632 154.206L82.9159 152.684L80.6139 153.388ZM91.9731 157.174C91.9731 154.663 90.7556 152.627 88.1112 152.627C85.8283 152.627 84.1162 154.416 84.1162 157.326C84.1162 160.656 85.9615 162.082 88.3205 162.082C89.8234 162.082 90.9839 161.626 91.9541 160.865L91.7068 159.343C90.7175 160.123 89.7663 160.636 88.4537 160.636C86.8747 160.636 85.8664 159.647 85.8093 157.536H91.9731C91.9731 157.421 91.9731 157.269 91.9731 157.174ZM90.261 156.261H85.8854C86.1517 154.701 87.0459 153.959 88.0922 153.959C89.4049 153.959 90.0517 154.796 90.261 156.261ZM101.524 161.892V155.291C101.524 153.655 100.611 152.627 98.8984 152.627C97.6047 152.627 96.5394 153.35 95.6833 154.13L95.474 152.818H94.1233V161.892H95.8165V155.614C96.6345 154.739 97.5477 154.149 98.4418 154.149C99.431 154.149 99.8306 154.777 99.8306 155.709V161.892H101.524ZM111.499 157.174C111.499 154.663 110.281 152.627 107.637 152.627C105.354 152.627 103.642 154.416 103.642 157.326C103.642 160.656 105.487 162.082 107.846 162.082C109.349 162.082 110.51 161.626 111.48 160.865L111.233 159.343C110.243 160.123 109.292 160.636 107.979 160.636C106.4 160.636 105.392 159.647 105.335 157.536H111.499C111.499 157.421 111.499 157.269 111.499 157.174ZM109.787 156.261H105.411C105.678 154.701 106.572 153.959 107.618 153.959C108.931 153.959 109.577 154.796 109.787 156.261ZM118.729 154.244L118.462 152.627C116.978 152.703 115.932 153.636 115.285 154.663L115 152.818H113.649V161.892H115.342V156.527C115.951 155.329 117.226 154.32 118.729 154.244ZM127.001 161.892V155.538C127.001 153.521 125.935 152.627 123.728 152.627C122.321 152.627 121.293 152.951 120.209 153.388L120.437 154.853C121.427 154.416 122.473 154.073 123.576 154.073C124.623 154.073 125.307 154.473 125.307 155.614V155.995C121.522 156.394 119.581 157.288 119.581 159.552C119.581 161.093 120.609 162.082 122.245 162.082C123.728 162.082 124.718 161.416 125.441 160.675L125.631 161.892H127.001ZM125.307 159.4C124.547 160.18 123.595 160.675 122.606 160.675C121.75 160.675 121.255 160.199 121.255 159.457C121.255 158.525 121.959 157.612 125.307 157.288V159.4ZM131.453 161.892V148.157L129.76 148.423V161.892H131.453Z" fill="white"/>
</g>
<g filter="url(#filter3_bd_123_1452)">
<rect x="20.9238" y="245.394" width="182.187" height="47.974" rx="4.96282" fill="#FE5261" fill-opacity="0.29" shape-rendering="crispEdges"/>
<path d="M39.9791 279.303C39.6372 279.303 39.3784 278.993 39.4381 278.655L40.1038 274.892H36.3621C36.0208 274.892 35.762 274.583 35.8209 274.246L36.0132 273.143C36.0592 272.879 36.2875 272.687 36.5544 272.687H40.4884L41.6532 266.071H37.9116C37.5702 266.071 37.3115 265.762 37.3703 265.425L37.5626 264.322C37.6086 264.058 37.837 263.866 38.1039 263.866H42.0378L42.7376 259.911C42.7841 259.647 43.0121 259.456 43.2785 259.456H44.3603C44.7021 259.456 44.961 259.765 44.9012 260.103L44.2356 263.866H50.829L51.5288 259.911C51.5753 259.647 51.8033 259.456 52.0698 259.456H53.1514C53.4933 259.456 53.7522 259.765 53.6924 260.103L53.0268 263.866H56.7685C57.1098 263.866 57.3686 264.175 57.3097 264.512L57.1174 265.615C57.0714 265.879 56.8431 266.071 56.5762 266.071H52.6422L51.4774 272.687H55.219C55.5603 272.687 55.8191 272.996 55.7602 273.333L55.5679 274.436C55.522 274.7 55.2936 274.892 55.0267 274.892H51.0928L50.393 278.848C50.3465 279.111 50.1185 279.303 49.852 279.303H48.7703C48.4285 279.303 48.1696 278.993 48.2294 278.655L48.895 274.892H42.3016L41.6018 278.848C41.5553 279.111 41.3272 279.303 41.0608 279.303H39.9791ZM43.8515 266.071L42.6867 272.687H49.28L50.4448 266.071H43.8515Z" fill="white"/>
<path d="M80.2715 268.734L80.0052 267.116C78.5213 267.193 77.4749 268.125 76.8281 269.152L76.5428 267.307H75.192V276.381H76.8852V271.016C77.494 269.818 78.7686 268.81 80.2715 268.734ZM89.0192 271.663C89.0192 269.152 87.8016 267.116 85.1573 267.116C82.8744 267.116 81.1622 268.905 81.1622 271.815C81.1622 275.145 83.0076 276.571 85.3665 276.571C86.8695 276.571 88.0299 276.115 89.0002 275.354L88.7528 273.832C87.7636 274.612 86.8124 275.126 85.4997 275.126C83.9207 275.126 82.9124 274.136 82.8554 272.025H89.0192C89.0192 271.911 89.0192 271.758 89.0192 271.663ZM87.307 270.75H82.9315C83.1978 269.19 84.0919 268.448 85.1383 268.448C86.4509 268.448 87.0977 269.285 87.307 270.75ZM97.5044 273.851C97.5044 272.12 96.4961 271.473 94.2513 270.902C92.8245 270.541 92.3679 270.198 92.3679 269.59C92.3679 268.943 92.9006 268.543 93.9279 268.543C94.8791 268.543 95.8874 268.867 96.6864 269.323L96.9527 267.725C96.0966 267.345 95.0883 267.116 93.9659 267.116C91.9874 267.116 90.7699 268.182 90.7699 269.628C90.7699 271.245 91.6259 271.892 93.7566 272.424C95.3927 272.824 95.9064 273.128 95.9064 273.965C95.9064 274.726 95.2215 275.164 94.061 275.164C92.8245 275.164 91.7211 274.707 90.865 274.117L90.6177 275.715C91.3977 276.153 92.7293 276.571 93.9279 276.571C96.2678 276.571 97.5044 275.506 97.5044 273.851ZM107.461 271.853C107.461 268.867 105.673 267.116 103.238 267.116C100.822 267.116 99.0717 268.867 99.0717 271.853C99.0717 274.84 100.822 276.571 103.238 276.571C105.673 276.571 107.461 274.84 107.461 271.853ZM105.749 271.853C105.749 273.756 104.912 275.164 103.238 275.164C101.64 275.164 100.784 273.718 100.784 271.853C100.784 269.951 101.602 268.543 103.238 268.543C104.874 268.543 105.749 269.989 105.749 271.853ZM116.98 276.381V267.307H115.287V273.585C114.469 274.46 113.556 275.05 112.661 275.05C111.672 275.05 111.273 274.422 111.273 273.49V267.307H109.58V273.908C109.58 275.544 110.474 276.571 112.205 276.571C113.479 276.571 114.564 275.868 115.42 275.069L115.629 276.381H116.98ZM124.729 268.734L124.463 267.116C122.979 267.193 121.933 268.125 121.286 269.152L121.001 267.307H119.65V276.381H121.343V271.016C121.952 269.818 123.226 268.81 124.729 268.734ZM132.944 275.601L132.697 274.079C131.765 274.878 130.966 275.088 130.053 275.088C128.455 275.088 127.332 274.041 127.332 271.834C127.332 269.723 128.379 268.6 129.862 268.6C130.909 268.6 131.765 268.924 132.602 269.609L132.849 267.954C132.164 267.459 131.213 267.116 129.881 267.116C127.522 267.116 125.62 268.753 125.62 271.853C125.62 274.878 127.408 276.571 129.843 276.571C131.061 276.571 132.012 276.305 132.944 275.601ZM142.227 271.663C142.227 269.152 141.01 267.116 138.365 267.116C136.083 267.116 134.37 268.905 134.37 271.815C134.37 275.145 136.216 276.571 138.575 276.571C140.078 276.571 141.238 276.115 142.208 275.354L141.961 273.832C140.972 274.612 140.021 275.126 138.708 275.126C137.129 275.126 136.121 274.136 136.064 272.025H142.227C142.227 271.911 142.227 271.758 142.227 271.663ZM140.515 270.75H136.14C136.406 269.19 137.3 268.448 138.346 268.448C139.659 268.448 140.306 269.285 140.515 270.75ZM150.713 273.851C150.713 272.12 149.704 271.473 147.459 270.902C146.033 270.541 145.576 270.198 145.576 269.59C145.576 268.943 146.109 268.543 147.136 268.543C148.087 268.543 149.096 268.867 149.895 269.323L150.161 267.725C149.305 267.345 148.297 267.116 147.174 267.116C145.196 267.116 143.978 268.182 143.978 269.628C143.978 271.245 144.834 271.892 146.965 272.424C148.601 272.824 149.115 273.128 149.115 273.965C149.115 274.726 148.43 275.164 147.269 275.164C146.033 275.164 144.929 274.707 144.073 274.117L143.826 275.715C144.606 276.153 145.938 276.571 147.136 276.571C149.476 276.571 150.713 275.506 150.713 273.851Z" fill="white"/>
</g>
<g filter="url(#filter4_bd_123_1452)">
<rect x="20.9238" y="298.159" width="182.187" height="47.974" rx="4.96282" fill="#FE5261" fill-opacity="0.29" shape-rendering="crispEdges"/>
<path d="M46.4329 312.306C46.0095 312.132 45.5228 312.228 45.1991 312.551L40.34 317.859H36.9444C36.3218 317.859 35.8125 318.368 35.8125 318.987V325.756C35.8125 326.376 36.3218 326.884 36.9444 326.884H40.34L45.1991 332.195C45.5228 332.517 46.0095 332.614 46.4329 332.44C46.8562 332.265 47.1312 331.853 47.1312 331.396V313.347C47.1312 312.892 46.8562 312.478 46.4329 312.306ZM49.395 314.475V316.731C52.5155 316.731 55.0543 319.263 55.0543 322.372C55.0543 325.482 52.5155 328.012 49.395 328.012V330.268C53.764 330.268 57.3181 326.727 57.3181 322.372C57.3181 318.018 53.764 314.475 49.395 314.475ZM49.395 318.987C51.2671 318.987 52.7906 320.507 52.7906 322.372C52.7906 324.239 51.2671 325.756 49.395 325.756V323.5C50.0186 323.5 50.5268 322.993 50.5268 322.372C50.5268 321.75 50.0186 321.243 49.395 321.243V318.987Z" fill="white"/>
<path d="M88.0714 329.146V322.545C88.0714 320.909 87.2343 319.881 85.5031 319.881C84.2285 319.881 83.1251 320.604 82.3071 321.384C81.9646 320.452 81.2417 319.881 79.91 319.881C78.6354 319.881 77.6081 320.604 76.752 321.384L76.5428 320.071H75.192V329.146H76.8852V322.868C77.7032 321.993 78.5593 321.403 79.4535 321.403C80.4427 321.403 80.7851 322.031 80.7851 322.963V329.146H82.4783V322.868C83.2963 321.993 84.1524 321.403 85.0466 321.403C86.0358 321.403 86.3782 322.031 86.3782 322.963V329.146H88.0714ZM98.0482 324.428C98.0482 321.917 96.8307 319.881 94.1863 319.881C91.9034 319.881 90.1913 321.67 90.1913 324.58C90.1913 327.909 92.0366 329.336 94.3956 329.336C95.8985 329.336 97.059 328.88 98.0292 328.119L97.7819 326.597C96.7926 327.377 95.8414 327.89 94.5288 327.89C92.9498 327.89 91.9415 326.901 91.8844 324.789H98.0482C98.0482 324.675 98.0482 324.523 98.0482 324.428ZM96.3361 323.515H91.9605C92.2268 321.955 93.121 321.213 94.1673 321.213C95.48 321.213 96.1268 322.05 96.3361 323.515ZM107.542 324.428C107.542 321.917 106.324 319.881 103.68 319.881C101.397 319.881 99.6848 321.67 99.6848 324.58C99.6848 327.909 101.53 329.336 103.889 329.336C105.392 329.336 106.552 328.88 107.523 328.119L107.275 326.597C106.286 327.377 105.335 327.89 104.022 327.89C102.443 327.89 101.435 326.901 101.378 324.789H107.542C107.542 324.675 107.542 324.523 107.542 324.428ZM105.83 323.515H101.454C101.72 321.955 102.614 321.213 103.661 321.213C104.973 321.213 105.62 322.05 105.83 323.515ZM114.048 329.184L113.82 327.738C113.611 327.776 113.345 327.795 113.04 327.795C112.089 327.795 111.785 327.339 111.785 326.597V321.498H113.972L113.744 320.071H111.785V316.799L110.129 317.047V320.071H108.76V321.498H110.129V326.901C110.129 328.727 111.176 329.298 112.774 329.298C113.364 329.298 113.763 329.241 114.048 329.184ZM118.156 317.18C118.156 316.59 117.68 316.095 117.091 316.095C116.501 316.095 116.006 316.59 116.006 317.18C116.006 317.77 116.501 318.245 117.091 318.245C117.68 318.245 118.156 317.77 118.156 317.18ZM117.928 329.146V320.071H116.235V329.146H117.928ZM128.128 329.146V322.545C128.128 320.909 127.215 319.881 125.502 319.881C124.209 319.881 123.143 320.604 122.287 321.384L122.078 320.071H120.727V329.146H122.421V322.868C123.239 321.993 124.152 321.403 125.046 321.403C126.035 321.403 126.435 322.031 126.435 322.963V329.146H128.128ZM132.909 328.442C133.271 328.518 133.537 328.575 134.032 328.67L135.116 328.861C136.41 329.089 136.828 329.469 136.828 330.021C136.828 330.782 135.839 331.391 134.07 331.391C132.301 331.391 131.368 330.858 131.368 330.135C131.368 329.507 131.844 328.975 132.909 328.442ZM135.725 323.02C135.725 324.105 135.002 324.961 133.842 324.961C132.719 324.961 131.996 324.143 131.996 323.096C131.996 321.993 132.7 321.118 133.842 321.118C134.964 321.118 135.725 321.936 135.725 323.02ZM136.182 320.642C135.554 320.148 134.755 319.881 133.842 319.881C131.996 319.881 130.36 321.08 130.36 323.039C130.36 324.276 131.045 325.246 132.053 325.741C131.445 326.102 131.102 326.54 131.102 326.977C131.102 327.32 131.273 327.643 131.673 327.928C130.398 328.613 129.751 329.336 129.751 330.268C129.751 331.866 131.635 332.608 133.994 332.608C136.353 332.608 138.426 331.714 138.426 329.812C138.426 328.404 137.228 327.795 135.306 327.453L134.66 327.339C133.062 327.053 132.738 326.977 132.738 326.654C132.738 326.483 132.928 326.273 133.195 326.102C133.423 326.14 133.651 326.159 133.88 326.159C135.725 326.159 137.361 324.98 137.361 323.039C137.361 322.526 137.247 322.05 137 321.631L138.731 321.46L138.483 319.938L136.182 320.642ZM146.681 326.616C146.681 324.885 145.673 324.238 143.428 323.667C142.001 323.306 141.545 322.963 141.545 322.354C141.545 321.708 142.077 321.308 143.105 321.308C144.056 321.308 145.064 321.631 145.863 322.088L146.129 320.49C145.273 320.11 144.265 319.881 143.143 319.881C141.164 319.881 139.947 320.947 139.947 322.392C139.947 324.009 140.803 324.656 142.933 325.189C144.569 325.588 145.083 325.893 145.083 326.73C145.083 327.491 144.398 327.928 143.238 327.928C142.001 327.928 140.898 327.472 140.042 326.882L139.794 328.48C140.574 328.918 141.906 329.336 143.105 329.336C145.445 329.336 146.681 328.271 146.681 326.616Z" fill="white"/>
</g>
<ellipse cx="265.118" cy="170.395" rx="13.6871" ry="13.6616" fill="#FF8791"/>
<rect x="285.846" y="157.779" width="43.9847" height="8.51316" rx="2.83772" fill="#FF8791"/>
<rect x="286.15" y="169.101" width="115.941" height="13.7832" rx="2.83772" fill="#FF8791"/>
<ellipse cx="265.118" cy="203.738" rx="13.6871" ry="13.6616" fill="#FF8791"/>
<rect x="285.846" y="191.122" width="43.9847" height="8.51316" rx="2.83772" fill="#FF8791"/>
<rect x="286.15" y="202.343" width="89.1855" height="13.7832" rx="2.83772" fill="#FF8791"/>
<ellipse cx="265.118" cy="237.081" rx="13.6871" ry="13.6616" fill="#FF8791"/>
<rect x="285.846" y="224.466" width="43.9847" height="8.51316" rx="2.83772" fill="#FF8791"/>
<rect x="286.15" y="235.585" width="112.698" height="13.7832" rx="2.83772" fill="#FF8791"/>
<ellipse cx="265.118" cy="270.424" rx="13.6871" ry="13.6616" fill="#FF8791"/>
<rect x="285.846" y="257.809" width="43.9847" height="8.51316" rx="2.83772" fill="#FF8791"/>
<rect x="286.15" y="268.827" width="57.5652" height="13.7832" rx="2.83772" fill="#FF8791"/>
<g filter="url(#filter5_d_123_1452)">
<circle cx="559.382" cy="293.961" r="91.6178" fill="#63252B"/>
<circle cx="559.382" cy="293.961" r="87.9693" stroke="#BF5F67" stroke-width="7.297"/>
</g>
<g filter="url(#filter6_d_123_1452)">
<g filter="url(#filter7_d_123_1452)">
<circle cx="500.196" cy="102.618" r="91.6178" fill="#63252B"/>
</g>
<g filter="url(#filter8_d_123_1452)">
<circle cx="500.196" cy="102.618" r="91.6178" fill="#63252B"/>
<circle cx="500.196" cy="102.618" r="88.7801" stroke="#BF5F67" stroke-width="5.67544" stroke-linejoin="round"/>
</g>
<mask id="mask2_123_1452" style="mask-type:alpha" maskUnits="userSpaceOnUse" x="408" y="11" width="184" height="184">
<circle cx="500.196" cy="102.618" r="91.6178" fill="#63252B"/>
</mask>
<g mask="url(#mask2_123_1452)">
<rect x="450.154" y="49.3315" width="233.864" height="154.408" rx="12.7473" fill="#63252B" stroke="#BF5F67" stroke-width="2.79281"/>
<mask id="mask3_123_1452" style="mask-type:alpha" maskUnits="userSpaceOnUse" x="451" y="50" width="232" height="153">
<rect x="451.551" y="50.7279" width="231.072" height="151.615" rx="11.3509" fill="#63252B"/>
</mask>
<g mask="url(#mask3_123_1452)">
<mask id="mask4_123_1452" style="mask-type:alpha" maskUnits="userSpaceOnUse" x="451" y="50" width="232" height="153">
<rect x="451.551" y="50.7279" width="231.072" height="151.615" rx="11.3509" fill="#63252B"/>
</mask>
<g mask="url(#mask4_123_1452)">
<g filter="url(#filter9_bd_123_1452)">
<rect x="498.614" y="173.58" width="315.587" height="40.9612" rx="8.91855" fill="#FE5261" fill-opacity="0.29" shape-rendering="crispEdges"/>
</g>
</g>
<rect x="498.576" y="58.8357" width="177.56" height="111.076" rx="8.91855" fill="#DA747D"/>
<rect x="455.604" y="99.3745" width="38.9173" height="38.9173" rx="7.297" fill="#DA747D"/>
<rect x="455.604" y="54.7819" width="38.9173" height="38.9173" rx="19.4587" fill="#91333B"/>
<rect x="455.604" y="143.967" width="38.9173" height="38.9173" rx="19.4587" fill="#91333B"/>
<rect x="455.604" y="188.56" width="38.9173" height="38.9173" rx="19.4587" fill="#91333B"/>
</g>
</g>
</g>
<path d="M594.812 56.2286L583.217 69.103L566.504 73.6737L579.378 85.2691L583.949 101.982L595.545 89.1074L612.257 84.5367L599.383 72.9412L594.812 56.2286Z" fill="white"/>
<mask id="mask5_123_1452" style="mask-type:alpha" maskUnits="userSpaceOnUse" x="467" y="202" width="184" height="184">
<circle cx="559.381" cy="293.961" r="91.6178" fill="#63252B"/>
</mask>
<g mask="url(#mask5_123_1452)">
<path d="M609.522 253.4L606.103 272.043" stroke="#91333B" stroke-width="2.99773"/>
<path d="M532.822 239.33L529.402 257.973" stroke="#91333B" stroke-width="2.99773"/>
<path d="M614.802 314.657C608.893 346.869 581.614 357.845 551.461 352.314C521.308 346.782 499.701 326.838 505.609 294.626C511.518 262.414 540.752 240.785 570.905 246.317C601.058 251.848 620.711 282.445 614.802 314.657Z" fill="#C04D58"/>
<g filter="url(#filter10_i_123_1452)">
<path d="M513.009 305.32C515.516 291.653 528.627 282.607 542.293 285.114L583.362 292.647C597.023 295.153 606.067 308.26 603.561 321.921C600.939 336.214 586.783 345.317 572.69 341.772L554.247 337.133L534.813 334.845C520.382 333.147 510.387 319.612 513.009 305.32Z" fill="#FC7681"/>
</g>
<circle cx="537.195" cy="307.027" r="7.49449" transform="rotate(10.3948 537.195 307.027)" fill="#C66067" stroke="#902A31" stroke-width="1.79864"/>
<path d="M585.583 307.37L574.458 312.486L582.944 321.751" stroke="#902A31" stroke-width="2.6107" stroke-linecap="round" stroke-linejoin="round"/>
<path d="M547.194 324.553C550.24 327.956 558.766 333.502 568.5 328.461" stroke="#902A31" stroke-width="1.79864"/>
<circle cx="533.331" cy="238.048" r="4.24528" transform="rotate(10.3948 533.331 238.048)" fill="#91333B" stroke="#91333B" stroke-width="1.79864"/>
<circle cx="610.032" cy="252.118" r="4.24528" transform="rotate(10.3948 610.032 252.118)" fill="#91333B" stroke="#91333B" stroke-width="1.79864"/>
<path d="M581.065 369.548C580.877 367.286 579.987 365.14 578.519 363.409C577.051 361.679 575.079 360.45 572.878 359.895C572.878 359.895 556.197 359.281 545.861 356.855C535.577 354.442 520.437 347.622 520.437 347.622C518.266 347.145 516 347.379 513.973 348.288C511.945 349.198 510.263 350.735 509.175 352.673L495.165 377.527C491.814 383.638 490.795 390.758 492.299 397.562C493.001 400.408 494.47 403.008 496.544 405.081C498.619 407.152 501.221 408.617 504.069 409.316L560.446 422.417C563.278 423.056 566.231 422.914 568.99 422.006C571.748 421.1 574.209 419.464 576.112 417.269C580.514 411.773 582.767 404.863 582.451 397.828L581.065 369.548Z" fill="#91333B"/>
</g>
<path d="M477.003 237.207H477.09C479.201 237.207 480.912 235.492 480.912 233.377V225.631C480.912 223.517 479.201 221.802 477.09 221.802H477.003C474.892 221.802 473.181 223.517 473.181 225.631V233.377C473.181 235.492 474.892 237.207 477.003 237.207Z" fill="white"/>
<path d="M477.003 268.016H477.09C479.201 268.016 480.912 266.302 480.912 264.187V256.441C480.912 254.326 479.201 252.611 477.09 252.611H477.003C474.892 252.611 473.181 254.326 473.181 256.441V264.187C473.181 266.302 474.892 268.016 477.003 268.016Z" fill="white"/>
<path d="M469.357 244.953V244.866C469.357 242.751 467.646 241.037 465.535 241.037H457.804C455.693 241.037 453.981 242.751 453.981 244.866V244.953C453.981 247.068 455.693 248.783 457.804 248.783H465.535C467.646 248.783 469.357 247.068 469.357 244.953Z" fill="white"/>
<path d="M500.196 244.953V244.866C500.196 242.751 498.484 241.037 496.374 241.037H488.642C486.532 241.037 484.82 242.751 484.82 244.866V244.953C484.82 247.068 486.532 248.783 488.642 248.783H496.374C498.484 248.783 500.196 247.068 500.196 244.953Z" fill="white"/>
<defs>
<filter id="filter0_bd_123_1452" x="-19.5032" y="159.497" width="263.051" height="105.233" filterUnits="userSpaceOnUse" color-interpolation-filters="sRGB">
<feFlood flood-opacity="0" result="BackgroundImageFix"/>
<feGaussianBlur in="BackgroundImageFix" stdDeviation="12.2516"/>
<feComposite in2="SourceAlpha" operator="in" result="effect1_backgroundBlur_123_1452"/>
<feColorMatrix in="SourceAlpha" type="matrix" values="0 0 0 0 0 0 0 0 0 0 0 0 0 0 0 0 0 0 127 0" result="hardAlpha"/>
<feOffset dy="4.66728"/>
<feGaussianBlur stdDeviation="2.33364"/>
<feComposite in2="hardAlpha" operator="out"/>
<feColorMatrix type="matrix" values="0 0 0 0 0 0 0 0 0 0 0 0 0 0 0 0 0 0 0.25 0"/>
<feBlend mode="normal" in2="effect1_backgroundBlur_123_1452" result="effect2_dropShadow_123_1452"/>
<feBlend mode="normal" in="SourceGraphic" in2="effect2_dropShadow_123_1452" result="shape"/>
</filter>
<filter id="filter1_bd_123_1452" x="0.0170879" y="109.998" width="224.001" height="89.7875" filterUnits="userSpaceOnUse" color-interpolation-filters="sRGB">
<feFlood flood-opacity="0" result="BackgroundImageFix"/>
<feGaussianBlur in="BackgroundImageFix" stdDeviation="10.4534"/>
<feComposite in2="SourceAlpha" operator="in" result="effect1_backgroundBlur_123_1452"/>
<feColorMatrix in="SourceAlpha" type="matrix" values="0 0 0 0 0 0 0 0 0 0 0 0 0 0 0 0 0 0 127 0" result="hardAlpha"/>
<feOffset dy="3.98224"/>
<feGaussianBlur stdDeviation="1.99112"/>
<feComposite in2="hardAlpha" operator="out"/>
<feColorMatrix type="matrix" values="0 0 0 0 0 0 0 0 0 0 0 0 0 0 0 0 0 0 0.25 0"/>
<feBlend mode="normal" in2="effect1_backgroundBlur_123_1452" result="effect2_dropShadow_123_1452"/>
<feBlend mode="normal" in="SourceGraphic" in2="effect2_dropShadow_123_1452" result="shape"/>
</filter>
<filter id="filter2_bd_123_1452" x="0.0170879" y="109.998" width="224.001" height="89.7875" filterUnits="userSpaceOnUse" color-interpolation-filters="sRGB">
<feFlood flood-opacity="0" result="BackgroundImageFix"/>
<feGaussianBlur in="BackgroundImageFix" stdDeviation="10.4534"/>
<feComposite in2="SourceAlpha" operator="in" result="effect1_backgroundBlur_123_1452"/>
<feColorMatrix in="SourceAlpha" type="matrix" values="0 0 0 0 0 0 0 0 0 0 0 0 0 0 0 0 0 0 127 0" result="hardAlpha"/>
<feOffset dy="3.98224"/>
<feGaussianBlur stdDeviation="1.99112"/>
<feComposite in2="hardAlpha" operator="out"/>
<feColorMatrix type="matrix" values="0 0 0 0 0 0 0 0 0 0 0 0 0 0 0 0 0 0 0.25 0"/>
<feBlend mode="normal" in2="effect1_backgroundBlur_123_1452" result="effect2_dropShadow_123_1452"/>
<feBlend mode="normal" in="SourceGraphic" in2="effect2_dropShadow_123_1452" result="shape"/>
</filter>
<filter id="filter3_bd_123_1452" x="0.0170879" y="224.488" width="224.001" height="89.7875" filterUnits="userSpaceOnUse" color-interpolation-filters="sRGB">
<feFlood flood-opacity="0" result="BackgroundImageFix"/>
<feGaussianBlur in="BackgroundImageFix" stdDeviation="10.4534"/>
<feComposite in2="SourceAlpha" operator="in" result="effect1_backgroundBlur_123_1452"/>
<feColorMatrix in="SourceAlpha" type="matrix" values="0 0 0 0 0 0 0 0 0 0 0 0 0 0 0 0 0 0 127 0" result="hardAlpha"/>
<feOffset dy="3.98224"/>
<feGaussianBlur stdDeviation="1.99112"/>
<feComposite in2="hardAlpha" operator="out"/>
<feColorMatrix type="matrix" values="0 0 0 0 0 0 0 0 0 0 0 0 0 0 0 0 0 0 0.25 0"/>
<feBlend mode="normal" in2="effect1_backgroundBlur_123_1452" result="effect2_dropShadow_123_1452"/>
<feBlend mode="normal" in="SourceGraphic" in2="effect2_dropShadow_123_1452" result="shape"/>
</filter>
<filter id="filter4_bd_123_1452" x="0.0170879" y="277.252" width="224.001" height="89.7875" filterUnits="userSpaceOnUse" color-interpolation-filters="sRGB">
<feFlood flood-opacity="0" result="BackgroundImageFix"/>
<feGaussianBlur in="BackgroundImageFix" stdDeviation="10.4534"/>
<feComposite in2="SourceAlpha" operator="in" result="effect1_backgroundBlur_123_1452"/>
<feColorMatrix in="SourceAlpha" type="matrix" values="0 0 0 0 0 0 0 0 0 0 0 0 0 0 0 0 0 0 127 0" result="hardAlpha"/>
<feOffset dy="3.98224"/>
<feGaussianBlur stdDeviation="1.99112"/>
<feComposite in2="hardAlpha" operator="out"/>
<feColorMatrix type="matrix" values="0 0 0 0 0 0 0 0 0 0 0 0 0 0 0 0 0 0 0.25 0"/>
<feBlend mode="normal" in2="effect1_backgroundBlur_123_1452" result="effect2_dropShadow_123_1452"/>
<feBlend mode="normal" in="SourceGraphic" in2="effect2_dropShadow_123_1452" result="shape"/>
</filter>
<filter id="filter5_d_123_1452" x="453.981" y="191.803" width="210.802" height="210.802" filterUnits="userSpaceOnUse" color-interpolation-filters="sRGB">
<feFlood flood-opacity="0" result="BackgroundImageFix"/>
<feColorMatrix in="SourceAlpha" type="matrix" values="0 0 0 0 0 0 0 0 0 0 0 0 0 0 0 0 0 0 127 0" result="hardAlpha"/>
<feOffset dy="3.24311"/>
<feGaussianBlur stdDeviation="6.89161"/>
<feComposite in2="hardAlpha" operator="out"/>
<feColorMatrix type="matrix" values="0 0 0 0 0 0 0 0 0 0 0 0 0 0 0 0 0 0 0.25 0"/>
<feBlend mode="normal" in2="BackgroundImageFix" result="effect1_dropShadow_123_1452"/>
<feBlend mode="normal" in="SourceGraphic" in2="effect1_dropShadow_123_1452" result="shape"/>
</filter>
<filter id="filter6_d_123_1452" x="378.965" y="0.936582" width="212.848" height="210.81" filterUnits="userSpaceOnUse" color-interpolation-filters="sRGB">
<feFlood flood-opacity="0" result="BackgroundImageFix"/>
<feColorMatrix in="SourceAlpha" type="matrix" values="0 0 0 0 0 0 0 0 0 0 0 0 0 0 0 0 0 0 127 0" result="hardAlpha"/>
<feOffset dx="-15.8259" dy="3.72374"/>
<feGaussianBlur stdDeviation="6.89358"/>
<feComposite in2="hardAlpha" operator="out"/>
<feColorMatrix type="matrix" values="0 0 0 0 0 0 0 0 0 0 0 0 0 0 0 0 0 0 0.25 0"/>
<feBlend mode="normal" in2="BackgroundImageFix" result="effect1_dropShadow_123_1452"/>
<feBlend mode="normal" in="SourceGraphic" in2="effect1_dropShadow_123_1452" result="shape"/>
</filter>
<filter id="filter7_d_123_1452" x="394.795" y="0.459894" width="210.802" height="210.802" filterUnits="userSpaceOnUse" color-interpolation-filters="sRGB">
<feFlood flood-opacity="0" result="BackgroundImageFix"/>
<feColorMatrix in="SourceAlpha" type="matrix" values="0 0 0 0 0 0 0 0 0 0 0 0 0 0 0 0 0 0 127 0" result="hardAlpha"/>
<feOffset dy="3.24311"/>
<feGaussianBlur stdDeviation="6.89161"/>
<feComposite in2="hardAlpha" operator="out"/>
<feColorMatrix type="matrix" values="0 0 0 0 0 0 0 0 0 0 0 0 0 0 0 0 0 0 0.25 0"/>
<feBlend mode="normal" in2="BackgroundImageFix" result="effect1_dropShadow_123_1452"/>
<feBlend mode="normal" in="SourceGraphic" in2="effect1_dropShadow_123_1452" result="shape"/>
</filter>
<filter id="filter8_d_123_1452" x="394.795" y="0.459894" width="210.802" height="210.802" filterUnits="userSpaceOnUse" color-interpolation-filters="sRGB">
<feFlood flood-opacity="0" result="BackgroundImageFix"/>
<feColorMatrix in="SourceAlpha" type="matrix" values="0 0 0 0 0 0 0 0 0 0 0 0 0 0 0 0 0 0 127 0" result="hardAlpha"/>
<feOffset dy="3.24311"/>
<feGaussianBlur stdDeviation="6.89161"/>
<feComposite in2="hardAlpha" operator="out"/>
<feColorMatrix type="matrix" values="0 0 0 0 0 0 0 0 0 0 0 0 0 0 0 0 0 0 0.25 0"/>
<feBlend mode="normal" in2="BackgroundImageFix" result="effect1_dropShadow_123_1452"/>
<feBlend mode="normal" in="SourceGraphic" in2="effect1_dropShadow_123_1452" result="shape"/>
</filter>
<filter id="filter9_bd_123_1452" x="477.708" y="152.673" width="357.4" height="82.7747" filterUnits="userSpaceOnUse" color-interpolation-filters="sRGB">
<feFlood flood-opacity="0" result="BackgroundImageFix"/>
<feGaussianBlur in="BackgroundImageFix" stdDeviation="10.4534"/>
<feComposite in2="SourceAlpha" operator="in" result="effect1_backgroundBlur_123_1452"/>
<feColorMatrix in="SourceAlpha" type="matrix" values="0 0 0 0 0 0 0 0 0 0 0 0 0 0 0 0 0 0 127 0" result="hardAlpha"/>
<feOffset dy="3.98224"/>
<feGaussianBlur stdDeviation="1.99112"/>
<feComposite in2="hardAlpha" operator="out"/>
<feColorMatrix type="matrix" values="0 0 0 0 0 0 0 0 0 0 0 0 0 0 0 0 0 0 0.25 0"/>
<feBlend mode="normal" in2="effect1_backgroundBlur_123_1452" result="effect2_dropShadow_123_1452"/>
<feBlend mode="normal" in="SourceGraphic" in2="effect2_dropShadow_123_1452" result="shape"/>
</filter>
<filter id="filter10_i_123_1452" x="512.59" y="284.697" width="91.3877" height="57.8429" filterUnits="userSpaceOnUse" color-interpolation-filters="sRGB">
<feFlood flood-opacity="0" result="BackgroundImageFix"/>
<feBlend mode="normal" in="SourceGraphic" in2="BackgroundImageFix" result="shape"/>
<feColorMatrix in="SourceAlpha" type="matrix" values="0 0 0 0 0 0 0 0 0 0 0 0 0 0 0 0 0 0 127 0" result="hardAlpha"/>
<feOffset dx="-6.59501" dy="1.19909"/>
<feComposite in2="hardAlpha" operator="arithmetic" k2="-1" k3="1"/>
<feColorMatrix type="matrix" values="0 0 0 0 0.245833 0 0 0 0 0.130087 0 0 0 0 0.130087 0 0 0 0.25 0"/>
<feBlend mode="normal" in2="shape" result="effect1_innerShadow_123_1452"/>
</filter>
</defs>
</svg>
