<svg width="399" height="399" viewBox="0 0 399 399" fill="none" xmlns="http://www.w3.org/2000/svg">
<rect width="399" height="399" rx="23" fill="#1C1B28"/>
<circle cx="66.5" cy="66.5" r="66.5" fill="#C04D58"/>
<path d="M376 133C388.703 133 399.202 143.373 397.016 155.886C395.342 165.47 392.617 174.865 388.876 183.897C382.192 200.033 372.395 214.695 360.045 227.045C347.695 239.395 333.033 249.192 316.897 255.876C307.865 259.617 298.47 262.342 288.886 264.016C276.373 266.202 266 255.703 266 243L266 156C266 143.297 276.297 133 289 133L376 133Z" fill="#292841"/>
<path d="M296.811 365.75C304.157 365.75 310.292 372.037 306.754 378.474C304.537 382.508 301.288 386.174 297.192 389.261C293.096 392.349 288.233 394.798 282.881 396.469C282.719 396.52 282.557 396.569 282.394 396.618C273.604 399.271 266 391.557 266 382.375C266 373.193 273.443 365.75 282.625 365.75L296.811 365.75Z" fill="#FF4E61"/>
<path d="M279.3 365.75C271.954 365.75 265.82 359.463 269.357 353.026C271.574 348.992 274.824 345.326 278.92 342.239C283.016 339.151 287.879 336.702 293.231 335.031C293.392 334.98 293.555 334.931 293.717 334.882C302.508 332.229 310.111 339.943 310.111 349.125C310.111 358.307 302.668 365.75 293.486 365.75L279.3 365.75Z" fill="#292841"/>
<path d="M385.035 365.75C392.381 365.75 398.515 372.036 394.978 378.474C392.761 382.508 389.511 386.174 385.415 389.261C381.319 392.349 376.456 394.798 371.104 396.469C370.942 396.519 370.78 396.569 370.618 396.618C361.827 399.271 354.224 391.556 354.224 382.375C354.224 373.193 361.667 365.75 370.849 365.75L385.035 365.75Z" fill="#FF4E61"/>
<path d="M367.524 365.75C360.178 365.75 354.043 359.463 357.581 353.026C359.798 348.991 363.047 345.326 367.143 342.238C371.239 339.151 376.102 336.702 381.454 335.031C381.616 334.98 381.778 334.93 381.941 334.881C390.731 332.229 398.335 339.943 398.335 349.125C398.335 358.306 390.892 365.75 381.71 365.75L367.524 365.75Z" fill="#292841"/>
<path d="M296.811 299.25C304.157 299.25 310.292 305.536 306.754 311.974C304.537 316.008 301.288 319.674 297.192 322.761C293.096 325.849 288.233 328.298 282.881 329.969C282.719 330.019 282.557 330.069 282.394 330.118C273.604 332.771 266 325.056 266 315.875C266 306.693 273.443 299.25 282.625 299.25L296.811 299.25Z" fill="#FF4E61"/>
<path d="M279.3 299.25C271.954 299.25 265.82 292.963 269.357 286.526C271.574 282.491 274.824 278.826 278.92 275.738C283.016 272.651 287.879 270.202 293.231 268.531C293.392 268.48 293.555 268.43 293.717 268.381C302.508 265.729 310.111 273.443 310.111 282.625C310.111 291.806 302.668 299.25 293.486 299.25L279.3 299.25Z" fill="#292841"/>
<path d="M385.035 299.25C392.381 299.25 398.515 305.537 394.978 311.974C392.761 316.008 389.511 319.674 385.415 322.761C381.319 325.849 376.456 328.298 371.104 329.969C370.942 330.02 370.78 330.069 370.618 330.118C361.827 332.771 354.224 325.057 354.224 315.875C354.224 306.693 361.667 299.25 370.849 299.25L385.035 299.25Z" fill="#FF4E61"/>
<path d="M367.524 299.25C360.178 299.25 354.043 292.963 357.581 286.526C359.798 282.492 363.047 278.826 367.143 275.739C371.239 272.651 376.102 270.202 381.454 268.531C381.616 268.48 381.778 268.431 381.941 268.382C390.731 265.729 398.335 273.443 398.335 282.625C398.335 291.807 390.892 299.25 381.71 299.25L367.524 299.25Z" fill="#292841"/>
<path d="M323.411 332.5C316.066 332.5 309.931 338.787 313.469 345.224C315.686 349.258 318.935 352.924 323.031 356.011C327.127 359.099 331.99 361.548 337.342 363.219C337.504 363.27 337.666 363.319 337.829 363.368C346.619 366.021 354.223 358.307 354.223 349.125C354.223 339.943 346.779 332.5 337.598 332.5L323.411 332.5Z" fill="#FF4E61"/>
<path d="M340.923 332.5C348.268 332.5 354.403 326.213 350.865 319.776C348.648 315.742 345.399 312.076 341.303 308.989C337.207 305.901 332.344 303.452 326.992 301.781C326.83 301.73 326.668 301.681 326.505 301.632C317.715 298.979 310.111 306.693 310.111 315.875C310.111 325.057 317.555 332.5 326.736 332.5L340.923 332.5Z" fill="#292841"/>
<path d="M234.524 232.75C227.178 232.75 221.043 239.037 224.581 245.474C226.798 249.508 230.047 253.174 234.143 256.261C238.239 259.349 243.102 261.798 248.454 263.469C248.616 263.52 248.778 263.569 248.941 263.618C257.731 266.271 265.335 258.557 265.335 249.375C265.335 240.193 257.892 232.75 248.71 232.75L234.524 232.75Z" fill="#FF4E61"/>
<path d="M252.035 232.75C259.381 232.75 265.515 226.463 261.978 220.026C259.761 215.992 256.511 212.326 252.415 209.239C248.319 206.151 243.456 203.702 238.104 202.031C237.942 201.98 237.78 201.931 237.618 201.882C228.827 199.229 221.224 206.943 221.224 216.125C221.224 225.307 228.667 232.75 237.849 232.75L252.035 232.75Z" fill="#292841"/>
<path d="M146.3 232.75C138.954 232.75 132.82 239.036 136.357 245.474C138.574 249.508 141.824 253.174 145.92 256.261C150.016 259.349 154.879 261.798 160.231 263.469C160.392 263.519 160.555 263.569 160.717 263.618C169.508 266.271 177.111 258.556 177.111 249.375C177.111 240.193 169.668 232.75 160.486 232.75L146.3 232.75Z" fill="#FF4E61"/>
<path d="M163.811 232.75C171.157 232.75 177.292 226.463 173.754 220.026C171.537 215.991 168.288 212.326 164.192 209.238C160.096 206.151 155.233 203.702 149.881 202.031C149.719 201.98 149.557 201.93 149.394 201.881C140.604 199.229 133 206.943 133 216.125C133 225.306 140.443 232.75 149.625 232.75L163.811 232.75Z" fill="#292841"/>
<path d="M234.524 166.25C227.178 166.25 221.043 172.536 224.581 178.974C226.798 183.008 230.047 186.674 234.143 189.761C238.239 192.849 243.102 195.298 248.454 196.969C248.616 197.019 248.778 197.069 248.941 197.118C257.731 199.771 265.335 192.056 265.335 182.875C265.335 173.693 257.892 166.25 248.71 166.25L234.524 166.25Z" fill="#FF4E61"/>
<path d="M252.035 166.25C259.381 166.25 265.515 159.963 261.978 153.526C259.761 149.491 256.511 145.826 252.415 142.738C248.319 139.651 243.456 137.202 238.104 135.531C237.942 135.48 237.78 135.43 237.618 135.381C228.827 132.729 221.224 140.443 221.224 149.625C221.224 158.806 228.667 166.25 237.849 166.25L252.035 166.25Z" fill="#292841"/>
<path d="M146.3 166.25C138.954 166.25 132.82 172.536 136.357 178.974C138.574 183.008 141.824 186.674 145.92 189.761C150.016 192.849 154.879 195.298 160.231 196.969C160.392 197.019 160.555 197.069 160.717 197.118C169.508 199.771 177.111 192.056 177.111 182.875C177.111 173.693 169.668 166.25 160.486 166.25L146.3 166.25Z" fill="#FF4E61"/>
<path d="M163.811 166.25C171.157 166.25 177.292 159.963 173.754 153.526C171.537 149.491 168.288 145.826 164.192 142.738C160.096 139.651 155.233 137.202 149.881 135.531C149.719 135.48 149.557 135.43 149.394 135.381C140.604 132.729 133 140.443 133 149.625C133 158.806 140.443 166.25 149.625 166.25L163.811 166.25Z" fill="#292841"/>
<path d="M190.41 199.5C183.065 199.5 176.93 193.213 180.468 186.776C182.685 182.742 185.934 179.076 190.03 175.989C194.126 172.901 198.989 170.452 204.341 168.781C204.503 168.73 204.665 168.681 204.828 168.632C213.618 165.979 221.222 173.693 221.222 182.875C221.222 192.057 213.778 199.5 204.597 199.5L190.41 199.5Z" fill="#FF4E61"/>
<path d="M207.922 199.5C215.267 199.5 221.402 205.787 217.864 212.224C215.647 216.258 212.398 219.924 208.302 223.011C204.206 226.099 199.343 228.548 193.991 230.219C193.829 230.27 193.667 230.319 193.504 230.368C184.714 233.021 177.11 225.307 177.11 216.125C177.11 206.943 184.554 199.5 193.735 199.5L207.922 199.5Z" fill="#292841"/>
<circle cx="66.5" cy="133" r="56.525" fill="#1C1B28" stroke="#C04D58" stroke-width="19.95"/>
<circle cx="198.836" cy="66.5" r="56.525" fill="#1C1B28" stroke="#C04D58" stroke-width="19.95"/>
<circle cx="265.335" cy="66.5" r="56.525" fill="#1C1B28" stroke="#292841" stroke-width="19.95"/>
<circle cx="66.5" cy="266" r="56.525" stroke="#C04D58" stroke-width="19.95"/>
<circle cx="66.5" cy="332.5" r="66.5" fill="#292841"/>
<path d="M289 133C276.297 133 265.798 122.627 267.984 110.114C269.658 100.53 272.383 91.135 276.124 82.1031C282.808 65.9668 292.605 51.305 304.955 38.9548C317.305 26.6046 331.967 16.8079 348.103 10.124C357.135 6.38292 366.53 3.65803 376.114 1.98381C388.627 -0.201951 399 10.2975 399 23L399 110C399 122.703 388.703 133 376 133L289 133Z" fill="#FF4E61"/>
<mask id="mask0_292_2022" style="mask-type:alpha" maskUnits="userSpaceOnUse" x="133" y="266" width="133" height="133">
<rect x="133" y="266" width="133" height="133" rx="23" fill="#D9D9D9"/>
</mask>
<g mask="url(#mask0_292_2022)">
<path d="M136.427 261.121C205.496 275.22 196.884 319.2 265.999 319.199" stroke="#C04D58" stroke-width="6.65"/>
<path d="M132.668 327.845C219.783 327.845 209.808 377.055 266 377.055" stroke="#C04D58" stroke-width="6.65"/>
<path d="M133 296.59C194.18 296.59 206.15 341.81 266 341.81" stroke="#C04D58" stroke-width="6.65"/>
<path d="M130.672 362.425C204.819 362.425 191.852 371.735 243.389 403.655" stroke="#C04D58" stroke-width="6.65"/>
</g>
</svg>
